<?xml version="1.0" encoding="UTF-8" standalone="no"?>
<svg
   xmlns:dc="http://purl.org/dc/elements/1.1/"
   xmlns:cc="http://creativecommons.org/ns#"
   xmlns:rdf="http://www.w3.org/1999/02/22-rdf-syntax-ns#"
   xmlns:svg="http://www.w3.org/2000/svg"
   xmlns="http://www.w3.org/2000/svg"
   xmlns:sodipodi="http://sodipodi.sourceforge.net/DTD/sodipodi-0.dtd"
   xmlns:inkscape="http://www.inkscape.org/namespaces/inkscape"
   version="1.1"
   id="svg5130"
   width="1000"
   height="1000"
   viewBox="0 0 1000 1000"
   sodipodi:docname="earth.svg"
   inkscape:version="1.0.1 (3bc2e813f5, 2020-09-07)"
   inkscape:export-filename=""
   inkscape:export-xdpi="96"
   inkscape:export-ydpi="96">
  <metadata
     id="metadata5136">
    <rdf:RDF>
      <cc:Work
         rdf:about="">
        <dc:format>image/svg+xml</dc:format>
        <dc:type
           rdf:resource="http://purl.org/dc/dcmitype/StillImage" />
        <dc:title />
      </cc:Work>
    </rdf:RDF>
  </metadata>
  <defs
     id="defs5134" />
  <sodipodi:namedview
     pagecolor="#ffffff"
     bordercolor="#666666"
     borderopacity="1"
     objecttolerance="10"
     gridtolerance="10"
     guidetolerance="10"
     inkscape:pageopacity="0"
     inkscape:pageshadow="2"
     inkscape:window-width="1536"
     inkscape:window-height="822"
     id="namedview5132"
     showgrid="false"
     inkscape:zoom="0.25"
     inkscape:cx="-114.49803"
     inkscape:cy="782.77483"
     inkscape:window-x="0"
     inkscape:window-y="0"
     inkscape:window-maximized="1"
     inkscape:current-layer="g5683"
     inkscape:document-rotation="0" />
  <g
     id="g5683"
     transform="matrix(0.49848987,0,0,0.49850449,0.01300597,0.00106513)">
    <ellipse
       style="opacity:0.991;fill:#ffffff;stroke:none;stroke-width:37.909;stroke-linecap:round;stop-color:#000000"
       id="path14"
       cx="1003.0034"
       cy="1002.9979"
       rx="1003.0294"
       ry="1003" />
    <path
       style="fill:#5dcef9"
       d="m 1334.5,1872.9393 -84,-41.9438 -101.5,12.0086 -101.5,12.0087 -94.25628,28.0441 -94.25628,28.0442 -110.01619,-22.0072 -110.01619,-22.0072 -41.45894,16.4566 C 574.6937,1892.5945 555.34482,1900 554.4986,1900 551.304,1900 518.61664,1882.4862 489.5,1865.1738 287.59395,1745.1235 134.37469,1557.833 55.735501,1334.9536 38.032823,1284.7807 22.255156,1223.0648 12.542462,1166 3.3740163,1112.1328 -0.029402,1068.0059 -0.029402,1003 c 0,-66.24206 3.386521,-109.18286 13.091568,-166 C 34.289622,712.72619 76.72476,597.30862 140.82617,489.5 226.19371,345.92507 345.92507,226.19371 489.5,140.82617 c 34.9089,-20.75631 68.72179,-38.37938 71.44893,-37.23872 0.85309,0.35681 26.30107,1.01122 56.55107,1.45424 76.41004,1.11906 86.34405,2.71258 130.5,20.93364 47.93706,19.78135 87.59018,21.77402 119.5,6.00519 12.72356,-6.28758 22.17296,-13.41791 41.37831,-31.22325 22.43199,-20.79676 30.18605,-26.236649 41.65665,-29.224361 7.85055,-2.044808 14.58477,-1.931977 23.69073,0.396934 14.91629,3.814945 28.52071,12.045915 49.88891,30.183767 55.0705,46.7453 100.5417,73.25547 139.8854,81.55463 12.702,2.67937 32.9903,2.43619 43.5,-0.52139 16.8968,-4.75501 32.0806,-14.883 44.6382,-29.77475 22.9863,-27.25892 50.1459,-46.41649 88.3402,-62.31252 9.7451,-4.055832 32.6419,-11.702508 42.0216,-14.033694 l 5,-1.242674 15.5,6.692329 c 8.525,3.68078 26.75,12.195978 40.5,18.922659 176.2586,86.22808 321.8689,220.24541 421.6738,388.1018 64.1014,107.80862 106.5366,223.22619 127.764,347.5 9.7051,56.81714 13.0916,99.75794 13.0916,166 0,66.2421 -3.3865,109.1829 -13.0916,166 -21.2274,124.2738 -63.6626,239.6914 -127.764,347.5 -99.2087,166.8536 -243.3991,300.0269 -418.6399,386.6529 -13.1814,6.5159 -24.8814,11.8208 -26,11.7886 -1.1187,-0.032 -39.8339,-18.9331 -86.0339,-42.0022 z"
       id="path5693"
       inkscape:connector-curvature="0" />
    <path
       style="fill:#16bef7"
       d="m 1335.5109,1870.8242 -83.9891,-42.0657 -102.5717,12.0732 -102.5718,12.0732 -92.47454,27.5475 c -50.861,15.1512 -93.80861,27.5477 -95.43915,27.5477 -1.63053,10e-5 -51.68707,-9.744 -111.23673,-21.6535 l -108.27212,-21.6537 -40.01869,15.9035 c -22.01028,8.747 -41.14115,16.3335 -42.51305,16.859 -2.05641,0.7877 -4.02453,0.1985 -11.2092,-3.3556 -21.12706,-10.4512 -60.12387,-32.9578 -85.61883,-49.4139 C 334.0953,1763.6794 223.83753,1650.4392 147.24507,1523.886 88.169541,1426.276 45.494397,1318.6999 22.528915,1209.5 c -1.966368,-9.35 -3.997662,-17.9 -4.513987,-19 -1.339436,-2.8536 -7.520157,-40.5182 -10.4202657,-63.5 -5.6481835,-44.7587 -7.58536856,-76.4264 -7.58536856,-124 0,-60.68957 3.98709986,-108.07104 14.05287226,-167 29.141952,-170.60837 99.825714,-327.54276 208.268324,-462.40414 12.39265,-15.41174 35.69237,-42.4712 39.81935,-46.24476 1.29259,-1.18189 11.49209,-11.39647 22.66556,-22.69906 73.1248,-73.96982 145.33288,-129.2415 231.79858,-177.43025 9.83731,-5.48249 23.33994,-12.69934 30.00584,-16.03743 l 12.11981,-6.06926 6.38019,0.92234 c 3.5091,0.50729 23.93018,0.93584 45.38018,0.95234 71.4394,0.055 94.99605,3.40647 130,18.49574 36.42797,15.70312 72.24197,22.32217 97.90144,18.09388 26.49197,-4.36547 42.25058,-13.45234 73.34183,-42.29101 C 936.98353,77.876795 945.955,72.717739 961.5,72.675709 c 17.6349,-0.04768 35.02409,8.714379 60,30.232781 51.5286,44.39532 97.5091,71.81132 137.272,81.84879 9.5372,2.40751 12.5595,2.70602 27.228,2.6892 15.9853,-0.0183 16.7963,-0.12048 26,-3.27458 17.9745,-6.15989 27.8001,-13.6859 50.8062,-38.91545 24.5483,-26.9207 60.186,-47.629734 107.1938,-62.290092 7.425,-2.315643 14.4152,-4.414247 15.5338,-4.663566 2.6778,-0.596824 26.7637,9.830717 57.9662,25.095408 89.5646,43.81621 165.3899,95.90165 240.836,165.43355 8.7098,8.02704 17.0348,15.33538 18.5,16.24075 2.9136,1.80035 24.0901,23.35743 39.2388,39.94393 73.9132,80.9287 137.9678,179.08685 179.4447,274.98357 48.5712,112.29883 76.0291,227.43405 83.4696,350 1.2915,21.27556 1.2915,84.7244 0,106 -10.7766,177.5207 -64.5356,343.5584 -158.3266,489 -24.8119,38.4759 -62.3947,89.1627 -76.028,102.5369 -2.824,2.7702 -11.6213,12.391 -19.5496,21.3794 -83.8497,95.061 -188.7483,175.0556 -304.551,232.2475 -13.1814,6.5099 -24.6564,11.8114 -25.5,11.7812 -0.8437,-0.03 -39.329,-18.9846 -85.523,-42.1208 z"
       id="path5691"
       inkscape:connector-curvature="0" />
    <path
       style="fill:#16a59f"
       d="m 1762.5,1644.2948 c -15.2079,-11.8884 -33.5692,-27.1511 -39.3377,-32.6992 -16.1422,-15.5254 -23.9636,-30.2358 -26.1073,-49.1019 -1.2651,-11.1335 -0.141,-23.03 4.3572,-46.1139 5.2102,-26.7372 5.8985,-32.9752 5.3192,-48.2036 -1.0053,-26.4271 -9.665,-46.2994 -30.3521,-69.6516 -7.9511,-8.9754 -13.0209,-13.5493 -49.4378,-44.6027 -80.2522,-68.4323 -114.9501,-108.2254 -125.149,-143.5269 -1.8968,-6.5654 -2.2688,-10.1685 -2.2088,-21.395 0.063,-11.7185 0.433,-14.6877 2.8061,-22.5 4.9674,-16.3528 14.89,-34.9251 30.9875,-58 19.9319,-28.5714 27.5432,-36.6642 46.1581,-49.0776 24.5449,-16.368 52.8822,-26.0655 89.4646,-30.6162 15.4343,-1.92 72.5408,-1.6301 103.2274,0.524 62.1856,4.3653 124.9074,-4.9693 149.553,-22.2572 22.8643,-16.03838 24.0403,-41.1843 3.8641,-82.62639 C 1907.6337,887.45202 1875.6908,841.92074 1812.3804,763 c -62.4107,-77.79916 -57.5439,-72.01063 -76.8804,-91.4402 -28.4345,-28.5713 -51.85,-45.26394 -77.7422,-55.42156 -8.006,-3.14078 -14.3319,-4.85172 -32.2578,-8.72473 -6.6,-1.42596 -19.219,-4.96799 -28.0423,-7.87116 -41.122,-13.53067 -68.2187,-33.83482 -80.9145,-60.6311 -7.6154,-16.07328 -9.8435,-36.47857 -6.1314,-56.15227 12.4386,-65.92302 86.4546,-146.59302 175.4491,-191.22185 11.5118,-5.77293 15.573,-7.37526 16.8972,-6.66662 0.9586,0.51308 8.0428,7.39558 15.7425,15.29446 C 1863.37,448.78215 1957.2058,632.66534 1991.9378,836 c 10.0658,58.92896 14.0529,106.31043 14.0529,167 0,60.6896 -3.9871,108.071 -14.0529,167 -28.9352,169.3983 -99.0205,325.7024 -206.2596,460 -10.2487,12.8346 -15.6502,19.0056 -16.6244,18.9926 -0.3046,0 -3.2538,-2.1181 -6.5538,-4.6978 z M 811.60148,1388.9012 c -20.72909,-2.1857 -30.95596,-4.6368 -45.74629,-10.9639 -7.89535,-3.3776 -28.94847,-11.9763 -46.78471,-19.1083 -57.31948,-22.9198 -91.50839,-38.1578 -122.57048,-54.6298 -70.02319,-37.1327 -114.3082,-77.1843 -132.23204,-119.5913 -7.81587,-18.492 -11.26835,-39.354 -9.27527,-56.0467 6.94824,-58.1939 41.29559,-100.1631 110.844,-135.44101 17.88225,-9.07062 33.87906,-16.10341 74.34143,-32.68324 51.95444,-21.2888 79.95378,-35.51495 98.32188,-49.95624 14.00086,-11.00769 20.70002,-18.95182 29.52,-35.00599 11.38148,-20.71662 28.25428,-32.98386 52.33429,-38.04925 51.59247,-10.85281 137.73289,18.501 226.14571,77.06299 52.26,34.61546 99.237,77.90272 113.4188,104.51064 5.9303,11.1263 24.6399,66.1308 31.079,91.3693 6.3373,24.8395 7.018,40.7998 2.1473,50.3472 -3.2516,6.3737 -6.6147,9.7749 -19.02,19.2359 -12.9219,9.855 -23.3983,20.2305 -30.3554,30.0632 -6.0594,8.564 -15.6263,27.0253 -20.3828,39.3327 -3.7242,9.6364 -4.0202,10.0513 -13.8174,19.3668 -12.7049,12.0803 -30.5668,27.0554 -46.014,38.5773 -63.97859,47.721 -130.07001,75.256 -195.97918,81.6489 -12.51631,1.2141 -44.29976,1.1918 -55.97484,-0.039 z M 17.555058,1189.8561 C 16.474357,1186.6948 9.8616577,1144.9647 7.5946623,1127 1.9464788,1082.2413 0.00929374,1050.5736 0.00929374,1003 c 0,-60.68957 3.98709986,-108.07104 14.05287226,-167 29.123121,-170.49812 99.837964,-327.55724 208.100574,-462.19561 12.80969,-15.93048 30.10361,-36.1958 38.00748,-44.53784 l 4.95857,-5.23345 5.1856,3.03337 c 28.55438,16.70315 61.43375,29.14772 141.18561,53.43757 96.6053,29.42287 107.92783,34.31563 147.04787,63.54328 36.0541,26.937 48.67581,48.59678 48.63003,83.45268 -0.0389,29.65036 -8.28288,63.81379 -32.09407,133 -4.35364,12.65 -9.34269,27.5 -11.08679,33 -13.54774,42.72264 -48.61947,82.90162 -98.70051,113.07356 -26.69569,16.08315 -63.71954,32.52744 -91.08532,40.45592 -13.50776,3.9135 -21.29704,7.95693 -28.4241,14.755 -10.38183,9.90258 -13.86761,20.10761 -15.78606,46.21552 -2.06372,28.08473 -3.16077,38.59823 -5.06082,48.5 -6.19228,32.2698 -21.58419,60.0464 -47.80153,86.2637 -21.82007,21.8201 -46.7797,39.3701 -88.1387,61.9735 -9.075,4.9597 -27.75,15.2026 -41.5,22.7621 -41.16574,22.6322 -118.120741,60.8615 -126.998652,63.0897 -1.644437,0.4127 -2.639237,0.1653 -2.94629,-0.7329 z"
       id="path5689"
       inkscape:connector-curvature="0" />
    <path
       style="fill:#199757"
       d="m 1757.9448,1638.4253 c -37.6532,-29.537 -47.9588,-40.5229 -54.9277,-58.554 -6.3766,-16.4985 -6.2814,-30.7117 0.4343,-64.8713 4.8963,-24.9048 5.8769,-33.7419 5.2696,-47.4896 -0.8796,-19.9124 -5.9619,-34.9961 -17.8632,-53.0161 -9.5981,-14.5328 -21.9735,-27.0545 -51.8578,-52.4709 -37.778,-32.13 -55.1606,-47.942 -78.5017,-71.4087 C 1517.1716,1247.055 1501,1219.7889 1501,1190.2979 c 0,-26.3547 11.8379,-51.6222 45.2575,-96.6002 11.9868,-16.1325 18.51,-22.3683 34.7706,-33.2388 23.0188,-15.3885 50.4401,-24.8521 85.9719,-29.6706 14.1349,-1.9168 79.4803,-1.6072 108.5,0.5142 18.7423,1.37 26.5172,1.4966 42,0.6838 81.6863,-4.2884 117.9632,-19.5355 123.6582,-51.97305 2.318,-13.20278 -2.2402,-32.1557 -13.2021,-54.89362 -19.6718,-40.80455 -55.7985,-91.19003 -141.6945,-197.61963 -28.3303,-35.10269 -30.4891,-37.61851 -45.7616,-53.32843 -30.7591,-31.64013 -58.5025,-51.41169 -85.5192,-60.94595 -4.6856,-1.65355 -15.0356,-4.41771 -23,-6.14257 -69.3866,-15.02711 -108.2295,-42.17205 -119.1389,-83.25903 -2.8289,-10.6542 -3.0206,-30.23552 -0.4145,-42.32402 13.3788,-62.0561 77.5556,-134.91025 158.9997,-180.4982 12.9507,-7.2491 28.9993,-15.0018 31.0546,-15.0018 1.3049,0 25.1994,24.13842 40.5931,41.00753 111.751,122.46175 190.3498,267.97741 231.446,428.49247 12.9729,50.66977 22.4881,106.5747 26.8923,158 0.8478,9.9 1.7892,20.25 2.0918,23 1.8095,16.44002 2.3273,31.23696 2.3273,66.5 0,35.263 -0.5178,50.06 -2.3273,66.5 -0.3026,2.75 -1.244,13.1 -2.0918,23 -16.6831,194.8005 -93.3133,384.9177 -216.8361,537.9635 -6.6424,8.2299 -12.5518,15.5847 -13.1322,16.3438 -0.8467,1.1077 -3.5136,-0.5482 -13.5,-8.382 z M 806,1386.4011 c -17.8325,-2.1467 -25.88021,-4.1033 -36.99304,-8.994 -5.64366,-2.4838 -26.02015,-10.8291 -45.28108,-18.5452 -81.86252,-32.7947 -119.44364,-50.4843 -159.22588,-74.9481 -26.47829,-16.2827 -46.96184,-32.3622 -64.68372,-50.7765 -24.37368,-25.326 -38.09081,-51.0436 -42.4765,-79.6373 -3.36789,-21.9579 1.92045,-50.1052 13.90318,-74 7.00117,-13.9611 15.44406,-25.2827 28.71052,-38.5 19.73152,-19.6584 37.57539,-31.7006 72.54652,-48.95936 20.67405,-10.20293 34.30355,-16.12039 83,-36.03571 26.38946,-10.79246 59.38275,-27.09895 72.75119,-35.9563 18.87043,-12.50273 31.57134,-26.1721 42.6134,-45.86275 19.06699,-34.00106 58.27451,-44.65423 116.63541,-31.69131 24.43221,5.42679 60.30272,18.87799 89.92719,33.72207 70.87761,35.515 143.25091,90.68717 173.82371,132.51056 7.122,9.7428 9.6486,15.2361 18.6386,40.5235 14.4351,40.6037 22.2682,68.6902 24.3482,87.3037 0.9704,8.6841 0.8957,11.0694 -0.5271,16.835 -2.3263,9.4268 -5.5031,13.372 -19.2106,23.857 -6.6,5.0484 -15.4155,12.6185 -19.59,16.8225 -12.5354,12.6239 -24.9189,33.0886 -33.365,55.138 -3.6797,9.6062 -3.8235,9.8037 -13.8816,19.0565 -74.6589,68.6819 -154.58464,109.0394 -234.15727,118.235 -16.16118,1.8676 -51.6082,1.8165 -67.50613,-0.097 z M 17.10782,1184.8239 C 12.635054,1162.4575 7.0535965,1121.3021 4.586926,1092.5 c -0.8478549,-9.9 -1.7891969,-20.25 -2.0918711,-23 -1.80944339,-16.44 -2.32728971,-31.237 -2.32728971,-66.5 0,-35.26304 0.51784632,-50.05998 2.32728971,-66.5 0.3026742,-2.75 1.2440162,-13.1 2.0918711,-23 13.597487,-158.77142 67.717511,-316.82829 154.768674,-452 28.94334,-44.94278 65.96687,-93.29423 99.89062,-130.4537 l 4.97881,-5.4537 3.13749,1.84037 c 8.97011,5.26163 26.50902,14.03572 37.13748,18.57856 24.99967,10.68541 49.20701,18.78587 127,42.49782 63.22786,19.27237 83.19717,27.47055 108.59842,44.58385 41.8941,28.22485 58.65912,47.87191 64.02927,75.03639 1.96178,9.92353 1.50076,32.309 -0.96864,47.03336 -4.12412,24.59094 -13.43337,57.45739 -29.12807,102.83705 -4.27993,12.375 -9.48485,27.874 -11.56648,34.44223 -13.92029,43.92313 -47.33326,81.86839 -100.4645,114.09196 -20.04399,12.15649 -58.37332,29.48542 -80.5,36.39457 -3.85,1.20218 -9.925,3.11784 -13.5,4.25703 -22.25688,7.09224 -33.7898,19.99698 -37.94126,42.4543 -0.56939,3.08008 -1.73737,15.55859 -2.59552,27.73003 -2.41621,34.26983 -5.53534,50.39862 -13.37499,69.16111 -8.49034,20.31977 -19.54092,36.03607 -39.03316,55.51357 -19.07721,19.0629 -43.9073,37.2619 -72.55507,53.1788 -28.07059,15.5962 -60.92694,33.6328 -77,42.2692 -25.909584,13.922 -88.341953,44.5966 -106.163761,52.161 -0.736976,0.3128 -1.554203,-1.4584 -2.228419,-4.8299 z"
       id="path5687"
       inkscape:connector-curvature="0" />
    <path
       style="fill:#179238"
       d="m 1759.5,1637.8701 c -36.6801,-29.3588 -45.2679,-38.0468 -52.6103,-53.2239 -2.0897,-4.3196 -4.5517,-11.2349 -5.4711,-15.3673 -2.3125,-10.3944 -1.5053,-29.5965 1.9312,-45.9376 6.211,-29.5339 7.9191,-45.1895 6.5943,-60.4405 -1.1851,-13.6439 -3.956,-23.2981 -10.4473,-36.4008 -10.4941,-21.1818 -21.7146,-33.5172 -60.4119,-66.4142 -36.0023,-30.6059 -54.7568,-47.6025 -76.1468,-69.0093 -30.3709,-30.3947 -45.2019,-49.7063 -53.9356,-70.23 -15.4804,-36.3786 -6.0781,-66.475 40.1469,-128.5088 7.9899,-10.7223 11.6607,-14.6524 19.8024,-21.2014 30.2878,-24.3626 65.1095,-36.5345 115.0482,-40.215 19.1179,-1.409 49.245,-0.8243 87.7257,1.7027 21.9477,1.4413 29.0405,1.522 47.7743,0.5434 71.2645,-3.7227 106.885,-15.9607 119.2474,-40.96932 3.7094,-7.50378 3.7526,-7.73009 3.7526,-19.64466 0,-13.32451 -1.1364,-18.80842 -7.1217,-34.367 -15.9531,-41.46979 -52.9398,-94.10067 -153.8239,-218.886 -4.9799,-6.15976 -11.9794,-14.91341 -15.5544,-19.45255 -14.9374,-18.96589 -48.7671,-51.48311 -67.7419,-65.11383 -23.1379,-16.62129 -38.4143,-23.0044 -74.7581,-31.23696 -42.2335,-9.56668 -76.2907,-27.36988 -93.3358,-48.79067 -23.3889,-29.39332 -24.3346,-66.35281 -2.8198,-110.20641 28.2256,-57.53208 90.7883,-115.76325 162.897,-151.61881 l 12.7414,-6.33558 6.1159,5.97719 c 10.4826,10.24498 35.6751,37.32117 48.9155,52.57306 74.4907,85.8077 132.8587,181.56543 175.4884,287.90414 39.193,97.766 62.8005,204.25335 69.39,313 l 0.818,13.5 0.3124,-9 0.3124,-9 0.7098,10.5 c 0.9202,13.61398 0.9202,88.386 0,102 l -0.7098,10.5 -0.3124,-9 -0.3124,-9 -0.818,13.5 c -11.972,197.5749 -79.5307,383.3725 -196.7155,541 -13.9006,18.698 -34.968,45.0243 -35.9606,44.9371 -0.3941,-0.035 -5.2165,-3.6648 -10.7165,-8.067 z m -944.92193,-251.998 c -20.08754,-1.9308 -33.5479,-4.7521 -43.00033,-9.013 -4.99276,-2.2506 -20.32774,-8.5918 -34.07774,-14.0915 -96.02052,-38.4064 -136.53566,-57.4347 -177,-83.1298 -67.63054,-42.9456 -102.29174,-90.2775 -102.61051,-140.1207 -0.21115,-33.0165 14.15764,-67.4345 39.1987,-93.8938 25.46879,-26.9113 59.22589,-47.03705 123.41181,-73.57731 63.91926,-26.42999 74.16297,-30.96296 91,-40.26861 C 741.77266,915.046 757.95691,900.37078 769.7044,879 777.33199,865.12404 788.88916,853.21435 800,847.78031 c 28.82492,-14.09758 67.45073,-12.26752 119.77498,5.67485 58.48074,20.05347 129.22722,61.4887 182.72502,107.01953 11.9444,10.16565 33.3183,31.3025 40.4742,40.02531 9.0318,11.0096 15.5367,21.6801 19.0278,31.2128 14.4583,39.4803 25.2347,74.1012 28.9871,93.1256 2.8403,14.4003 2.5491,28.4685 -0.7177,34.6616 -2.4555,4.6554 -9.0855,11.1957 -18.2714,18.0243 -15.4453,11.4819 -25.5425,22.0403 -34.5637,36.1428 -4.977,7.7803 -13.6303,25.4161 -17.5194,35.7052 l -3.3535,8.8722 -12.5317,11.3128 c -77.487,69.95 -157.68856,109.0024 -239.0317,116.3913 -13.26535,1.2049 -37.47253,1.1682 -50.42193,-0.076 z M 18.58535,1186.1933 C 18.302965,1185.262 16.721285,1176.4 15.070506,1166.5 9.6345273,1133.8995 5.1851622,1094.2897 3.1073901,1060 l -0.8180286,-13.5 -0.3123947,9 -0.3123946,9 -0.70974963,-10.5 c -0.92023991,-13.614 -0.92023991,-88.38602 0,-102 l 0.70974963,-10.5 0.3123946,9 0.3123947,9 L 3.1073901,946 C 16.661103,722.32185 102.0038,512.92397 248.01329,345.09586 c 17.33355,-19.92374 15.47502,-18.63933 21.50367,-14.86106 8.57584,5.37464 27.34266,14.35246 43.98304,21.04095 21.607,8.68479 43.97389,16.14754 95,31.69691 87.35333,26.61949 103.40952,32.86805 129.32887,50.33071 34.26796,23.08737 49.43482,37.71 58.28816,56.19663 5.51511,11.51609 7.01723,18.13925 7.60729,33.54217 1.13961,29.74793 -4.76721,55.28852 -30.86502,133.45783 -19.21475,57.55286 -23.1222,66.15811 -39.72047,87.47522 -32.0456,41.15605 -85.69212,75.41464 -152.80478,97.58092 -21.66893,7.15691 -28.80417,10.44247 -35.49305,16.34343 -12.6677,11.17552 -16.70198,23.92767 -18.85527,59.60043 -2.16615,35.886 -6.60117,55.70411 -17.23152,77 -18.07495,36.2097 -54.0499,69.77 -105.76163,98.6628 -20.37018,11.3814 -60.82771,33.6648 -75.63583,41.659 -25.89634,13.9803 -82.794341,41.9976 -104.057361,51.2391 -3.914894,1.7015 -4.235533,1.7105 -4.714039,0.1324 z"
       id="path5685"
       inkscape:connector-curvature="0" />
  </g>
</svg>
