<?xml version="1.0" encoding="UTF-8" standalone="no"?>
<svg
   xmlns:dc="http://purl.org/dc/elements/1.1/"
   xmlns:cc="http://creativecommons.org/ns#"
   xmlns:rdf="http://www.w3.org/1999/02/22-rdf-syntax-ns#"
   xmlns:svg="http://www.w3.org/2000/svg"
   xmlns="http://www.w3.org/2000/svg"
   xmlns:sodipodi="http://sodipodi.sourceforge.net/DTD/sodipodi-0.dtd"
   xmlns:inkscape="http://www.inkscape.org/namespaces/inkscape"
   version="1.1"
   id="svg815"
   width="1000"
   height="1000"
   viewBox="0 0 1000 1000"
   sodipodi:docname="jupiter.svg"
   inkscape:version="1.0.1 (3bc2e813f5, 2020-09-07)"
   inkscape:export-filename=""
   inkscape:export-xdpi="144"
   inkscape:export-ydpi="144">
  <metadata
     id="metadata821">
    <rdf:RDF>
      <cc:Work
         rdf:about="">
        <dc:format>image/svg+xml</dc:format>
        <dc:type
           rdf:resource="http://purl.org/dc/dcmitype/StillImage" />
        <dc:title />
      </cc:Work>
    </rdf:RDF>
  </metadata>
  <defs
     id="defs819" />
  <sodipodi:namedview
     pagecolor="#ffffff"
     bordercolor="#666666"
     borderopacity="1"
     objecttolerance="10"
     gridtolerance="10"
     guidetolerance="10"
     inkscape:pageopacity="0"
     inkscape:pageshadow="2"
     inkscape:window-width="1633"
     inkscape:window-height="873"
     id="namedview817"
     showgrid="false"
     inkscape:zoom="0.35355339"
     inkscape:cx="751.47145"
     inkscape:cy="130.83093"
     inkscape:window-x="0"
     inkscape:window-y="0"
     inkscape:window-maximized="1"
     inkscape:current-layer="g825"
     inkscape:document-rotation="0" />
  <g
     id="g825"
     transform="matrix(0.49823765,0,0,0.49821065,0.03998245,0.09613614)">
    <path
       style="fill:#e59347"
       d="m 957.5,2006.3781 c -97.94424,-5.9006 -178.97917,-21.0989 -267,-50.0768 -116.56697,-38.3756 -218.98676,-94.346 -320.34809,-175.0639 -63.61999,-50.663 -121.22483,-110.7667 -172.05897,-179.5227 -13.43399,-18.1702 -50.61516,-74.396 -61.32384,-92.7346 C 76.962756,1406.5618 32.440882,1282.8492 13.069799,1165.2577 3.1217218,1104.8682 -0.57137949,1054.102 0.29063271,989.59243 1.074657,930.91915 4.4801487,894.24113 15.015668,831 28.356956,750.91681 56.309915,660.22814 88.836727,591.5 108.87809,549.15323 125.02958,518.52385 143.33883,488.1433 c 6.13864,-10.18585 12.3064,-20.57254 13.70613,-23.08152 7.23969,-12.97694 40.08591,-59.72436 57.30791,-81.56178 26.13737,-33.14209 42.26846,-51.1532 76.6273,-85.55791 C 318.48479,270.40074 339.76308,250.8695 364,230.91754 479.35084,135.96012 600.49942,73.741241 749.5,32.934391 853.84063,4.3585802 971.92664,-6.1402527 1085.5,3.061183 c 204.3176,16.553315 400.0511,96.799261 561.0605,230.021117 7.7332,6.39862 16.3048,13.83522 19.0478,16.52578 2.7431,2.69055 12.0667,11.37404 20.7191,19.29662 66.016,60.44775 131.1053,141.09502 178.4429,221.0953 6.3462,10.725 13.7385,23.22299 16.4274,27.77331 7.5663,12.80434 25.8082,48.78666 34.8423,68.72669 49.8242,109.97287 77.9755,219.18343 88.5444,343.5 2.1529,25.32386 2.9997,93.9473 1.5086,122.2629 -7.8706,149.4587 -48.6844,295.7833 -118.8891,426.2371 -15.3911,28.5996 -40.1746,68.1263 -70.1528,111.8852 -19.7498,28.8286 -59.5427,77.5549 -78.9237,96.6417 -3.6451,3.5897 -16.3024,16.3576 -28.1274,28.373 -60.1948,61.164 -134.0245,116.8872 -217.5,164.1587 -34.3639,19.4601 -89.8517,45.1044 -134,61.9297 -89.4716,34.0985 -179.8952,54.3724 -281.5,63.1152 -17.3728,1.4949 -103.02865,2.7669 -119.5,1.7746 z"
       id="path839"
       inkscape:connector-curvature="0" />
    <path
       style="fill:#d6843c"
       d="m 1423,1892.4938 c -102.9057,-10.0603 -195.1897,-22.434 -466,-62.4823 -290.1333,-42.9059 -388.02539,-55.234 -485,-61.0791 -28.01411,-1.6885 -74.85579,-1.3882 -90,0.5769 -23.2487,3.0169 -21.19885,3.0273 -25.04543,-0.1269 C 319.64464,1738.7883 265.77509,1684.3437 230.91754,1642 208.29195,1614.5153 184,1581.875 184,1578.9585 c 0,-2.5038 1.49205,-3.2027 15.54971,-7.2837 83.37931,-24.2055 207.33053,-24.4176 399.95029,-0.6844 100.8197,12.4223 191.14784,26.8561 422.5,67.5124 219.9711,38.6564 297.7816,51.43 386.5,63.4491 107.9816,14.6288 176.6097,20.5662 253.5,21.9317 l 37.5,0.666 -7,6.8 c -16.1496,15.6882 -47.633,42.8692 -71,61.2975 -42.4743,33.4972 -104.321,73.621 -149.4573,96.9623 -8.637,4.4664 -10.1117,4.9075 -17,5.0851 -4.1485,0.107 -18.5677,-0.8834 -32.0427,-2.2007 z m 287,-204.1736 c -113.9637,-8.3673 -214.2183,-21.9857 -554.7206,-75.3522 C 731.36546,1546.5286 565.31706,1525.4245 391,1515.8312 c -30.0193,-1.6521 -121.75847,-1.6699 -142,-0.028 -36.97652,3.0001 -66.83055,7.9202 -85.88133,14.1537 -7.4247,2.4294 -9.68142,2.8205 -10.82012,1.8755 -5.68858,-4.7211 -54.924757,-95.3427 -54.107341,-99.5872 0.413866,-2.149 16.608181,-6.2465 40.308791,-10.1989 40.88863,-6.8188 67.8813,-8.525 134.5,-8.5019 63.84603,0.022 102.45441,1.7312 181,8.0119 157.40628,12.5866 319.90318,33.6652 705,91.4502 385.697,57.875 510.8278,73.1549 635.25,77.5711 16.9436,0.6014 18.75,0.8342 18.75,2.4171 0,1.5236 -12.5266,18.8438 -23.7873,32.8901 -18.7642,23.4059 -49.4864,58.7922 -53.4583,61.5743 -2.1405,1.4992 -12.3916,1.8418 -25.7544,0.8607 z m 42.5,-174.918 c -2.75,-0.1991 -12.2,-0.8413 -21,-1.4271 -75.8148,-5.0468 -179.67,-20.9541 -319.5,-48.9373 -105.0647,-21.0258 -195.2113,-40.9514 -438.5,-96.9239 -309.49868,-71.2052 -435.73233,-98.2599 -565,-121.0922 -179.6039,-31.723 -302.90384,-41.1515 -374.755486,-28.6569 -4.194544,0.7294 -8.148668,1.0035 -8.786942,0.609 -4.27792,-2.6439 -17.7527773,-88.5186 -20.9437753,-133.4738 -0.6246394,-8.8 -1.5386792,-17.575 -2.0311995,-19.5 -0.4925203,-1.925 -1.17162397,-9.9105 -1.50911926,-17.7455 -0.70214846,-16.3005 -1.46003847,-15.4908 8.86019996,-9.4661 42.8919511,25.0391 161.8486321,47.6442 348.1663221,66.1613 64.01388,6.362 121.09016,11.1977 213,18.0459 95.3562,7.105 221.84066,14.8784 480,29.4996 225.1306,12.7506 333.9003,19.4419 439.5,27.0373 250.6356,18.0274 398.1632,36.8314 475.75,60.6396 l 10.25,3.1453 v 3.4933 c 0,9.2575 -21.8237,79.3691 -36.7889,118.1893 -16.6148,43.0996 -38.4513,89.8768 -59.5361,127.5361 -7.6319,13.6312 -9.2501,15.0233 -20.2544,17.4251 -18.8514,4.1143 -32.5612,5.2289 -67.9206,5.5216 -18.7,0.1548 -36.25,0.1186 -39,-0.081 z m 148,-423.5202 c -57.9832,-3.4224 -145.0184,-14.5953 -249,-31.9646 -97.7082,-16.3213 -172.2889,-30.3022 -405.5,-76.01449 C 1026.8222,938.94129 976.24583,929.18881 883.5,912.0033 473.2805,835.99091 215.84184,808.43433 48,822.57024 c -10.175,0.85695 -21.068911,1.9022 -24.208691,2.32277 -4.420841,0.59217 -5.826001,0.45897 -6.228699,-0.59045 -1.359913,-3.54387 11.646419,-60.59689 21.955846,-96.31056 13.026239,-45.12519 43.370007,-126.6925 49.734054,-133.69049 4.501982,-4.95043 37.98798,-9.54989 82.29298,-11.30331 102.38635,-4.05206 264.84353,15.74464 480.95451,58.60816 166.49941,33.02355 324.26029,69.35086 664,152.89808 286.8939,70.55162 384.1774,93.43775 478.5,112.56798 91.2613,18.50935 145.1896,26.54054 186.4849,27.77198 l 21.985,0.6556 0.8506,4 c 1.7263,8.11786 2.5005,27.93318 2.5005,64 0,20.35 -0.3925,42.175 -0.8721,48.5 -2.0161,26.5856 -3.0082,34.4955 -4.4652,35.5983 -4.0243,3.046 -64.7874,4.4202 -100.9837,2.2837 z M 1889,771.92332 C 1759.543,766.65005 1562.0789,705.77126 1278.5,583.70431 1159.0505,532.2871 1062.5042,487.86467 801,363.99913 640.01643,287.74677 569.28121,255.01731 498,223.79988 c -17.67289,-7.7398 -71.11596,-30.2401 -76.25,-32.10234 -0.9625,-0.34912 -1.75,-1.29103 -1.75,-2.09314 0,-3.19607 67.00286,-46.10536 101.58152,-65.0538 C 551.89095,107.94162 603.80699,83 608.06919,83 c 1.01131,0 8.49695,5.036845 16.63477,11.192988 C 725.89759,170.74451 935.37446,264.29812 1206,353.80322 c 243.3641,80.48882 505.4542,144.79469 661.5,162.30424 9.8648,1.1069 11.258,1.51305 13.5,3.93544 1.375,1.48563 7.9767,13.44624 14.6704,26.57913 23.5272,46.15958 40.7006,86.82511 56.96,134.87797 12.8826,38.07303 24.9155,79.91386 23.8104,82.79368 -0.6778,1.76637 -5.966,3.09226 -20.9408,5.25047 -8.9674,1.2924 -16.426,1.79442 -41.5,2.79324 -4.125,0.16432 -15.375,-0.022 -25,-0.41407 z M 1156,642.92897 C 1042.0269,609.88388 962.95675,588.36002 867.67671,564.44385 578.62063,491.88812 355.25768,456.62421 218.93413,462.02222 c -22.74952,0.90082 -47.82238,2.92818 -56.61638,4.57795 C 159.4895,467.13075 159,466.93713 159,465.28784 c 0,-3.52227 34.69464,-53.519 55.36781,-79.78784 20.20387,-25.6725 51.22997,-61.5 53.25811,-61.5 0.69496,0 6.59781,2.91681 13.11746,6.48179 20.71506,11.32713 55.30785,26.94347 91.07011,41.11207 58.95926,23.35901 130.94115,48.24135 282.18651,97.54484 35.475,11.56426 95.55,31.14494 133.5,43.51262 185.34786,60.40376 393.7651,131.4411 407.4204,138.86601 l 2.5796,1.40259 -3.5,0.006 c -1.925,0.003 -19.025,-4.49534 -38,-9.9969 z m 488,-394.56256 c -21.0335,-5.32314 -83.9065,-19.30568 -118.5,-26.35362 -62.2777,-12.68821 -135.8696,-25.87207 -260,-46.57854 -152.7774,-25.48515 -201.1752,-34.2828 -259,-47.08048 C 886.38911,101.77104 812.81612,73.190217 769.19995,36.170063 764.7646,32.405471 764.11897,31.452457 765.24267,30.328757 766.73476,28.836673 797.56259,21.803925 823,17.152589 861.28254,10.152466 906.04893,4.6868964 955,1.0365875 c 14.88759,-1.11017637 82.1124,-1.11017637 97,0 104.0944,7.762375 177.8805,21.7821645 264,50.1615165 103.9338,34.24978 199.8496,84.016316 286,148.393046 27.7265,20.71886 62.2631,49.04616 63.3958,51.99784 0.8131,2.11892 -1.9108,1.70865 -21.3958,-3.22258 z"
       id="path837"
       inkscape:connector-curvature="0" />
    <path
       style="fill:#cb6d2d"
       d="M 1427.4966,1891.4875 C 1322.8074,1881.4264 1225.817,1868.4429 949.5,1827.501 823.93486,1808.896 758.18803,1799.4432 703,1792.0603 c -178.98073,-23.9436 -281.50281,-30.8758 -332.06178,-22.4528 -6.32483,1.0537 -10.71303,1.3407 -11.92478,0.7799 -4.46361,-2.0659 -40.33275,-34.7048 -63.06682,-57.3874 -33.93086,-33.854 -62.39293,-66.4961 -91.11821,-104.5 C 196.08732,1596.9354 184,1579.811 184,1578.9919 c 0,-0.4548 4.1625,-2.186 9.25,-3.8469 32.38008,-10.5715 68.77035,-16.4154 119.75,-19.2305 23.95032,-1.3225 96.40475,-0.7177 124,1.0351 143.00785,9.0836 264.75875,26.4304 597.5,85.1305 249.0715,43.9396 350.4593,59.8093 459,71.8446 69.4739,7.7035 121.7287,11.0618 172.25,11.0702 19.4555,0 31.25,0.3701 31.25,0.9723 0,2.8318 -42.1612,39.9291 -73.5,64.672 -42.691,33.7058 -105.8382,74.6841 -152.9169,99.2326 -9.4573,4.9314 -8.8301,4.9079 -43.0865,1.6157 z M 1721.5,1687.3498 c -2.2,-0.1727 -11.875,-0.802 -21.5,-1.3985 -84.8359,-5.2569 -210.2297,-21.9376 -469.2282,-62.4196 -40.2995,-6.2989 -106.3468,-16.623 -146.7718,-22.9425 -292.79433,-45.771 -466.91711,-68.8992 -602.5,-80.0282 -156.78451,-12.8693 -261.09246,-10.2522 -317.44243,7.9645 -5.91124,1.911 -11.02549,3.4745 -11.365,3.4745 -0.81977,0 -17.67964,-28.316 -27.19564,-45.6749 -12.41602,-22.6489 -26.640103,-51.3432 -26.307402,-53.0699 0.360463,-1.8708 1.721922,-2.3001 19.810472,-6.2467 33.38423,-7.2838 68.54002,-10.7531 120,-11.842 82.56048,-1.7469 175.00786,3.02 298.5,15.392 146.37929,14.6649 282.70749,32.9001 587,78.5167 55,8.2451 110.35,16.5409 123,18.435 157.3559,23.562 288.93,41.5899 368,50.4221 77.2276,8.6264 147.5814,14.0446 182.5833,14.0612 7.4709,0 13.8675,0.2907 14.2148,0.638 1.1805,1.1804 -3.3989,7.7889 -20.6976,29.8685 -18.336,23.4037 -52.2205,62.6911 -55.6548,64.529 -1.7304,0.9261 -5.6315,1.0127 -14.4457,0.3208 z m 48,-175.0217 c -82.4229,-2.3865 -196.1288,-18.6075 -359.5,-51.2853 -103.1037,-20.6229 -199.1979,-41.8631 -434.5,-96.0398 -231.11583,-53.2129 -332.33245,-75.6381 -435.1424,-96.4086 -183.78158,-37.129 -304.05852,-54.5949 -404.20852,-58.6966 -38.706815,-1.5853 -77.863716,0.3358 -104.204876,5.1123 -5.003606,0.9073 -6.477102,0.8699 -7.473075,-0.19 -1.324884,-1.4098 -6.870936,-28.5892 -10.901054,-53.4224 -4.6465827,-28.6318 -10.5550463,-80.9526 -10.566016,-93.5644 -0.00223,-2.5666 -0.3871886,-4.8166 -0.8554581,-5 -0.4682695,-0.1833 -1.15999561,-7.0063 -1.53716917,-15.1621 l -0.68577009,-14.8289 4.28716916,2.6262 C 47.013659,1061.687 151.38431,1082.8922 331.5,1101.964 c 76.37382,8.087 188.2548,17.4024 294.5,24.5206 20.625,1.3819 40.425,2.7455 44,3.0304 16.36372,1.3038 153.14936,9.6248 246,14.9648 23.925,1.376 55.425,3.1879 70,4.0265 14.575,0.8387 66.325,3.7739 115,6.5228 428.8935,24.2213 616.7203,39.4956 757,61.56 57.3342,9.0181 118,23.507 118,28.1822 0,0.9226 -1.8323,8.439 -4.0718,16.7031 -11.5187,42.5055 -27.4293,89.1044 -43.7127,128.0256 -19.2065,45.9079 -52.4592,111.0326 -58.2009,113.9852 -3.0879,1.5879 -14.9362,4.0206 -29.3654,6.0293 -10.8201,1.5063 -47.6601,3.6064 -57.1492,3.2579 -2.75,-0.101 -9.05,-0.3009 -14,-0.4443 z m 134,-423.3942 c -66.3914,-4.2295 -157.4837,-16.105 -268.5,-35.0039 -94.1028,-16.0196 -171.6851,-30.638 -395,-74.42758 C 1038.0566,939.90351 980.00558,928.69399 893.5,912.59407 543.91065,847.53052 308.67192,818 139.968,818 c -46.422861,0 -79.371758,1.5988 -116.366189,5.64652 l -5.898189,0.64534 0.711739,-5.39593 C 20.289354,804.68858 32.02655,755.34475 40.512103,726 53.784359,680.10185 85.148204,596.5966 90.112831,593.93961 c 2.65944,-1.42328 28.006099,-5.7652 43.887169,-7.51793 19.8482,-2.19056 83.01658,-3.03044 112.7118,-1.4986 136.09464,7.02048 320.80262,37.21401 584.7882,95.59315 120.93296,26.74374 249.8929,57.38929 486,115.4912 358.8312,88.30219 477.2555,115.08915 581.1768,131.45909 35.6875,5.6216 79.2013,9.60826 99.8232,9.14565 l 5,-0.11217 0.3314,3.49126 c 0.1822,1.9202 0.8572,3.81628 1.5,4.21353 1.6205,1.00156 1.6867,117.53251 0.067,118.58171 -0.6145,0.3981 -1.4091,5.5747 -1.7976,11.7111 -0.3829,6.0486 -1.036,11.3373 -1.4513,11.7526 -1.8749,1.8749 -18.2682,2.9349 -50.1498,3.2426 -18.975,0.1831 -40.8,-0.068 -48.5,-0.5589 z M 1882,770.30853 C 1756.6509,762.98128 1568.4147,705.45644 1309,595.20019 1184.4809,542.27719 1077.6086,493.38452 825.5,374.00542 617.80761,275.65839 554.59513,246.51102 477.5,213.54209 c -20.9,-8.93767 -42.1625,-17.95505 -47.25,-20.03862 -5.0875,-2.08358 -9.25,-4.15433 -9.25,-4.60167 0,-1.28133 48.91468,-33.57937 69.25836,-45.73085 C 512.55817,129.85106 530.76105,119.82532 554,108.06346 576.58754,96.631296 604.50422,84 607.18314,84 c 1.15182,0 5.06932,2.402912 8.70554,5.339805 C 638.2325,107.38638 674.8987,131.0392 716,153.92014 c 39.45778,21.96599 113.61263,57.58716 172,82.62226 292.6006,125.46008 716.4638,247.85083 967.8253,279.46005 22.2159,2.79371 23.7984,3.12947 25.6818,5.44915 2.9337,3.61327 25.0938,47.30203 34.0087,67.0484 10.241,22.68362 16.2875,37.21129 24.9725,60 16.2617,42.66934 37.5244,112.88727 34.96,115.45168 -1.4198,1.4198 -21.5743,4.69427 -36.7528,5.97115 -11.6221,0.97771 -42.9249,1.19066 -56.6955,0.3857 z M 1169.5,645.28062 c -1.1,-0.26806 -23.825,-6.70734 -50.5,-14.30952 C 1010.8767,600.15679 950.10354,583.76664 865.5,562.60376 553.31685,484.51369 325.03496,450.80716 188,462.56878 c -9.625,0.82611 -19.87667,1.87018 -22.78149,2.32017 -2.90482,0.44998 -5.50258,0.46044 -5.77279,0.0232 -1.08172,-1.75027 36.47507,-55.76991 55.90602,-80.41218 17.21973,-21.838 48.68447,-58.60778 50.79514,-59.35934 0.55505,-0.19764 11.21156,4.82835 23.68115,11.16886 73.64781,37.44832 143.92845,62.67274 468.67197,168.21104 186.47011,60.60086 416.5,138.51112 416.5,141.06698 0,0.50624 -2.8056,0.34968 -5.5,-0.30692 z m 475.6614,-397.85891 c -83.9065,-21.16502 -184.6543,-40.6264 -372.6614,-71.98675 -47.85,-7.98157 -98.7,-16.54436 -113,-19.02841 C 977.8462,124.85147 888.77284,101.64092 822.22571,68.520316 795.39329,55.165779 762.94032,32.932574 766.2817,30.193625 767.65952,29.06421 797.93028,22.248507 820.5,17.985943 c 33.13165,-6.257314 74.95119,-11.8254474 106,-14.1135479 9.41161,-0.693576 17.3185,-1.7258623 17.71353,-2.3125938 0.99911,-1.48398668 117.57387,-1.48398668 118.57297,0 0.395,0.5867315 8.3019,1.6190178 17.7135,2.3125938 20.2377,1.4913918 51.6812,5.1702419 74.5,8.7164199 173.7779,27.006087 339.4272,100.001485 476.5,209.975575 19.9075,15.9719 31.9484,26.41622 32.3233,28.03756 0.4037,1.7456 1.8289,1.98847 -18.6619,-3.18024 z"
       id="path835"
       inkscape:connector-curvature="0" />
    <path
       style="fill:#8e5a28"
       d="m 1445.5,1891.8616 c -128.708,-12.427 -202.6319,-22.1883 -487.5,-64.3719 -296.57864,-43.9178 -398.01529,-56.552 -494.5,-61.5913 -28.06281,-1.4656 -73.30445,-0.6497 -87,1.5692 -18.80574,3.0467 -17.72071,3.051 -21.54604,-0.086 C 318.0432,1737.1152 267.52574,1686.0408 232.91754,1644 c -20.14582,-24.4724 -47.90289,-61.3755 -47.91255,-63.6999 -0.0114,-2.7353 33.98855,-11.9082 59.99501,-16.1862 35.44144,-5.8301 62.40004,-7.5764 116.5,-7.5467 80.82625,0.044 157.60686,6.1654 276,22.0033 96.97917,12.9732 175.73023,25.8215 395.5,64.5258 278.7053,49.0837 393.3698,66.4456 507.5,76.8429 48.2712,4.3976 109.6767,7.4364 140,6.9284 10.0963,-0.1691 14.9334,0.093 14.7961,0.8022 -0.6243,3.226 -41.1944,38.8084 -71.7961,62.9694 -42.0823,33.2252 -108.5037,76.4096 -151.0757,98.2229 -8.8549,4.5372 -9.8502,4.6481 -26.9243,2.9995 z m 281.5,-205.552 c -25.8773,-1.2144 -69.4554,-4.9263 -110,-9.3696 -94.7543,-10.3842 -192.3942,-24.473 -457,-65.942 -432.07633,-67.7151 -595.94997,-88.5938 -770.5,-98.1676 -30.8345,-1.6912 -118.04675,-1.699 -139.5,-0.013 -34.8359,2.7387 -63.08243,7.3345 -84.74428,13.7884 -9.72642,2.8979 -12.54152,3.4014 -13.68975,2.4485 C 146.66798,1524.9898 100,1439.5015 100,1434.5941 c 0,-0.9079 1.50572,-1.9201 3.75,-2.5208 96.7511,-25.8984 279.24554,-20.7205 581.25,16.4918 105.31717,12.9769 247.8664,33.1144 452.2327,63.8855 325.8648,49.065 459.0341,66.8274 569.7673,75.9971 31.4817,2.607 84.3326,5.5165 100.75,5.5464 1.7875,0 3.25,0.4825 3.25,1.0649 0,0.5825 -2.7784,4.745 -6.1741,9.25 -28.3263,37.5794 -68.3745,84.1067 -71.0102,82.4983 -0.1736,-0.106 -3.2407,-0.3299 -6.8157,-0.4977 z m 40.5,-174.9764 c -108.1782,-3.5736 -267.2622,-29.8618 -525.5,-86.8375 -57.048,-12.5866 -130.5826,-29.2615 -236,-53.5159 -148.34469,-34.1311 -207.33884,-47.5913 -265,-60.4625 -298.0891,-66.5402 -474.22279,-96.2032 -603,-101.5523 -37.39649,-1.5534 -71.583106,-0.1354 -99.853186,4.1417 -7.344252,1.1111 -13.592351,1.7811 -13.884664,1.4888 -0.866365,-0.8664 -5.994698,-26.5765 -9.693227,-48.5955 -5.3958784,-32.1241 -11.5527816,-84.9943 -11.564864,-99.309 -0.00223,-2.645 -0.3847996,-4.5737 -0.8501492,-4.2861 -0.8484223,0.5243 -2.52098871,-27.3712 -1.69089795,-28.2012 0.24296253,-0.243 1.10065365,0.2171 1.90598015,1.0224 0.8053266,0.8054 5.0415198,3.3254 9.413763,5.6001 63.345461,32.9559 236.327905,58.9312 543.717245,81.6453 117.59069,8.6893 225.44046,15.3723 485,30.0535 205.6211,11.6304 297.7698,17.1873 398.5,24.0308 250.1258,16.9933 408.1811,34.8044 496.5,55.9501 17.6598,4.2281 37.6178,10.2482 39.2437,11.8374 0.9892,0.9668 0.2355,4.8934 -3.6826,19.1861 -19.0334,69.4321 -44.9075,136.6141 -75.475,195.9706 -13.0738,25.387 -21.1296,39.7892 -23.3461,41.738 -4.2684,3.753 -32.7684,8.258 -61.74,9.7593 -17.9264,0.9289 -23.6869,0.9739 -43,0.3359 z M 1917,1087.9989 c -96.7917,-4.9531 -224.9307,-23.6549 -442.5,-64.5824 -45.3072,-8.5228 -102.2108,-19.5619 -231.5,-44.90998 C 1024.1836,935.60591 983.63138,927.78264 891,910.59917 467.12019,831.96786 209.10996,804.70041 39,820.55673 c -9.075,0.8459 -17.355559,1.79361 -18.401243,2.10602 -1.76237,0.52654 -1.852698,0.15498 -1.236633,-5.08676 1.55353,-13.21812 12.535411,-59.7196 21.156332,-89.58399 12.345656,-42.76753 42.147256,-123.55182 48.326083,-130.9993 1.927462,-2.32321 14.029421,-5.07716 32.655461,-7.43116 132.97009,-16.80503 372.27073,15.87966 761,103.94057 112.72582,25.53639 229.5069,53.52153 459,109.99365 203.0153,49.95664 290.8043,70.94053 374,89.39586 135.5481,30.06867 214.2565,43.28917 266.75,44.80551 11.4125,0.32966 20.8072,0.87017 20.8772,1.20113 0.07,0.33096 0.4433,5.55174 0.8296,11.60174 l 0.7024,11 0.3408,-9 0.3408,-9 0.7024,11 c 0.3863,6.05 0.7024,28.1 0.7024,49 0,20.9 -0.3161,42.95 -0.7024,49 l -0.7024,11 -0.3183,-9 c -0.2978,-8.4236 -0.3751,-8.0074 -1.2067,6.5 -0.4887,8.525 -1.218,17.525 -1.6206,20 l -0.7321,4.5 -9.9816,1.1454 c -14.0577,1.6132 -54.9024,2.3555 -74.4815,1.3535 z m -32,-318.64752 c -94.3782,-6.27526 -203.2622,-33.27889 -357.5,-88.66137 -95.9176,-34.44133 -232.1727,-90.76538 -365,-150.88083 -6.05,-2.73813 -14.825,-6.70424 -19.5,-8.81359 -17.1985,-7.75989 -55.054,-25.03051 -74.5,-33.9887 -34.1326,-15.72389 -112.87434,-52.63121 -168,-78.74387 -10.45,-4.9501 -34.75,-16.43635 -54,-25.52501 -19.25,-9.08866 -41.75,-19.77578 -50,-23.74915 -8.25,-3.97337 -17.7,-8.46281 -21,-9.97653 -3.3,-1.51373 -22.875,-10.74848 -43.5,-20.52167 -20.625,-9.7732 -47.175,-22.25313 -59,-27.73319 -11.825,-5.48006 -36.575,-16.95603 -55,-25.50217 -77.42106,-35.91048 -138.25337,-62.68377 -192.75,-84.83238 -1.7875,-0.72648 -3.25,-1.71138 -3.25,-2.18868 0,-2.17418 62.93694,-42.47703 92.5,-59.23411 25.80411,-14.62641 87.99113,-45.069296 91.86523,-44.971478 0.62412,0.01576 6.30977,4.090057 12.63477,9.053996 49.33812,38.721172 137.64253,87.049852 246,134.634892 293.2768,128.79211 735.542,257.81705 993.2344,289.76283 11.4039,1.41373 21.3711,2.81475 22.1493,3.11338 2.3185,0.88968 21.0515,37.10219 34.1736,66.06036 15.0463,33.20464 25.5565,59.80988 37.0731,93.84589 13.0346,38.52234 25.234,81.03559 23.6951,82.57448 -1.2679,1.26797 -23.9464,4.723 -38.7207,5.89905 -11.6623,0.92833 -40.1848,1.13717 -51.6048,0.37785 z M 1133.5,633.27306 c -1.1,-0.27222 -20.1552,-5.62166 -42.345,-11.88764 C 785.38094,535.04024 539.42485,482.29886 362,465.0297 c -76.25334,-7.42192 -158.81937,-8.04252 -197.75,-1.48639 -1.89726,0.31951 -3.25,0.12347 -3.25,-0.47099 0,-2.82033 36.61732,-55.08159 54.35174,-77.57232 16.43883,-20.84766 48.66026,-58.59385 50.62185,-59.30158 0.45973,-0.16587 4.8548,1.92998 9.76681,4.65744 12.80328,7.10917 24.75506,13.02034 43.41371,21.47174 64.52765,29.22769 145.76469,58.18014 347.34589,123.79222 230.90484,75.15656 402.3883,132.31497 459.9435,153.30721 11.2592,4.10659 13.8788,5.53433 7.0565,3.84603 z m 508,-388.34151 c -89.6846,-21.96633 -185.7385,-40.42741 -372,-71.49659 -91.832,-15.31795 -125.1032,-21.0107 -161,-27.54731 C 991.19742,124.52747 916.02284,105.5922 858.5,82.91668 820.83545,68.069305 796.8438,54.902706 774.14394,36.622155 c -5.177,-4.169124 -6.95435,-6.140037 -6,-6.653422 1.90169,-1.022986 36.19988,-8.4002 55.35606,-11.906557 40.6085,-7.433001 91.13124,-13.3202022 132,-15.3813997 4.99849,-0.2520966 4.49773,-0.3626105 -3,-0.662083 l -9,-0.3594757 11,-0.70238681 c 14.24931,-0.90986597 83.7507,-0.90986597 98,0 l 11,0.70238681 -9,0.3594757 c -7.4977,0.2994725 -7.9985,0.4099864 -3,0.662083 126.8806,6.3991667 250.2962,36.5242907 368,89.8269387 78.5045,35.551105 156.1135,84.379915 225,141.562005 12.1472,10.08329 18.7971,16.13731 17.405,15.84534 -0.2228,-0.0467 -9.405,-2.28929 -20.405,-4.98351 z"
       id="path833"
       inkscape:connector-curvature="0" />
    <path
       style="fill:#b6420f"
       d="m 1727,1686.3096 c -25.8773,-1.2144 -69.4554,-4.9263 -110,-9.3696 -94.7543,-10.3842 -192.3942,-24.473 -457,-65.942 -432.07633,-67.7151 -595.94997,-88.5938 -770.5,-98.1676 -30.8345,-1.6912 -118.04675,-1.699 -139.5,-0.013 -34.8359,2.7387 -63.08243,7.3345 -84.74428,13.7884 -9.72642,2.8979 -12.54152,3.4014 -13.68975,2.4485 C 146.66798,1524.9898 100,1439.5015 100,1434.5941 c 0,-0.9079 1.50572,-1.9201 3.75,-2.5208 96.7511,-25.8984 279.24554,-20.7205 581.25,16.4918 105.31717,12.9769 247.8664,33.1144 452.2327,63.8855 325.8648,49.065 459.0341,66.8274 569.7673,75.9971 31.4817,2.607 84.3326,5.5165 100.75,5.5464 1.7875,0 3.25,0.4825 3.25,1.0649 0,0.5825 -2.7784,4.745 -6.1741,9.25 -28.3263,37.5794 -68.3745,84.1067 -71.0102,82.4983 -0.1736,-0.106 -3.2407,-0.3299 -6.8157,-0.4977 z m -160.2391,-229.3328 c -73.301,-8.3375 -161.1715,-48.1879 -203.4528,-92.2683 -21.9244,-22.8574 -33.529,-45.1031 -37.2756,-71.4565 -0.8479,-5.9642 -0.721,-7.2466 1.0876,-10.9907 6.2734,-12.9876 29.9903,-23.6961 66.8799,-30.1971 25.1304,-4.4288 52.6666,-7.1387 102,-10.0381 43.7683,-2.5724 56.5432,-3.6788 66.5,-5.7594 20.3714,-4.257 64.4904,-0.2645 114.5,10.3615 53.367,11.3393 97.6632,26.0314 104.9479,34.809 0.7802,0.9401 7.0736,6.0311 13.9853,11.3135 16.1382,12.3337 35.6823,31.9368 43.9274,44.0599 8.023,11.7965 16.9457,30.4544 26.1541,54.6894 10.597,27.8894 10.6139,35.2787 0.1028,44.7749 -9.6249,8.6955 -26.6351,13.7801 -58.4262,17.4645 -13.6055,1.5768 -24.4818,1.7314 -104.1913,1.4807 -57.9703,-0.1822 -92.8351,0.094 -100,0.7927 -16.7586,1.6339 -28.2084,1.9343 -36.7391,0.964 z M 1917,1087.9989 c -96.7917,-4.9531 -224.9307,-23.6549 -442.5,-64.5824 -45.3072,-8.5228 -102.2108,-19.5619 -231.5,-44.90998 C 1024.1836,935.60591 983.63138,927.78264 891,910.59917 467.12019,831.96786 209.10996,804.70041 39,820.55673 c -9.075,0.8459 -17.355559,1.79361 -18.401243,2.10602 -1.76237,0.52654 -1.852698,0.15498 -1.236633,-5.08676 1.55353,-13.21812 12.535411,-59.7196 21.156332,-89.58399 12.345656,-42.76753 42.147256,-123.55182 48.326083,-130.9993 1.927462,-2.32321 14.029421,-5.07716 32.655461,-7.43116 132.97009,-16.80503 372.27073,15.87966 761,103.94057 112.72582,25.53639 229.5069,53.52153 459,109.99365 203.0153,49.95664 290.8043,70.94053 374,89.39586 135.5481,30.06867 214.2565,43.28917 266.75,44.80551 11.4125,0.32966 20.8072,0.87017 20.8772,1.20113 0.07,0.33096 0.4433,5.55174 0.8296,11.60174 l 0.7024,11 0.3408,-9 0.3408,-9 0.7024,11 c 0.3863,6.05 0.7024,28.1 0.7024,49 0,20.9 -0.3161,42.95 -0.7024,49 l -0.7024,11 -0.3183,-9 c -0.2978,-8.4236 -0.3751,-8.0074 -1.2067,6.5 -0.4887,8.525 -1.218,17.525 -1.6206,20 l -0.7321,4.5 -9.9816,1.1454 c -14.0577,1.6132 -54.9024,2.3555 -74.4815,1.3535 z M 1133.5,633.27306 c -1.1,-0.27222 -20.1552,-5.62166 -42.345,-11.88764 C 785.38094,535.04024 539.42485,482.29886 362,465.0297 c -76.25334,-7.42192 -158.81937,-8.04252 -197.75,-1.48639 -1.89726,0.31951 -3.25,0.12347 -3.25,-0.47099 0,-2.82033 36.61732,-55.08159 54.35174,-77.57232 16.43883,-20.84766 48.66026,-58.59385 50.62185,-59.30158 0.45973,-0.16587 4.8548,1.92998 9.76681,4.65744 12.80328,7.10917 24.75506,13.02034 43.41371,21.47174 64.52765,29.22769 145.76469,58.18014 347.34589,123.79222 230.90484,75.15656 402.3883,132.31497 459.9435,153.30721 11.2592,4.10659 13.8788,5.53433 7.0565,3.84603 z m 508,-388.34151 c -89.6846,-21.96633 -185.7385,-40.42741 -372,-71.49659 -91.832,-15.31795 -125.1032,-21.0107 -161,-27.54731 C 991.19742,124.52747 916.02284,105.5922 858.5,82.91668 820.83545,68.069305 796.8438,54.902706 774.14394,36.622155 c -5.177,-4.169124 -6.95435,-6.140037 -6,-6.653422 1.90169,-1.022986 36.19988,-8.4002 55.35606,-11.906557 40.6085,-7.433001 91.13124,-13.3202022 132,-15.3813997 4.99849,-0.2520966 4.49773,-0.3626105 -3,-0.662083 l -9,-0.3594757 11,-0.70238681 c 14.24931,-0.90986597 83.7507,-0.90986597 98,0 l 11,0.70238681 -9,0.3594757 c -7.4977,0.2994725 -7.9985,0.4099864 -3,0.662083 126.8806,6.3991667 250.2962,36.5242907 368,89.8269387 78.5045,35.551105 156.1135,84.379915 225,141.562005 12.1472,10.08329 18.7971,16.13731 17.405,15.84534 -0.2228,-0.0467 -9.405,-2.28929 -20.405,-4.98351 z"
       id="path831"
       inkscape:connector-curvature="0" />
    <path
       style="fill:#841f03"
       d="m 1566.7609,1456.9768 c -73.301,-8.3375 -161.1715,-48.1879 -203.4528,-92.2683 -21.9244,-22.8574 -33.529,-45.1031 -37.2756,-71.4565 -0.8479,-5.9642 -0.721,-7.2466 1.0876,-10.9907 6.2734,-12.9876 29.9903,-23.6961 66.8799,-30.1971 25.1304,-4.4288 52.6666,-7.1387 102,-10.0381 43.7683,-2.5724 56.5432,-3.6788 66.5,-5.7594 20.3714,-4.257 64.4904,-0.2645 114.5,10.3615 53.367,11.3393 97.6632,26.0314 104.9479,34.809 0.7802,0.9401 7.0736,6.0311 13.9853,11.3135 16.1382,12.3337 35.6823,31.9368 43.9274,44.0599 8.023,11.7965 16.9457,30.4544 26.1541,54.6894 10.597,27.8894 10.6139,35.2787 0.1028,44.7749 -9.6249,8.6955 -26.6351,13.7801 -58.4262,17.4645 -13.6055,1.5768 -24.4818,1.7314 -104.1913,1.4807 -57.9703,-0.1822 -92.8351,0.094 -100,0.7927 -16.7586,1.6339 -28.2084,1.9343 -36.7391,0.964 z"
       id="path829"
       inkscape:connector-curvature="0" />
    <path
       style="fill:#741d06"
       d="m 1660.8415,1419.5081 c -0.2419,-0.2419 -4.0177,-0.6685 -8.3907,-0.948 -13.8319,-0.8843 -19.6204,-1.5347 -32.4508,-3.6462 -37.9505,-6.2455 -60.9945,-12.9598 -90.1368,-26.2627 -19.7303,-9.0065 -28.5913,-11.7193 -49.628,-15.1938 -26.8691,-4.4379 -34.3013,-6.2186 -42.2222,-10.1165 -12.7941,-6.2961 -21.6271,-17.301 -27.5938,-34.3791 -2.3172,-6.6323 -2.4366,-7.7299 -1.3452,-12.3699 1.7103,-7.2722 4.1485,-11.6277 9.4164,-16.8212 7.5837,-7.4765 19.7253,-12.8645 35.6697,-15.8288 10.0866,-1.8752 13.2288,-2.101 33.3399,-2.3954 15.3745,-0.2251 20.5265,-0.6756 27,-2.3608 25.8777,-6.7367 40.5527,-8.4092 74,-8.4341 32.2583,-0.024 47.2573,1.4481 79,7.7537 31.3071,6.2191 84.135,21.2279 97.4439,27.6847 11.3221,5.4929 17.5475,13.1292 19.571,24.0069 1.0213,5.49 -1.7503,17.4202 -8.6024,37.0285 -3.3202,9.501 -7.112,21.4975 -8.4264,26.6588 -3.2443,12.7403 -5.9334,15.3597 -20.5568,20.0244 -13.168,4.2004 -23.8976,5.2972 -55.5387,5.6775 -16.5601,0.199 -30.3073,0.1639 -30.5491,-0.078 z"
       id="path827"
       inkscape:connector-curvature="0" />
  </g>
</svg>
