<?xml version="1.0" encoding="UTF-8" standalone="no"?>
<svg
   xmlns:dc="http://purl.org/dc/elements/1.1/"
   xmlns:cc="http://creativecommons.org/ns#"
   xmlns:rdf="http://www.w3.org/1999/02/22-rdf-syntax-ns#"
   xmlns:svg="http://www.w3.org/2000/svg"
   xmlns="http://www.w3.org/2000/svg"
   xmlns:sodipodi="http://sodipodi.sourceforge.net/DTD/sodipodi-0.dtd"
   xmlns:inkscape="http://www.inkscape.org/namespaces/inkscape"
   version="1.1"
   id="svg4528"
   width="1000"
   height="1000"
   viewBox="0 0 1000 1000"
   sodipodi:docname="mars.svg"
   inkscape:version="1.0.1 (3bc2e813f5, 2020-09-07)"
   inkscape:export-filename=""
   inkscape:export-xdpi="96"
   inkscape:export-ydpi="96">
  <metadata
     id="metadata4534">
    <rdf:RDF>
      <cc:Work
         rdf:about="">
        <dc:format>image/svg+xml</dc:format>
        <dc:type
           rdf:resource="http://purl.org/dc/dcmitype/StillImage" />
        <dc:title />
      </cc:Work>
    </rdf:RDF>
  </metadata>
  <defs
     id="defs4532" />
  <sodipodi:namedview
     pagecolor="#ffffff"
     bordercolor="#666666"
     borderopacity="1"
     objecttolerance="10"
     gridtolerance="10"
     guidetolerance="10"
     inkscape:pageopacity="0"
     inkscape:pageshadow="2"
     inkscape:window-width="1536"
     inkscape:window-height="822"
     id="namedview4530"
     showgrid="false"
     inkscape:zoom="0.35355339"
     inkscape:cx="989.90934"
     inkscape:cy="942.98902"
     inkscape:window-x="0"
     inkscape:window-y="0"
     inkscape:window-maximized="1"
     inkscape:current-layer="svg4528"
     inkscape:document-rotation="0" />
  <g
     id="g5081"
     transform="matrix(0.51013293,0,0,0.51020408,0.07343704,0.0047274)">
    <path
       style="fill:#ececec"
       d="m 927,1958.9112 c -85.46591,-5.0361 -168.40469,-20.9005 -253,-48.3936 -12.375,-4.0218 -24.3,-7.5739 -26.5,-7.8935 -4.4614,-0.6482 -29.62394,-10.2197 -51,-19.3998 C 451.17359,1820.8132 325.18159,1726.9005 225.25073,1606.5 c -6.84739,-8.25 -13.83258,-16.575 -15.52263,-18.5 -5.96874,-6.7985 -28.81108,-38.0298 -41.06717,-56.1492 C 80.716562,1401.8333 26.39357,1258.4244 5.4555172,1101 c -6.7361966,-50.6466 -6.7361966,-191.35336 0,-242 C 24.600531,715.05666 71.581899,583.09099 146.9969,461.42529 171.99612,421.09449 208.04983,371.67224 231.56481,345.5 235.51808,341.1 242.91862,332.775 248.01045,327 315.65707,250.27726 400.77534,181.40214 494.92529,127.20405 535.27021,103.9792 613.46165,67.282054 626.80236,65.310929 628.83606,65.010444 637.7,62.165412 646.5,58.988634 738.28306,25.855185 831.83781,6.6878298 929.5,1.0080271 c 21.88801,-1.27295498 79.112,-1.27295498 101,0 92.2215,5.3633849 181.3649,22.8901499 267.5,52.5940379 10.725,3.69854 21.5681,7.063019 24.0957,7.47662 10.7646,1.761436 60.6076,23.281301 99.4043,42.918075 71.7437,36.31278 135.7767,78.93915 196.0315,130.49698 7.7174,6.60344 16.155,13.72401 18.7504,15.82348 9.8909,8.00113 38.596,35.72509 54.4605,52.59904 66.3796,70.60328 118.8022,144.73971 162.3411,229.58374 52.8627,103.01357 85.859,209.19488 101.461,326.5 6.7362,50.64664 6.7362,191.3534 0,242 -22.7428,170.9932 -84.1613,323.7278 -186.1295,462.8639 -80.1716,109.3945 -179.7163,197.9039 -301.3403,267.9343 -21.6315,12.4554 -67.7074,35.7282 -91.0747,46.0016 -25.8308,11.3566 -50.6857,21.1379 -55.4649,21.8275 -2.2193,0.3203 -12.5851,3.4877 -23.0351,7.0388 -88.0075,29.9062 -175.1493,46.9841 -267,52.3259 -19.6032,1.1401 -83.62921,1.0901 -103.5,-0.081 z"
       id="path5095"
       inkscape:connector-curvature="0" />
    <path
       style="fill:#e0ab9c"
       d="M 627.5,1894.5977 C 556.62633,1867.2115 495.68752,1835.2588 430.87777,1791.5007 305.69663,1706.9812 204.1769,1597.4818 128.23957,1465.0747 65.530683,1355.7332 23.121025,1228.6252 6.5989998,1100.5 c -8.980933,-69.6454 -8.980933,-171.35456 0,-241 C 29.961449,678.32862 102.25883,507.75914 215.5614,366.5 301.1003,259.855 409.92671,171.17076 533.42571,107.46769 568.55527,89.347214 619.8567,67 626.32545,67 c 1.94182,0 9.30047,1.329072 16.35256,2.953492 C 786.09886,102.9899 1040.918,108.69257 1220.5,82.884734 c 33.597,-4.828243 64.7217,-11.012287 92.6135,-18.400999 l 9.6134,-2.546668 9.4138,3.407638 c 36.3655,13.163769 90.9633,38.976995 131.0083,61.939185 156.4251,89.69571 279.7457,212.69177 368.6114,367.6414 62.7089,109.34153 105.1186,236.44953 121.6406,364.57471 8.9809,69.64544 8.9809,171.3546 0,241 -18.1297,140.5921 -65.8001,275.3541 -139.3991,394.0747 -96.475,155.6212 -229.4096,277.834 -391.5019,359.9255 -36.9555,18.7161 -94.438,43.4998 -100.8919,43.4998 -1.3265,0 -8.6434,-2.4248 -16.2599,-5.3885 -66.303,-25.7992 -158.8501,-41.996 -266.8482,-46.7015 -29.4969,-1.2852 -98.74218,-0.7094 -124,1.0311 -107.49944,7.4078 -192.44819,24.3265 -254.34815,50.6571 -5.69148,2.421 -11.09148,4.3882 -12,4.3716 -0.90852,-0.017 -10.20185,-3.3341 -20.65185,-7.3721 z"
       id="path5093"
       inkscape:connector-curvature="0" />
    <path
       style="fill:#dc8b72"
       d="m 628,1893.6316 c -35.98543,-14.1465 -61.82635,-25.7812 -94.5,-42.5481 C 385.24984,1775.0069 261.67917,1665.8922 169.58932,1529.745 68.901055,1380.8858 11.499276,1210.8933 1.0080271,1030.5 c -1.27295498,-21.888 -1.27295498,-79.11199 0,-101 C 11.499276,749.1067 68.901055,579.11422 169.58932,430.25498 261.72984,294.03287 385.16828,185.03493 533.5,108.91654 569.21808,90.587336 620.2833,68 626.00371,68 c 1.52962,0 8.34204,1.3201 15.13871,2.933555 C 701.5101,85.264187 786.73107,95.002956 887,99.029342 c 34.13041,1.370538 125.8696,1.370538 160,0 108.4911,-4.356556 199.0167,-15.419162 261.3792,-31.941644 l 14.8792,-3.942129 7.9992,2.949424 c 24.7485,9.125047 63.743,26.657222 95.2424,42.821547 184.6336,94.74715 330.3857,240.32894 425.0802,424.58346 57.5077,111.89713 93.225,235.35786 104.8716,362.5 4.8854,53.33199 4.8854,114.668 0,168 -15.3364,167.4224 -72.3591,326.6852 -167.2053,467 -83.5376,123.5849 -191.4809,223.4115 -324.1718,299.796 -22.1334,12.7412 -66.0066,34.8688 -90.0747,45.4294 -23.9676,10.5165 -47.2992,19.7915 -51.4182,20.4404 -2.196,0.3459 -7.1571,-1.1081 -17.2594,-5.0584 -64.2776,-25.1345 -156.3767,-41.6698 -260.0398,-46.687 -31.7573,-1.537 -117.38586,-0.6508 -144.7826,1.4984 -50.90773,3.9936 -93.01198,9.5882 -133,17.6724 -37.46494,7.5741 -81.49369,20.5418 -107.99799,31.8086 -6.5989,2.8051 -12.4489,5.0787 -13,5.0524 -0.55111,-0.026 -9.32701,-3.3206 -19.50201,-7.3206 z"
       id="path5091"
       inkscape:connector-curvature="0" />
    <path
       style="fill:#da7253"
       d="m 627,1892.6316 c -35.77131,-14.0623 -61.93911,-25.8312 -93.5,-42.0514 C 362.88529,1762.8956 225.02546,1631.0905 129.23957,1464.0747 66.615194,1354.8805 24.874093,1229.6508 8.5542204,1102 5.731389,1079.9204 3,1051.8958 3,1045.0126 c 0,-2.5369 -0.5625,-5.1751 -1.25,-5.8626 -1.82171856,-1.8217 -1.82171856,-116.47828 0,-118.3 C 2.4375,920.1625 3,917.52432 3,914.98738 3,902.6964 8.8310857,852.02867 13.586349,823 50.638863,596.81167 166.99538,388.53985 339,240.52728 420.3967,170.4842 509.12932,115.88386 608.24366,74.852062 l 16.74367,-6.931616 14.75633,3.501053 C 720.31163,90.536864 836.00842,100.99059 967,100.99059 c 136.5003,0 252.0219,-10.893865 334.8425,-31.576144 l 22.3424,-5.579454 15.6576,6.19195 C 1470.5093,121.70064 1595.5452,205.95193 1689.3754,305.54807 1818.5448,442.65499 1903.4871,606.52375 1939.9753,789 1948.3131,830.69692 1957,895.55222 1957,916.10405 c 0,2.89454 0.4849,4.89093 1.25,5.14595 0.981,0.32698 1.25,12.97222 1.25,58.75 0,45.7778 -0.269,58.423 -1.25,58.75 -0.7651,0.255 -1.25,2.2514 -1.25,5.146 0,12.401 -5.8089,62.9398 -10.5863,92.104 -37.1427,226.7383 -154.1358,436.225 -326.4137,584.4727 -83.6927,72.0188 -178.4093,129.6155 -278,169.0504 -21.0441,8.3329 -18.0639,8.1538 -33.7966,2.0308 -58.0353,-22.5867 -135.4748,-38.2271 -222.7034,-44.9792 -68.7118,-5.3188 -152.27296,-4.5715 -217,1.9407 -84.07939,8.4591 -155.37944,24.4967 -209.25186,47.0672 -5.79897,2.4296 -11.2646,4.3959 -12.14586,4.3696 -0.88125,-0.026 -9.92728,-3.3206 -20.10228,-7.3206 z"
       id="path5089"
       inkscape:connector-curvature="0" />
    <path
       style="fill:#dd562b"
       d="m 635.5,1895.295 c -38.41475,-15.0835 -68.76111,-28.6677 -101,-45.2115 C 386.24984,1774.0069 262.67917,1664.8922 170.58932,1528.745 76.5086,1389.6545 20.168046,1231.9966 4.530594,1064.0626 3.6887673,1055.0221 3,1045.433 3,1042.7536 c 0,-2.6794 -0.3807406,-4.6363 -0.8460902,-4.3487 -1.24567604,0.7698 -2.14659368,-23.7425 -2.14659368,-58.4049 0,-34.66243 0.90091764,-59.17475 2.14659368,-58.40488 C 2.6192594,921.88272 3,919.9258 3,917.2464 3,910.13036 5.690658,882.39821 8.5542204,860 31.614483,679.62724 103.97994,509.10684 217.5614,367.5 293.90105,272.32411 385.78515,194.04408 494.92529,131.20177 527.24021,112.595 582.46609,85.790756 615.58309,72.639699 l 9.08309,-3.606977 17.02979,3.953998 C 699.1142,86.318159 769.13705,94.76441 867.5,100.22351 c 31.17995,1.73047 167.82,1.73047 199,0 108.9599,-6.047224 185.5143,-16.030032 244.3119,-31.858637 l 13.3119,-3.583632 8.6881,3.261737 c 24.7945,9.30852 62.8324,26.512684 93.6881,42.374172 183.9162,94.54291 329.5812,240.20882 424.0802,424.08285 35.2612,68.61057 60.3607,135.61589 78.2892,209 15.588,63.80407 24.4438,121.43859 28.0418,182.5 l 0.7955,13.5 0.317,-9.5 0.3171,-9.5 0.7024,11 c 0.9097,14.24767 0.9097,82.7523 0,97 l -0.7024,11 -0.3171,-9.5 -0.317,-9.5 -0.7955,13.5 c -11.2327,190.6272 -76.7395,371.7551 -190.7034,527.2994 -79.6993,108.7782 -180.8862,198.6999 -302.1331,268.4966 -21.6797,12.48 -65.7822,34.762 -89.0747,45.0033 -20.1628,8.8652 -50.6653,21.2026 -52.4083,21.1976 -0.6004,0 -7.3917,-2.5008 -15.0917,-5.5536 -52.1043,-20.6576 -131.3505,-37.1001 -211.5,-43.8833 -39.966,-3.3824 -56.8612,-3.9984 -110.5,-4.0288 -63.71289,-0.036 -90.41807,1.4459 -144.5,8.019 -69.05415,8.3928 -136.15436,24.5088 -180.49799,43.3515 -6.5989,2.8041 -12.8989,5.0598 -14,5.0127 -1.10111,-0.047 -6.05201,-1.6758 -11.00201,-3.6194 z"
       id="path5087"
       inkscape:connector-curvature="0" />
    <path
       style="fill:#af4624"
       d="m 1311,1891.8472 c -22.553,-9.4659 -64.4343,-21.6215 -99.0678,-28.7534 -60.5047,-12.4594 -127.6391,-19.4354 -198.9322,-20.6712 -39.99592,-0.6933 -54.91664,-2.304 -86.11896,-9.2961 -10.90774,-2.4444 -13.66884,-3.4922 -20.36104,-7.7272 -43.7258,-27.6705 -76.61623,-75.7024 -86.66719,-126.5655 -3.10945,-15.7354 -3.10727,-39.8085 0.005,-54.5222 11.0961,-52.4595 48.87466,-94.6847 114.46189,-127.9343 34.81094,-17.6475 70.3489,-30.3149 119.0462,-42.4336 17.64,-4.3898 21.0728,-4.9437 30.6399,-4.9437 6.9487,0 14.2751,-0.7236 20.6342,-2.0379 57.2481,-11.8321 119.7618,-17.8056 195.3601,-18.6677 98.2012,-1.1198 177.4719,6.3726 257,24.2905 85.3281,19.2247 151.9482,50.8505 183.0875,86.9151 6.9095,8.0023 12.9246,16.7166 12.8867,18.6695 -0.032,1.6616 -14.8675,20.1874 -33.4972,41.8305 -71.3928,82.9403 -156.5483,152.8899 -255.4023,209.796 -21.6797,12.48 -65.7822,34.762 -89.0747,45.0033 -23.2623,10.228 -50.8179,21.2266 -52.9083,21.118 -0.8754,-0.046 -5.8667,-1.8771 -11.0917,-4.0701 z m -807.24132,-253.87 c -33.20681,-2.0493 -66.98076,-8.4393 -97.75868,-18.4958 -67.24718,-21.9726 -117.19724,-31.7164 -169.5,-33.0647 -11.55,-0.2977 -21.94794,-0.7306 -23.10654,-0.962 -1.33498,-0.2667 -7.23708,-7.2946 -16.11402,-19.1877 C 94.792752,1428.9572 30.212062,1269.4033 8.5542204,1100 5.690658,1077.6018 3,1049.8696 3,1042.7536 c 0,-2.6794 -0.3807406,-4.6363 -0.8460902,-4.3487 -1.24567604,0.7698 -2.14659368,-23.7425 -2.14659368,-58.4049 0,-34.66243 0.90091764,-59.17475 2.14659368,-58.40488 C 2.6192594,921.88272 3,919.9258 3,917.2464 3,910.13036 5.690658,882.39821 8.5542204,860 31.614979,679.62336 103.93243,509.21274 217.55729,367.5 c 6.17384,-7.7 12.09371,-14.78448 13.15527,-15.7433 1.85606,-1.67641 2.77141,-1.33941 23.85877,8.78416 49.38787,23.70998 97.96443,51.44147 130.43046,74.46041 57.94586,41.08455 88.68218,78.17143 95.4127,115.12633 3.45873,18.99064 5.1701,63.11567 3.64081,93.8724 -3.15931,63.53892 -13.35036,110.4053 -32.50863,149.5 -12.65737,25.82884 -25.27437,42.33054 -45.21473,59.13609 -6.75576,5.6937 -14.25135,13.11327 -17.4713,17.29412 -14.01266,18.19433 -24.52561,45.65517 -29.50496,77.06979 -1.39679,8.81234 -1.82631,17.22589 -1.83784,36 -0.0156,25.4787 0.67318,33.0006 4.99529,54.5481 19.37934,96.6138 87.62888,181.6541 195.99235,244.2104 3.85301,2.2242 19.37801,9.0888 34.5,15.2545 l 27.49452,11.2104 13.5,10.1251 c 30.85988,23.1451 52.57791,48.6011 67.529,79.1515 7.60279,15.5352 11.4194,26.2306 14.83711,41.5786 8.54538,38.375 4.00422,75.0354 -13.49222,108.9214 -7.69587,14.9049 -16.18382,26.1555 -29.16801,38.6615 -38.96883,37.5337 -99.09375,55.6885 -169.9472,51.3157 z M 1517,1255.4399 c -20.9577,-4.5174 -38.7532,-21.5704 -43.4944,-41.6796 -6.8496,-29.0513 13.2001,-58.7906 43.9944,-65.2559 30.9011,-6.4878 62.0701,12.3666 68.9944,41.7353 4.2431,17.9965 -1.0557,35.565 -14.8836,49.3479 -14.4162,14.3692 -34.4766,20.1923 -54.6108,15.8523 z m 113.5,-117.7788 c -9.7095,-3.2161 -16.3043,-8.4416 -20.2825,-16.0711 -5.5004,-10.5487 -2.744,-24.5305 6.4226,-32.5789 6.8407,-6.0061 13.7158,-8.5111 23.3599,-8.5111 9.6441,0 16.5192,2.505 23.3599,8.5111 12.2454,10.7516 12.2454,30.2262 0,40.9778 -8.5161,7.4772 -23.1401,10.8916 -32.8599,7.6722 z M 1411.8925,926.93772 c -70.4677,-3.20408 -143.7144,-15.98 -210.8925,-36.78455 -14.2276,-4.40619 -88.2702,-34.3127 -105.9747,-42.80422 -24.0673,-11.54327 -36.8117,-20.29742 -48.6564,-33.42222 -21.073,-23.3506 -31.6025,-58.15363 -37.7959,-124.92673 -4.3512,-46.91153 -4.561,-79.27927 -0.6027,-92.97263 3.2601,-11.27806 9.4235,-22.27815 16.515,-29.47514 11.7275,-11.90193 24.2345,-18.95992 67.5147,-38.09983 72.9905,-32.2788 115.3328,-60.662 165.5,-110.93931 13.1882,-13.21717 17.7605,-18.49202 20.3916,-23.52519 21.5542,-41.23222 49.2798,-75.92052 78.9578,-98.78635 49.3682,-38.0365 115.7374,-55.21719 197.8012,-51.20387 34.4091,1.68276 75.3861,6.48164 79.732,9.33749 4.8277,3.17253 38.7389,35.96619 54.2282,52.44111 101.9402,108.42684 176.5202,233.49187 221.67,371.72372 10.4123,31.87844 13.0102,41.44447 11.6879,43.03773 -1.5498,1.86742 -5.2733,3.97944 -36.5594,20.73742 -14.8998,7.98091 -30.6498,16.65911 -35,19.28489 -27.3395,16.50239 -44.0714,31.31687 -54.3119,48.08791 -4.7076,7.70972 -24.9959,25.82782 -43.8322,39.14351 -80.4053,56.8399 -203.1647,85.38494 -340.3727,79.14626 z M 605,618.37582 c -21.50002,-4.16433 -38.25167,-19.51571 -43.46955,-39.83592 -6.43723,-25.06879 9.03895,-51.70274 35.27911,-60.7141 9.48687,-3.25797 24.89401,-3.25797 34.38088,0 36.49695,12.53373 48.54693,55.74149 23.18513,83.13525 -10.43264,11.2685 -22.74438,16.97464 -37.87557,17.55425 -4.95,0.18961 -10.125,0.12685 -11.5,-0.13948 z"
       id="path5085"
       inkscape:connector-curvature="0" />
    <path
       style="fill:#792f18"
       d="m 1519.3412,1253.9707 c -18.8652,-3.3935 -35.0548,-16.7538 -42.0606,-34.7103 -2.2535,-5.7758 -2.6377,-8.2897 -2.6377,-17.2604 0,-8.9923 0.382,-11.4792 2.6599,-17.3194 3.1743,-8.1383 5.3385,-11.4457 12.1002,-18.492 6.1046,-6.3613 13.7733,-11.2049 22.597,-14.2724 5.2882,-1.8384 8.6439,-2.2596 18,-2.2596 9.3561,0 12.7118,0.4212 18,2.2596 8.8237,3.0675 16.4924,7.9111 22.597,14.2724 6.7617,7.0463 8.9259,10.3537 12.1002,18.492 2.2779,5.8402 2.6599,8.3271 2.6599,17.3194 0,8.9923 -0.382,11.4792 -2.6599,17.3194 -8.0452,20.6268 -26.8774,34.0101 -49.4482,35.1409 -4.812,0.2411 -11.0705,0.021 -13.9078,-0.4896 z m 111.6094,-118.2692 C 1618.6752,1132.2195 1609,1120.6706 1609,1109.5 c 0,-9.1368 7.1708,-19.4724 16.7856,-24.1938 4.9007,-2.4066 6.9247,-2.8062 14.2144,-2.8062 7.2897,0 9.3137,0.3996 14.2144,2.8062 9.6148,4.7214 16.7856,15.057 16.7856,24.1938 0,8.9805 -7.1738,19.4809 -16.3896,23.9898 -6.4407,3.1511 -16.901,4.129 -23.6598,2.2117 z M 602.27575,615.48856 c -25.58794,-5.5599 -43.60649,-31.00494 -39.47049,-55.73856 4.55166,-27.21936 31.23327,-46.19095 58.94474,-41.91185 28.02752,4.32791 47.8981,30.14306 43.42162,56.41185 -1.75012,10.27004 -6.00609,18.70933 -13.228,26.2302 -12.93175,13.46708 -31.26525,19.00699 -49.66787,15.00836 z"
       id="path5083"
       inkscape:connector-curvature="0" />
  </g>
</svg>
