<?xml version="1.0" encoding="UTF-8" standalone="no"?>
<svg
   xmlns:dc="http://purl.org/dc/elements/1.1/"
   xmlns:cc="http://creativecommons.org/ns#"
   xmlns:rdf="http://www.w3.org/1999/02/22-rdf-syntax-ns#"
   xmlns:svg="http://www.w3.org/2000/svg"
   xmlns="http://www.w3.org/2000/svg"
   xmlns:sodipodi="http://sodipodi.sourceforge.net/DTD/sodipodi-0.dtd"
   xmlns:inkscape="http://www.inkscape.org/namespaces/inkscape"
   version="1.1"
   id="svg815"
   width="1000"
   height="1000"
   viewBox="0 0 1000 1000"
   sodipodi:docname="moon.svg"
   inkscape:version="1.0.1 (3bc2e813f5, 2020-09-07)"
   inkscape:export-filename=""
   inkscape:export-xdpi="96"
   inkscape:export-ydpi="96">
  <metadata
     id="metadata821">
    <rdf:RDF>
      <cc:Work
         rdf:about="">
        <dc:format>image/svg+xml</dc:format>
        <dc:type
           rdf:resource="http://purl.org/dc/dcmitype/StillImage" />
        <dc:title />
      </cc:Work>
    </rdf:RDF>
  </metadata>
  <defs
     id="defs819" />
  <sodipodi:namedview
     pagecolor="#ffffff"
     bordercolor="#666666"
     borderopacity="1"
     objecttolerance="10"
     gridtolerance="10"
     guidetolerance="10"
     inkscape:pageopacity="0"
     inkscape:pageshadow="2"
     inkscape:window-width="1536"
     inkscape:window-height="822"
     id="namedview817"
     showgrid="false"
     inkscape:zoom="0.35355339"
     inkscape:cx="581.55353"
     inkscape:cy="555.33633"
     inkscape:window-x="0"
     inkscape:window-y="0"
     inkscape:window-maximized="1"
     inkscape:current-layer="svg815"
     inkscape:document-rotation="0" />
  <g
     id="g825"
     transform="matrix(0.49677099,0,0,0.49677099,0.00429668,0.00525168)">
    <path
       style="fill:#cdcdcd"
       d="m 966,2012.3971 c -1.925,-0.2184 -13.85,-0.8431 -26.5,-1.3882 -12.65,-0.5451 -27.725,-1.4426 -33.5,-1.9946 -12.53653,-1.1981 -46.45526,-5.6439 -53.5,-7.0122 -2.75,-0.5342 -9.725,-1.6868 -15.5,-2.5614 -5.775,-0.8746 -13.2,-2.1867 -16.5,-2.9157 -3.3,-0.729 -8.475,-1.8181 -11.5,-2.4203 -23.26878,-4.6317 -51.21997,-11.1295 -62.56118,-14.5437 -2.71635,-0.8177 -10.78882,-3.1085 -17.93882,-5.0907 -32.30457,-8.9556 -80.65528,-26.1642 -117,-41.6417 -20.88329,-8.8933 -67.78895,-31.543 -83.67887,-40.4068 -4.57662,-2.5529 -11.24613,-6.2322 -14.82113,-8.176 -3.575,-1.9439 -8.87124,-5.0444 -11.76942,-6.8901 C 498.3324,1875.5101 495.73101,1874 495.44971,1874 494.60919,1874 469.61204,1858.35 453,1847.4235 373.12798,1794.8878 303.54106,1733.8059 242.89748,1663 214.71836,1630.0988 190.20885,1597.4494 165.57654,1560 154.64999,1543.388 139,1518.3908 139,1517.5503 c 0,-0.2813 -1.51007,-2.8827 -3.35572,-5.7809 -1.84565,-2.8982 -4.94616,-8.1944 -6.89004,-11.7694 -1.94387,-3.575 -5.62309,-10.2445 -8.17604,-14.8211 -8.86379,-15.89 -31.513548,-62.7956 -40.406769,-83.6789 -15.477529,-36.3447 -32.686147,-84.6954 -41.64176,-117 -1.982153,-7.15 -4.272963,-15.2225 -5.090688,-17.9388 C 30.024848,1255.22 23.526979,1227.2688 18.895261,1204 c -0.602135,-3.025 -1.691253,-8.2 -2.420261,-11.5 -0.729009,-3.3 -2.041062,-10.725 -2.915675,-16.5 -0.874612,-5.775 -2.027236,-12.75 -2.561387,-15.5 -1.3698878,-7.0527 -5.8153934,-40.9749 -7.0111809,-53.5 -4.60121691,-48.1949 -4.60121691,-152.80508 0,-201 1.1957875,-12.52514 5.6412931,-46.44732 7.0111809,-53.5 0.534151,-2.75 1.686775,-9.725 2.561387,-15.5 0.874613,-5.775 2.186666,-13.2 2.915675,-16.5 0.729008,-3.3 1.818126,-8.475 2.420261,-11.5 4.631718,-23.26878 11.129587,-51.21997 14.543722,-62.56118 0.817725,-2.71635 3.108535,-10.78882 5.090688,-17.93882 8.955613,-32.30457 26.164231,-80.65528 41.64176,-117 8.893221,-20.88329 31.542979,-67.78895 40.406769,-83.67887 2.55295,-4.57662 6.23217,-11.24613 8.17604,-14.82113 1.94388,-3.575 5.04439,-8.87124 6.89004,-11.76942 C 137.48993,498.3324 139,495.73101 139,495.44971 139,494.60919 154.64999,469.61204 165.57654,453 190.09293,415.7268 214.25908,383.51594 242.85213,350 277.23066,309.7025 319.41407,268.11701 361.45405,233.07918 382.68858,215.38146 426.47632,182 428.45657,182 c 0.2866,0 3.12927,-1.98354 6.31705,-4.40786 6.77586,-5.15309 35.12839,-23.49848 50.22638,-32.49879 13.56656,-8.08739 12.10984,-7.23738 22.5,-13.12896 4.95,-2.80682 9.675,-5.50719 10.5,-6.00083 15.24525,-9.12196 67.622,-34.774381 93.5,-45.793244 36.35624,-15.480505 84.7014,-32.686689 117,-41.640645 7.15,-1.982153 15.22247,-4.272963 17.93882,-5.090688 11.34121,-3.414135 39.2924,-9.912004 62.56118,-14.543722 3.025,-0.602135 8.2,-1.691253 11.5,-2.420261 3.3,-0.729009 10.725,-2.041062 16.5,-2.915675 5.775,-0.874612 12.75,-2.027236 15.5,-2.561387 7.05268,-1.3698878 40.97486,-5.8153934 53.5,-7.0111809 48.19492,-4.60121691 152.8051,-4.60121691 201,0 12.5251,1.1957875 46.4473,5.6412931 53.5,7.0111809 2.75,0.534151 9.725,1.686775 15.5,2.561387 5.775,0.874613 13.2,2.186666 16.5,2.915675 3.3,0.729008 8.475,1.818126 11.5,2.420261 23.2688,4.631718 51.22,11.129587 62.5612,14.543722 2.7163,0.817725 10.7888,3.108535 17.9388,5.090688 32.3046,8.955613 80.6553,26.164231 117,41.64176 20.8833,8.893221 67.7889,31.542979 83.6789,40.406769 4.5766,2.55295 11.2461,6.23217 14.8211,8.17604 3.575,1.94388 8.8712,5.04439 11.7694,6.89004 2.8982,1.84565 5.4996,3.35572 5.7809,3.35572 0.8405,0 25.8377,15.64999 42.4497,26.57654 79.872,52.5357 149.4589,113.6176 210.1025,184.42346 28.1791,32.90121 52.6887,65.55057 77.321,103 10.9265,16.61204 26.5765,41.60919 26.5765,42.44971 0,0.2813 1.5101,2.88269 3.3557,5.78087 1.8457,2.89818 4.9462,8.19442 6.8901,11.76942 1.9438,3.575 5.6231,10.24451 8.176,14.82113 8.8638,15.88992 31.5135,62.79558 40.4068,83.67887 15.4775,36.34472 32.6861,84.69543 41.6417,117 1.9822,7.15 4.273,15.22247 5.0907,17.93882 3.4142,11.34121 9.912,39.2924 14.5437,62.56118 0.6022,3.025 1.6913,8.2 2.4203,11.5 0.729,3.3 2.0411,10.725 2.9157,16.5 0.8746,5.775 2.0272,12.75 2.5614,15.5 1.2378,6.37282 5.6741,39.91315 7.0101,53 4.5816,44.87835 4.5836,154.6545 0,202.5 -1.1583,12.0999 -5.5904,45.8922 -7.0825,54 -0.5568,3.025 -1.8695,10.675 -2.9172,17 -1.0477,6.325 -2.8317,16 -3.9645,21.5 -1.1328,5.5 -2.5434,12.475 -3.1348,15.5 -10.1094,51.7164 -33.7887,126.0507 -59.0911,185.5 -11.1999,26.3145 -36.7593,78.5124 -45.7837,93.5 -0.4968,0.825 -3.1997,5.55 -6.0065,10.5 -5.8916,10.3902 -5.0416,8.9334 -13.1289,22.5 -9.0004,15.098 -27.3458,43.4505 -32.4988,50.2264 -2.4244,3.1878 -4.4079,6.0195 -4.4079,6.2928 0,0.6062 -10.6564,15.4117 -20.8592,28.9808 -41.7972,55.5881 -93.716,110.8454 -147.1408,156.6025 -32.9012,28.1791 -65.5506,52.6887 -103,77.321 -16.612,10.9265 -41.6092,26.5765 -42.4497,26.5765 -0.2813,0 -2.8827,1.5101 -5.7809,3.3557 -2.8982,1.8457 -8.1944,4.9462 -11.7694,6.8901 -3.575,1.9438 -10.2445,5.6231 -14.8211,8.176 -15.89,8.8638 -62.7956,31.5135 -83.6789,40.4068 -36.3447,15.4775 -84.6954,32.6861 -117,41.6417 -7.15,1.9822 -15.2225,4.273 -17.9388,5.0907 -11.3412,3.4142 -39.2924,9.912 -62.5612,14.5437 -3.025,0.6022 -8.2,1.6913 -11.5,2.4203 -3.3,0.729 -10.725,2.0411 -16.5,2.9157 -5.775,0.8746 -12.75,2.0265 -15.5,2.5599 -17.4545,3.3851 -57.8022,7.803 -83,9.088 -18.344,0.9356 -105.74753,1.9612 -111.5,1.3085 z"
       id="path839"
       inkscape:connector-curvature="0" />
    <path
       style="fill:#b0b0b0"
       d="m 962.5,2012.358 c -8.72034,-0.474 -42.46567,-3.091 -56.5,-4.3816 -12.17234,-1.1194 -46.18226,-5.553 -53.5,-6.9743 -2.75,-0.5342 -9.725,-1.6868 -15.5,-2.5614 -5.775,-0.8746 -13.2,-2.1867 -16.5,-2.9157 -3.3,-0.729 -8.475,-1.8181 -11.5,-2.4203 -23.26878,-4.6317 -51.21997,-11.1295 -62.56118,-14.5437 -2.71635,-0.8177 -10.78882,-3.1085 -17.93882,-5.0907 -32.29329,-8.9525 -80.63351,-26.1565 -117,-41.6396 -21.59071,-9.1923 -59.28908,-27.3401 -79.3385,-38.193 -6.23618,-3.3758 -14.56118,-7.8775 -18.5,-10.004 -3.93883,-2.1264 -9.45808,-5.3889 -12.26501,-7.25 -2.80692,-1.861 -5.40831,-3.3837 -5.78086,-3.3837 -1.75355,0 -39.70846,-24.4391 -67.41093,-43.4058 -27.53823,-18.8542 -68.74666,-51.9353 -99.7047,-80.0404 -14.17451,-12.8683 -52.1855,-50.8793 -65.05378,-65.0538 -28.10513,-30.958 -61.18624,-72.1665 -80.04046,-99.7047 C 164.43909,1557.0928 140,1519.1379 140,1517.3844 c 0,-0.3726 -1.52267,-2.974 -3.38371,-5.7809 -1.86104,-2.8069 -5.12354,-8.3262 -7.25,-12.265 -2.12646,-3.9388 -6.62823,-12.2638 -10.00394,-18.5 -10.85297,-20.0494 -29.000709,-57.7478 -38.193024,-79.3385 -15.483152,-36.3665 -32.68717,-84.7067 -41.639655,-117 -1.982153,-7.15 -4.272963,-15.2225 -5.090688,-17.9388 C 31.024848,1255.22 24.526979,1227.2688 19.895261,1204 c -0.602135,-3.025 -1.691253,-8.2 -2.420261,-11.5 -0.729009,-3.3 -2.041062,-10.725 -2.915675,-16.5 -0.874612,-5.775 -2.027236,-12.75 -2.561387,-15.5 -1.422861,-7.3254 -5.8559869,-41.3371 -6.9732488,-53.5 -4.31438858,-46.9678 -4.41774268,-49.319 -4.41774268,-100.5 0,-51.18097 0.1033541,-53.53219 4.41774268,-100.5 1.1172619,-12.16287 5.5503878,-46.17459 6.9732488,-53.5 0.534151,-2.75 1.686775,-9.725 2.561387,-15.5 0.874613,-5.775 2.186666,-13.2 2.915675,-16.5 0.729008,-3.3 1.818126,-8.475 2.420261,-11.5 4.631718,-23.26878 11.129587,-51.21997 14.543722,-62.56118 0.817725,-2.71635 3.108535,-10.78882 5.090688,-17.93882 8.952485,-32.29329 26.156503,-80.63351 41.639655,-117 9.192315,-21.59071 27.340054,-59.28908 38.193024,-79.3385 3.37571,-6.23618 7.87748,-14.56118 10.00394,-18.5 2.12646,-3.93883 5.38896,-9.45808 7.25,-12.26501 1.86104,-2.80692 3.38371,-5.40831 3.38371,-5.78086 0,-1.75355 24.43909,-39.70846 43.40576,-67.41093 12.09594,-17.66717 38.46446,-51.789 55.02527,-71.2047 4.45671,-5.225 10.10224,-11.975 12.54561,-15 C 263.39038,326.63126 304.03567,284.9046 326.5,264.46733 433.12351,167.46497 556.96334,95.262379 694,50.20305 c 11.825,-3.888205 27.35,-8.691225 34.5,-10.673379 7.15,-1.982153 15.22247,-4.272963 17.93882,-5.090688 11.34121,-3.414135 39.2924,-9.912004 62.56118,-14.543722 3.025,-0.602135 8.2,-1.691253 11.5,-2.420261 3.3,-0.729009 10.725,-2.041062 16.5,-2.915675 5.775,-0.874612 12.75,-2.027236 15.5,-2.561387 7.32541,-1.422861 41.33713,-5.8559869 53.5,-6.9732488 46.96781,-4.31438858 49.31903,-4.41774268 100.5,-4.41774268 51.181,0 53.5322,0.1033541 100.5,4.41774268 12.1629,1.1172619 46.1746,5.5503878 53.5,6.9732488 2.75,0.534151 9.725,1.686775 15.5,2.561387 5.775,0.874613 13.2,2.186666 16.5,2.915675 3.3,0.729008 8.475,1.818126 11.5,2.420261 23.2688,4.631718 51.22,11.129587 62.5612,14.543722 2.7163,0.817725 10.7888,3.108535 17.9388,5.090688 32.2933,8.952485 80.6335,26.156503 117,41.639655 21.5907,9.192315 59.2891,27.340054 79.3385,38.193024 6.2362,3.37571 14.5612,7.87748 18.5,10.00394 3.9388,2.12646 9.4581,5.38896 12.265,7.25 2.8069,1.86104 5.4083,3.38371 5.7809,3.38371 1.7535,0 39.7084,24.43909 67.4109,43.40576 27.5382,18.85422 68.7467,51.93533 99.7047,80.04046 14.1745,12.86828 52.1855,50.87927 65.0538,65.05378 28.1051,30.95804 61.1862,72.16647 80.0404,99.7047 18.9667,27.70247 43.4058,65.65738 43.4058,67.41093 0,0.37255 1.5227,2.97394 3.3837,5.78086 1.8611,2.80693 5.1236,8.32618 7.25,12.26501 2.1265,3.93882 6.6282,12.26382 10.004,18.5 10.8529,20.04942 29.0007,57.74779 38.193,79.3385 15.4831,36.36649 32.6871,84.70671 41.6396,117 1.9822,7.15 4.273,15.22247 5.0907,17.93882 3.4142,11.34121 9.912,39.2924 14.5437,62.56118 0.6022,3.025 1.6913,8.2 2.4203,11.5 0.729,3.3 2.0411,10.725 2.9157,16.5 0.8746,5.775 2.0265,12.75 2.5599,15.5 0.5333,2.75 2.0832,13.55 3.4442,24 1.361,10.45 2.9244,21.925 3.4743,25.5 5.6891,36.98893 6.7488,138.8865 1.9862,191 -2.3949,26.2066 -3.8432,37.5999 -9.4068,74 -8.7061,56.9604 -30.6077,137.9186 -53.4298,197.5 -21.3124,55.6401 -55.2346,124.0215 -85.5917,172.5385 -28.1825,45.0414 -62.515,92.1617 -87.0413,119.4615 -3.953,4.4 -12.7557,14.297 -19.5615,21.9934 -14.0956,15.9401 -53.9814,56.2255 -70.3742,71.0794 -31.2936,28.3557 -72.2309,61.2113 -99.7047,80.0214 -27.7025,18.9667 -65.6574,43.4058 -67.4109,43.4058 -0.3726,0 -2.974,1.5227 -5.7809,3.3837 -2.8069,1.8611 -8.3262,5.1236 -12.265,7.25 -3.9388,2.1265 -12.2638,6.6282 -18.5,10.004 -20.0494,10.8529 -57.7478,29.0007 -79.3385,38.193 -36.3665,15.4831 -84.7067,32.6871 -117,41.6396 -7.15,1.9822 -15.2225,4.273 -17.9388,5.0907 -11.3412,3.4142 -39.2924,9.912 -62.5612,14.5437 -3.025,0.6022 -8.2,1.6913 -11.5,2.4203 -3.3,0.729 -10.725,2.0411 -16.5,2.9157 -5.775,0.8746 -12.75,2.0272 -15.5,2.5614 -7.3572,1.429 -41.3044,5.8431 -54,7.0215 -39.4254,3.6594 -48.3146,4.0861 -91.5,4.3923 -25.025,0.1775 -48.65,0.1514 -52.5,-0.058 z"
       id="path837"
       inkscape:connector-curvature="0" />
    <path
       style="fill:#909090"
       d="m 962,2012.3414 c -7.51014,-0.3921 -32.84682,-2.444 -53.5,-4.3328 -12.56602,-1.1493 -46.53768,-5.5571 -54,-7.0065 -2.75,-0.5342 -9.725,-1.6868 -15.5,-2.5614 -5.775,-0.8746 -13.2,-2.1867 -16.5,-2.9157 -3.3,-0.729 -8.475,-1.8181 -11.5,-2.4203 -23.26878,-4.6317 -51.21997,-11.1295 -62.56118,-14.5437 -2.71635,-0.8177 -10.78882,-3.109 -17.93882,-5.0917 -33.12053,-9.1845 -81.61316,-26.5138 -119.5,-42.7046 -26.9325,-11.5094 -78.49368,-37.1871 -103.53852,-51.5626 C 405.76641,1820.8301 317.94744,1748.4588 243.89748,1662 210.35762,1622.8397 181.60859,1583.5233 152.52304,1537.0385 121.20781,1486.9903 87.385213,1418.4317 65.676482,1361 c -8.647379,-22.8771 -21.03488,-60.0693 -26.145776,-78.5 -1.982723,-7.15 -4.273998,-15.2225 -5.091723,-17.9388 C 31.024848,1253.22 24.526979,1225.2688 19.895261,1202 c -0.602135,-3.025 -1.691253,-8.2 -2.420261,-11.5 -0.729009,-3.3 -2.041062,-10.725 -2.915675,-16.5 -0.874612,-5.775 -2.027236,-12.75 -2.561387,-15.5 -1.449454,-7.4623 -5.8572786,-41.434 -7.006502,-54 -0.5533017,-6.05 -1.7674726,-19.1 -2.6981577,-29 -2.42820778,-25.8296 -2.42820778,-112.17036 0,-138 0.9306851,-9.9 2.144856,-22.95 2.6981577,-29 1.1492234,-12.56602 5.557048,-46.53768 7.006502,-54 0.534151,-2.75 1.686775,-9.725 2.561387,-15.5 0.874613,-5.775 2.186666,-13.2 2.915675,-16.5 0.729008,-3.3 1.818126,-8.475 2.420261,-11.5 4.631718,-23.26878 11.129587,-51.21997 14.543722,-62.56118 C 35.256708,745.72247 37.547983,737.65 39.530706,730.5 44.641602,712.06933 57.029103,674.87714 65.676482,652 87.385213,594.56831 121.20781,526.00969 152.52304,475.96148 181.51711,429.62294 209.85012,390.85616 243.85213,351 278.23066,310.7025 320.41407,269.11701 362.45405,234.07918 383.68858,216.38146 427.47632,183 429.45657,183 c 0.2866,0 3.12927,-1.98354 6.31705,-4.40786 6.77586,-5.15309 35.12839,-23.49848 50.22638,-32.49879 13.56656,-8.08739 12.10984,-7.23738 22.5,-13.12896 4.95,-2.80682 9.675,-5.50281 10.5,-5.99109 14.21848,-8.4153 68.21909,-34.580622 94.5,-45.788798 36.21078,-15.443028 84.62542,-32.67981 117,-41.654831 7.15,-1.982153 15.22247,-4.272963 17.93882,-5.090688 11.34121,-3.414135 39.2924,-9.912004 62.56118,-14.543722 3.025,-0.602135 8.2,-1.691253 11.5,-2.420261 3.3,-0.729009 10.725,-2.041062 16.5,-2.915675 5.775,-0.874612 12.75,-2.027236 15.5,-2.561387 7.46232,-1.449454 41.43398,-5.8572786 54,-7.006502 6.05,-0.5533017 19.1,-1.7674726 29,-2.6981577 25.82964,-2.42820778 112.1704,-2.42820778 138,0 9.9,0.9306851 22.95,2.144856 29,2.6981577 12.566,1.1492234 46.5377,5.557048 54,7.006502 2.75,0.534151 9.725,1.686775 15.5,2.561387 5.775,0.874613 13.2,2.186666 16.5,2.915675 3.3,0.729008 8.475,1.818126 11.5,2.420261 23.2688,4.631718 51.22,11.129587 62.5612,14.543722 2.7163,0.817725 10.7888,3.109 17.9388,5.091723 33.1205,9.184452 81.6132,26.513787 119.5,42.704545 26.9325,11.509472 78.4937,37.187199 103.5385,51.562699 101.6951,58.37199 189.5141,130.74326 263.564,217.20205 33.5399,39.16026 62.2889,78.47674 91.3745,124.96148 31.3152,50.04821 65.1378,118.60683 86.8465,176.03852 8.6474,22.87714 21.0349,60.06933 26.1458,78.5 1.9827,7.15 4.274,15.22247 5.0917,17.93882 3.4142,11.34121 9.912,39.2924 14.5437,62.56118 0.6022,3.025 1.6913,8.2 2.4203,11.5 0.729,3.3 2.0411,10.725 2.9157,16.5 0.8746,5.775 2.0265,12.75 2.5599,15.5 1.431,7.37844 5.8484,40.93 7.0147,53.27865 4.284,45.359 4.3796,47.51537 4.3796,98.72135 0,51.3764 0,51.4698 -4.3797,99 -1.162,12.6225 -5.5727,46.5842 -7.0131,54 -0.5342,2.75 -1.6868,9.725 -2.5614,15.5 -0.8746,5.775 -2.1867,13.2 -2.9157,16.5 -0.729,3.3 -1.8181,8.475 -2.4203,11.5 -4.6317,23.2688 -11.1295,51.22 -14.5437,62.5612 -0.8177,2.7163 -3.1085,10.7888 -5.0907,17.9388 -8.9539,32.2986 -26.1601,80.6437 -41.6406,117 -11.214,26.3361 -36.7728,78.5283 -45.7876,93.5 -0.4968,0.825 -3.1997,5.55 -6.0065,10.5 -5.8916,10.3902 -5.0416,8.9334 -13.1289,22.5 -9.0004,15.098 -27.3458,43.4505 -32.4988,50.2264 -2.4244,3.1878 -4.4079,6.0195 -4.4079,6.2928 0,0.6062 -10.6564,15.4117 -20.8592,28.9808 -41.7972,55.5881 -93.716,110.8454 -147.1408,156.6025 -39.1603,33.5399 -78.4767,62.2889 -124.9615,91.3745 -50.0482,31.3152 -118.6068,65.1378 -176.0385,86.8465 -22.8771,8.6474 -60.0693,21.0349 -78.5,26.1458 -7.15,1.9827 -15.2225,4.274 -17.9388,5.0917 -11.3412,3.4142 -39.2924,9.912 -62.5612,14.5437 -3.025,0.6022 -8.2,1.6913 -11.5,2.4203 -3.3,0.729 -10.725,2.0411 -16.5,2.9157 -5.775,0.8746 -12.75,2.0265 -15.5,2.5599 -7.7878,1.5104 -40.6985,5.78 -54,7.0056 -6.6,0.6082 -19.2,1.7757 -28,2.5945 -15.4352,1.4362 -96.6733,2.6712 -114.5,1.7407 z"
       id="path835"
       inkscape:connector-curvature="0" />
    <path
       style="fill:#636363"
       d="m 959,2012 c -5.775,-0.3347 -10.05,-0.7573 -9.5,-0.9393 0.55,-0.1819 -5.525,-0.8894 -13.5,-1.5721 -34.9849,-2.9952 -67.59958,-6.7921 -81.5,-9.488 -2.75,-0.5334 -9.725,-1.6853 -15.5,-2.5599 -5.775,-0.8746 -13.2,-2.1867 -16.5,-2.9157 -3.3,-0.729 -8.475,-1.8181 -11.5,-2.4203 -23.26878,-4.6317 -51.21997,-11.1295 -62.56118,-14.5437 -2.71635,-0.8177 -10.78882,-3.1085 -17.93882,-5.0907 -32.29858,-8.9539 -80.64371,-26.1601 -117,-41.6406 -26.33615,-11.214 -78.52827,-36.7728 -93.5,-45.7876 -0.825,-0.4968 -5.55,-3.1997 -10.5,-6.0065 -10.39016,-5.8916 -8.93344,-5.0416 -22.5,-13.1289 -15.09799,-9.0004 -43.45052,-27.3458 -50.22638,-32.4988 -3.18778,-2.4244 -6.03045,-4.4079 -6.31705,-4.4079 -0.813,0 -26.80675,-19.0622 -40.55745,-29.7424 C 334.43387,1756.178 280.41284,1703.9393 235.07918,1649.546 217.38146,1628.3114 184,1584.5237 184,1582.5434 c 0,-0.2866 -1.98354,-3.1292 -4.40786,-6.317 -5.15309,-6.7759 -23.49848,-35.1284 -32.49879,-50.2264 -8.08739,-13.5666 -7.23738,-12.1098 -13.12896,-22.5 -2.80682,-4.95 -5.50974,-9.675 -6.00649,-10.5 -9.01481,-14.9717 -34.573649,-67.1639 -45.787589,-93.5 -15.480516,-36.3563 -32.68669,-84.7014 -41.64064,-117 -1.982153,-7.15 -4.272963,-15.2225 -5.090688,-17.9388 C 32.024848,1253.22 25.526979,1225.2688 20.895261,1202 c -0.602135,-3.025 -1.691253,-8.2 -2.420261,-11.5 -0.729009,-3.3 -2.041062,-10.725 -2.915675,-16.5 -0.874612,-5.775 -2.026572,-12.75 -2.559911,-15.5 -2.7997,-14.4358 -6.9389285,-50.3555 -9.3729936,-81.3377 -0.6195312,-7.8858 -1.3934647,-14.0687 -1.7198521,-13.7399 C 0.95366144,1064.3823 0,1035.9099 0,1006.5 c 0,-29.40989 0.95366144,-57.88234 1.9065683,-56.92236 0.3263874,0.32881 1.1003209,-5.85415 1.7198521,-13.7399 2.4340651,-30.98221 6.5732936,-66.90195 9.3729936,-81.33774 0.533339,-2.75 1.685299,-9.725 2.559911,-15.5 0.874613,-5.775 2.186666,-13.2 2.915675,-16.5 0.729008,-3.3 1.818126,-8.475 2.420261,-11.5 4.631718,-23.26878 11.129587,-51.21997 14.543722,-62.56118 0.817725,-2.71635 3.108535,-10.78882 5.090688,-17.93882 8.95395,-32.29858 26.160124,-80.64371 41.64064,-117 11.21394,-26.33615 36.772779,-78.52827 45.787589,-93.5 0.49675,-0.825 3.19967,-5.55 6.00649,-10.5 5.89158,-10.39016 5.04157,-8.93344 13.12896,-22.5 9.00031,-15.09799 27.3457,-43.45052 32.49879,-50.22638 2.42432,-3.18778 4.40786,-6.03045 4.40786,-6.31705 0,-2.04562 33.78605,-46.28833 51.43636,-67.35572 6.635,-7.91954 13.81582,-16.69454 15.95738,-19.5 9.5515,-12.51259 54.15974,-58.30198 77.10626,-79.14791 30.84193,-28.01856 72.14356,-61.17727 99.7047,-80.04718 C 455.90717,165.43909 493.86208,141 495.61563,141 c 0.37255,0 2.97394,-1.52267 5.78086,-3.38371 2.80693,-1.86104 8.3345,-5.12354 12.28349,-7.25 3.949,-2.12646 10.699,-5.82551 15,-8.22012 4.30101,-2.3946 9.84502,-5.15643 12.32002,-6.1374 2.475,-0.98097 15.075,-6.98402 28,-13.34011 49.40846,-24.297487 112.33556,-48.509414 161.5,-62.138989 7.15,-1.982153 15.22247,-4.272963 17.93882,-5.090688 11.34121,-3.414135 39.2924,-9.912004 62.56118,-14.543722 3.025,-0.602135 8.2,-1.691253 11.5,-2.420261 3.3,-0.729009 10.725,-2.041062 16.5,-2.915675 5.775,-0.874612 12.75,-2.026572 15.5,-2.559911 14.43579,-2.7997 50.35553,-6.9389285 81.33774,-9.3729936 7.88575,-0.6195312 14.06871,-1.3934647 13.7399,-1.7198521 C 948.61766,0.95366144 977.09011,0 1006.5,0 c 29.4099,0 57.8823,0.95366144 56.9224,1.9065683 -0.3288,0.3263874 5.8541,1.1003209 13.7399,1.7198521 30.9822,2.4340651 66.9019,6.5732936 81.3377,9.3729936 2.75,0.533339 9.725,1.685299 15.5,2.559911 5.775,0.874613 13.2,2.186666 16.5,2.915675 3.3,0.729008 8.475,1.818126 11.5,2.420261 23.2688,4.631718 51.22,11.129587 62.5612,14.543722 2.7163,0.817725 10.7888,3.108535 17.9388,5.090688 32.2986,8.95395 80.6437,26.160124 117,41.64064 26.3361,11.21394 78.5283,36.772779 93.5,45.787589 0.825,0.49675 5.55,3.19967 10.5,6.00649 10.3902,5.89158 8.9334,5.04157 22.5,13.12896 15.098,9.00031 43.4505,27.3457 50.2264,32.49879 3.1878,2.42432 6.0304,4.40786 6.317,4.40786 0.813,0 26.8068,19.06223 40.5575,29.74236 55.4652,43.07969 109.4863,95.3183 154.8199,149.71169 17.6977,21.23453 51.0792,65.02227 51.0792,67.00252 0,0.2866 1.9835,3.12927 4.4079,6.31705 5.153,6.77586 23.4984,35.12839 32.4988,50.22638 8.0873,13.56656 7.2373,12.10984 13.1289,22.5 2.8068,4.95 5.5097,9.675 6.0065,10.5 9.0148,14.97173 34.5736,67.16385 45.7876,93.5 15.4805,36.35629 32.6867,84.70142 41.6406,117 1.9822,7.15 4.273,15.22247 5.0907,17.93882 3.4142,11.34121 9.912,39.2924 14.5437,62.56118 0.6022,3.025 1.6945,8.2 2.4274,11.5 0.7328,3.3 2.0685,10.95 2.9682,17 0.8996,6.05 2.0213,12.8 2.4927,15 2.1661,10.1091 8.639,65.24497 9.6269,82 0.3567,6.05 1.1506,11.63164 1.7643,12.40364 1.6094,2.0246 1.5707,111.84876 -0.041,115.19486 -0.6361,1.3208 -1.6611,9.1515 -2.2778,17.4015 -2.173,29.0699 -6.2243,64.3818 -9.0637,79 -0.5342,2.75 -1.6868,9.725 -2.5614,15.5 -0.8746,5.775 -2.1867,13.2 -2.9157,16.5 -0.729,3.3 -1.8181,8.475 -2.4203,11.5 -4.6317,23.2688 -11.1295,51.22 -14.5437,62.5612 -0.8177,2.7163 -3.1085,10.7888 -5.0907,17.9388 -8.9525,32.2933 -26.1565,80.6335 -41.6396,117 -9.1923,21.5907 -27.3401,59.2891 -38.193,79.3385 -3.3758,6.2362 -7.8775,14.5612 -10.004,18.5 -2.1264,3.9388 -5.3889,9.4581 -7.25,12.265 -1.861,2.8069 -3.3837,5.4083 -3.3837,5.7809 0,1.9282 -28.5479,46.0693 -45.5752,70.4688 -15.2952,21.9176 -40.0966,53.5776 -53.1866,67.8951 -4.4008,4.8134 -13.5672,15.0517 -20.3698,22.7517 -26.0394,29.4744 -69.0181,70.8302 -103.3224,99.4208 -21.2346,17.6977 -65.0223,51.0792 -67.0026,51.0792 -0.2866,0 -3.1292,1.9835 -6.317,4.4079 -6.7759,5.153 -35.1284,23.4984 -50.2264,32.4988 -13.5666,8.0873 -12.1098,7.2373 -22.5,13.1289 -4.95,2.8068 -9.675,5.5097 -10.5,6.0065 -14.9717,9.0148 -67.1639,34.5736 -93.5,45.7876 -36.3563,15.4805 -84.7014,32.6867 -117,41.6406 -7.15,1.9822 -15.2225,4.273 -17.9388,5.0907 -11.3412,3.4142 -39.2924,9.912 -62.5612,14.5437 -3.025,0.6022 -8.2,1.6913 -11.5,2.4203 -3.3,0.729 -10.725,2.0411 -16.5,2.9157 -5.775,0.8746 -12.75,2.0265 -15.5,2.5599 -14.4358,2.7997 -50.3555,6.9389 -81.3377,9.373 -7.8858,0.6195 -14.0687,1.3934 -13.7399,1.7198 1.7252,1.7126 -78.49671,2.4091 -104.4224,0.9066 z"
       id="path833"
       inkscape:connector-curvature="0" />
    <path
       style="fill:#585858"
       d="m 894.5,1964.1226 c -35.96654,-6.555 -65.1509,-21.7485 -90.5,-47.1148 -14.00626,-14.0158 -22.93659,-26.3532 -31.49256,-43.5078 -7.08367,-14.2026 -11.29662,-26.1648 -14.73405,-41.8356 -1.94686,-8.8755 -2.22958,-13.0809 -2.22958,-33.1644 0,-20.0835 0.28272,-24.2889 2.22958,-33.1644 5.07223,-23.1236 15.14866,-46.2992 27.97226,-64.3356 8.65372,-12.1715 27.08289,-30.6006 39.25435,-39.2544 18.03638,-12.8235 41.21198,-22.9 64.33564,-27.9722 8.87548,-1.9469 13.08084,-2.2296 33.16436,-2.2296 20.08352,0 24.28888,0.2827 33.16436,2.2296 15.67083,3.4374 27.633,7.6504 41.83564,14.734 17.1613,8.5594 29.4985,17.4911 43.5,31.4926 14.0015,14.0015 22.9332,26.3387 31.4926,43.5 7.0836,14.2026 11.2966,26.1648 14.734,41.8356 1.9469,8.8755 2.2296,13.0809 2.2296,33.1644 0,20.0835 -0.2827,24.2889 -2.2296,33.1644 -3.4374,15.6708 -7.6504,27.633 -14.734,41.8356 -8.5594,17.1613 -17.4911,29.4985 -31.4926,43.5 -14.0015,14.0015 -26.3387,22.9332 -43.5,31.4926 -14.08929,7.0271 -26.17142,11.2993 -41.32289,14.6117 -14.00584,3.0619 -47.43594,3.6138 -61.67711,1.0183 z m 620.5642,-234.6585 c -31.7838,-8.2106 -56.4916,-33.042 -64.5717,-64.8948 -3.5093,-13.8343 -3.5093,-30.3043 0,-44.1386 8.1266,-32.0361 32.9021,-56.8116 64.9382,-64.9382 13.8343,-3.5093 30.3043,-3.5093 44.1386,0 32.0361,8.1266 56.8116,32.9021 64.9382,64.9382 5.1176,20.1741 2.6671,43.5791 -6.4931,62.0168 -11.5627,23.2735 -33.1279,40.6378 -58.4451,47.06 -13.6895,3.4726 -30.9597,3.4558 -44.5051,-0.043 z m 248.2564,-82.2548 c -25.766,-17.9851 -47.0487,-39.5032 -64.0011,-64.7093 -19.4961,-28.9882 -33.1695,-66.8113 -37.367,-103.3642 -1.5731,-13.6989 -0.7447,-50.6705 1.3923,-62.1358 2.2804,-12.235 2.322,-13.1272 0.6552,-14.0242 -0.825,-0.444 -7.8,-2.2564 -15.5,-4.0276 -39.3081,-9.0416 -81.0441,-27.9149 -114.3008,-51.6876 -28.9039,-20.6611 -55.8722,-47.1973 -76.1925,-74.9718 -4.4983,-6.1485 -7.726,-9.7293 -8.1125,-9 -0.353,0.6662 -0.9478,4.4427 -1.3218,8.3924 -0.9347,9.8717 -4.9554,28.807 -8.6675,40.8188 -11.893,38.4847 -31.7874,71.4486 -60.3718,100.0331 -38.3721,38.372 -86.0692,61.8719 -139.9033,68.9289 -15.3748,2.0155 -45.8848,2.0155 -61.2596,0 -53.8341,-7.057 -101.5312,-30.5569 -139.9033,-68.9289 -38.372,-38.3721 -61.87191,-86.0692 -68.92894,-139.9033 -2.01546,-15.3748 -2.01546,-45.8848 0,-61.2596 7.05703,-53.8341 30.55694,-101.5312 68.92894,-139.9033 38.3721,-38.372 86.0692,-61.8719 139.9033,-68.9289 23.9536,-3.14008 58.4467,-1.6564 82.0608,3.5296 45.3875,9.9679 85.7191,32.1195 119.2857,65.516 7.2691,7.2324 13.4566,12.9097 13.75,12.6164 0.2933,-0.2933 0.5333,-7.1607 0.5333,-15.2607 0,-63.2175 22.6345,-132.43335 60.7394,-185.74013 15.0511,-21.05572 35.9224,-43.98631 54.7606,-60.16357 51.8747,-44.54725 116.8061,-72.22518 185.356,-79.01053 13.3409,-1.32054 49.9471,-1.32054 63.288,0 75.8678,7.50971 145.6699,39.82312 199.7238,92.45803 22.2022,21.61926 43.7636,48.41089 46.691,58.0169 1.571,5.15487 2.7386,15.15433 4.7685,40.83663 0.645,8.16014 1.4397,14.5681 1.7661,14.2399 0.953,-0.95822 1.9066,27.51404 1.9066,56.92347 0,29.4099 -0.9537,57.8823 -1.9066,56.9224 -0.3264,-0.3288 -1.1003,5.8541 -1.7198,13.7399 -2.4341,30.9822 -6.5733,66.9019 -9.373,81.3377 -0.5334,2.75 -1.6853,9.725 -2.5599,15.5 -0.8746,5.775 -2.1867,13.2 -2.9157,16.5 -0.729,3.3 -1.8181,8.475 -2.4203,11.5 -4.6317,23.2688 -11.1295,51.22 -14.5437,62.5612 -0.8177,2.7163 -3.109,10.7888 -5.0917,17.9388 -5.1109,18.4307 -17.4984,55.6229 -26.1458,78.5 -19.5315,51.6717 -46.2212,107.1133 -76.7633,159.4578 -7.5816,12.9937 -28.9903,46.5025 -34.318,53.7144 -2.2943,3.1057 -6.6519,9.2894 -9.6835,13.7416 -9.7215,14.2769 -37.0174,49.7379 -47.2781,61.4206 -1.7707,2.0161 -4.0207,3.6473 -5,3.6249 -0.9794,-0.022 -5.4613,-2.6099 -9.96,-5.75 z M 740.10461,1361.5096 c -40.18245,-9.0681 -68.79329,-35.6366 -80.77561,-75.0096 -2.57338,-8.4559 -2.73895,-10.1486 -2.73895,-28 0,-17.8394 0.16701,-19.5497 2.73415,-28 11.10648,-36.5591 36.58415,-62.0351 73.1758,-73.171 8.45593,-2.5734 10.14859,-2.739 28,-2.739 17.85141,0 19.54407,0.1656 28,2.739 36.59165,11.1359 62.06932,36.6119 73.1758,73.171 2.56714,8.4503 2.73415,10.1606 2.73415,28 0,17.8514 -0.16557,19.5441 -2.73895,28 -11.14168,36.6107 -36.91077,62.3584 -73.171,73.1103 -7.82856,2.3213 -11.14765,2.7126 -25.5,3.0056 -11.8331,0.2416 -18.30889,-0.071 -22.89539,-1.1063 z M 215.5,1157.652 c -11.90048,-3.9347 -21.58389,-12.3844 -26.79139,-23.3782 -3.03279,-6.4026 -3.20861,-7.404 -3.20861,-18.2738 0,-10.8698 0.17582,-11.8712 3.20861,-18.2738 4.21516,-8.8988 12.11877,-16.8024 21.01756,-21.0176 6.40265,-3.0328 7.40399,-3.2086 18.27383,-3.2086 10.86984,0 11.87118,0.1758 18.27383,3.2086 8.89879,4.2152 16.8024,12.1188 21.01756,21.0176 3.03279,6.4026 3.20861,7.404 3.20861,18.2738 0,10.8698 -0.17582,11.8712 -3.20861,18.2738 -4.22862,8.9272 -12.12473,16.8135 -21.01756,20.9913 -5.99198,2.8151 -7.92805,3.2128 -16.77383,3.4459 -6.30273,0.1661 -11.47891,-0.2254 -14,-1.059 z m 407.80235,-144.2235 c -22.20502,-2.6909 -48.4721,-9.0518 -69.97551,-16.9456 -5.40476,-1.98405 -17.97481,-7.61307 -27.93344,-12.50892 C 444.70731,944.30717 386.25487,870.15327 365.98862,781.75 364.75928,776.3875 363.3289,772 362.81,772 c -0.51889,0 -2.40238,1.11278 -4.18552,2.47285 -4.62566,3.52816 -20.97615,11.0586 -28.62448,13.18339 -5.02123,1.39495 -10.14004,1.80577 -22.5,1.80577 -18.71709,0 -23.67036,-1.06202 -39,-8.36188 -18.69218,-8.90108 -32.65584,-22.86753 -41.59179,-41.60013 -7.30586,-15.31542 -8.37022,-20.27464 -8.37022,-39 0,-18.71709 1.06202,-23.67036 8.36188,-39 8.90108,-18.69218 22.86753,-32.65584 41.60013,-41.59179 15.31542,-7.30586 20.27464,-8.37022 39,-8.37022 12.33322,0 17.48963,0.41251 22.5,1.79998 9.27252,2.56774 25.49118,10.57882 32.42479,16.01597 3.25864,2.55533 6.23592,4.64606 6.6162,4.64606 0.38027,0 2.14534,-4.6125 3.92238,-10.25 5.96909,-18.93646 15.79252,-40.96459 26.77932,-60.05019 2.46964,-4.29011 4.31172,-7.97874 4.0935,-8.19695 -0.21821,-0.21822 -5.32725,-2.46245 -11.35342,-4.98719 -73.24971,-30.68891 -125.51296,-96.72831 -138.89245,-175.50334 -0.88629,-5.21822 -1.89788,-13.85867 -2.24798,-19.20101 -0.5477,-8.3574 -0.38583,-10.096 1.15955,-12.45456 5.24639,-8.007 54.51521,-58.49952 76.99811,-78.91054 30.97343,-28.1191 72.33543,-61.32104 99.71206,-80.04046 38.26099,-26.16185 64.56647,-42.4169 98.55701,-60.90172 16.65614,-9.05799 16.59434,-9.05224 32.73093,-3.04431 56.35906,20.98346 101.99231,62.00433 127.97534,115.04027 15.94483,32.54618 22.41035,59.13072 23.25922,95.63576 0.69748,29.99521 -1.46135,46.96246 -9.37002,73.64331 -2.00185,6.75349 -3.38638,12.53243 -3.07672,12.84209 0.30966,0.30966 6.10908,1.59736 12.8876,2.86157 66.75584,12.45004 124.66907,45.0177 171.20548,96.27786 2.82123,3.10761 5.25533,4.97937 5.94746,4.57346 0.6444,-0.37792 3.64664,-2.57041 6.67164,-4.8722 45.65043,-34.73648 110.2316,-41.49594 162.5,-17.00824 40.3548,18.90618 70.9042,53.62187 84.4223,95.93577 9.5548,29.90826 9.5548,66.31298 0,96.22124 -15.6797,49.07998 -54.2317,87.63199 -103.3117,103.31164 C 1024.3992,799.78186 1009.3215,802 991.5,802 c -14.49021,0 -17.81846,-0.37677 -41.58776,-4.70785 -2.49213,-0.4541 -2.70823,-0.0894 -5.84717,9.86816 -24.01053,76.16762 -80.13517,141.25817 -152.45847,176.81367 -44.86318,22.05562 -84.48734,31.15752 -134.60047,30.91882 -12.37837,-0.059 -27.54507,-0.7179 -33.70378,-1.4643 z M 1677,731.33312 C 1628.7083,722.92105 1587.1491,686.89552 1571.6376,640 1566.9063,625.69586 1565,613.34666 1565,597 c 0,-16.34666 1.9063,-28.69586 6.6376,-43 15.651,-47.31739 57.3799,-83.20801 106.2886,-91.41773 12.202,-2.0482 33.9456,-2.0482 46.1476,0 56.1964,9.43303 101.9109,55.14757 111.3439,111.34395 2.0482,12.20196 2.0482,33.9456 0,46.14756 -9.433,56.19638 -55.1475,101.91092 -111.3439,111.34395 -11.8077,1.98202 -35.4538,1.93952 -47.0738,-0.0846 z M 839,293.57424 C 820.9749,289.57327 807.66646,282.51941 794.6385,270.06135 776.38384,252.60522 767,230.68533 767,205.5 c 0,-25.18533 9.38384,-47.10522 27.6385,-64.56135 C 812.18589,124.15886 832.42433,116 856.5,116 c 24.07567,0 44.31411,8.15886 61.8615,24.93865 C 936.61616,158.39478 946,180.31467 946,205.5 c 0,25.18533 -9.38384,47.10522 -27.6385,64.56135 -13.2457,12.66627 -26.45597,19.61146 -44.67688,23.48848 -8.15071,1.7343 -26.92174,1.74751 -34.68462,0.0244 z"
       id="path831"
       inkscape:connector-curvature="0" />
    <path
       style="fill:#454545"
       d="m 911.5,1964.4005 c -44.19713,-4.4049 -76.53509,-19.2911 -106.07226,-48.8282 -32.46679,-32.4668 -48.77083,-71.604 -48.77083,-117.0723 0,-45.4683 16.30404,-84.6055 48.77083,-117.0723 32.4668,-32.4668 71.60393,-48.7708 117.07226,-48.7708 45.46833,0 84.6055,16.304 117.0723,48.7708 32.4668,32.4668 48.7708,71.604 48.7708,117.0723 0,45.4683 -16.304,84.6055 -48.7708,117.0723 -26.3384,26.3383 -56.99559,41.9218 -93.0723,47.3101 -8.0139,1.1969 -29.06245,2.1099 -35,1.5181 z m 615.1786,-234.4134 c -8.976,-1.0996 -19.4371,-4.3383 -28.1355,-8.7105 -18.7907,-9.4451 -31.3939,-22.3143 -40.4934,-41.3482 -6.2673,-13.1096 -8.2439,-22.0837 -8.2439,-37.4284 0,-15.3447 1.9766,-24.3188 8.2439,-37.4284 9.4061,-19.6751 22.4006,-32.6426 42.1909,-42.103 12.9399,-6.1857 21.9645,-8.1628 37.2594,-8.1628 15.3447,0 24.3188,1.9766 37.4284,8.2439 19.6751,9.4061 32.6426,22.4006 42.103,42.1909 6.1857,12.9399 8.1628,21.9645 8.1628,37.2594 0,15.3447 -1.9766,24.3188 -8.2439,37.4284 -9.4061,19.6751 -22.4006,32.6426 -42.1909,42.103 -14.5243,6.9431 -32.3162,9.8871 -48.0808,7.9557 z M 1764,1645.3758 c -17.7013,-12.2338 -31.6756,-24.6596 -44.453,-39.5271 -44.3984,-51.6614 -63.8888,-116.6703 -54.9701,-183.3487 0.8092,-6.05 1.8754,-12.7421 2.3693,-14.8713 0.4938,-2.1293 0.685,-4.4263 0.4247,-5.1045 -0.2602,-0.6782 -4.3877,-2.0365 -9.172,-3.0184 -79.9175,-16.402 -154.9333,-65.7195 -201.9319,-132.7558 -2.9884,-4.2625 -6.0014,-7.75 -6.6955,-7.75 -0.8542,0 -1.6585,3.3127 -2.4888,10.25 -6.6533,55.5878 -31.2909,105.5019 -71.2201,144.287 -38.4363,37.335 -83.4193,58.8989 -138.8626,66.5679 -4.675,0.6467 -17.275,1.1758 -28,1.1758 -20.0136,0 -28.7168,-0.8185 -47,-4.4197 -94.1292,-18.5406 -169.32037,-93.7318 -187.861,-187.861 -3.60125,-18.2832 -4.41966,-26.9864 -4.41966,-47 0,-33.0833 5.45351,-60.9231 17.9238,-91.5 23.62896,-57.9377 71.91916,-106.2279 129.85686,-129.8569 30.5769,-12.4702 58.4167,-17.9238 91.5,-17.9238 10.725,0 23.325,0.5291 28,1.1758 58.3493,8.0709 104.6853,31.3067 145,72.712 l 12.5,12.8382 0.7244,-17.9727 c 1.3765,-34.1483 5.494,-61.3581 13.372,-88.36638 21.7662,-74.62165 68.708,-138.87269 133.1518,-182.25037 43.998,-29.61547 93.9616,-48.02468 147.7518,-54.43954 18.8838,-2.25203 55.1162,-2.25203 74,0 61.0703,7.28307 117.6279,30.25603 165.8084,67.34917 26.1659,20.14464 54.684,50.63022 71.484,76.41582 4.0076,6.15122 4.3477,7.22451 5.2116,16.44964 1.5163,16.19131 3.954,47.36562 4.2904,54.86906 0.2838,6.32888 0.3492,6.04126 0.6826,-3 l 0.3688,-10 0.6955,11.5 c 0.3826,6.325 0.6956,27.25 0.6956,46.5 0,19.25 -0.313,40.175 -0.6956,46.5 l -0.6955,11.5 -0.3688,-10 c -0.3334,-9.0413 -0.3988,-9.3289 -0.6826,-3 -0.3279,7.3134 -2.6776,37.4678 -4.3246,55.5 -1.1065,12.1153 -5.5373,46.1356 -6.9677,53.5 -0.5342,2.75 -1.6868,9.725 -2.5614,15.5 -0.8746,5.775 -2.1867,13.2 -2.9157,16.5 -0.729,3.3 -1.8181,8.475 -2.4203,11.5 -4.8995,24.6142 -8.8833,41.9569 -13.0934,57 -1.6163,5.775 -4.3501,15.675 -6.0751,22 -4.2894,15.7273 -19.4079,61.0252 -26.8675,80.5 -21.3124,55.6401 -55.2346,124.0215 -85.5917,172.5385 -18.3174,29.2749 -30.9086,47.6532 -51.0149,74.4615 -18.4078,24.5437 -31.7517,40.9425 -33.5419,41.2207 -0.7811,0.1214 -5.6952,-2.7338 -10.9202,-6.3449 z M 752.5,1361.4205 c -27.96408,-3.7088 -45.78962,-11.8906 -63.73467,-29.2537 -20.57528,-19.908 -31.00766,-44.6928 -31.00766,-73.6668 0,-28.974 10.43238,-53.7588 31.00766,-73.6668 20.34013,-19.6805 43.51934,-29.0755 71.73467,-29.0755 28.21533,0 51.39454,9.395 71.73467,29.0755 20.57528,19.908 31.00766,44.6928 31.00766,73.6668 0,28.974 -10.43238,53.7588 -31.00766,73.6668 -14.89468,14.4117 -31.22668,23.1369 -51.09616,27.2978 -7.07867,1.4823 -23.66715,2.6153 -28.63851,1.9559 z M 220.5943,1156.943 c -16.59063,-2.7791 -30.87589,-17.5826 -33.66208,-34.8832 -3.52617,-21.8956 12.44203,-43.4934 34.82111,-47.0975 22.18041,-3.572 43.66387,12.3099 47.31445,34.9779 3.50698,21.7764 -12.40506,43.4419 -34.56778,47.0669 -6.68772,1.0938 -7.00198,1.0924 -13.9057,-0.064 z M 638.45134,1013.0273 C 577.26693,1008.5363 520.12309,986.21542 472,948.00989 458.54307,937.32626 436.67374,915.45693 425.99011,902 409.10652,880.73369 393.6396,854.7563 383.61494,830.82898 376.22992,813.20207 371.40295,797.34999 365.47309,771.25 c -0.68191,-3.00139 -1.62095,-2.85374 -7.22078,1.13537 -17.12738,12.20089 -40.32812,18.20004 -60.35141,15.60541 -12.07568,-1.56477 -20.30506,-4.11497 -30.95875,-9.59378 -16.02927,-8.24328 -29.09587,-21.30988 -37.33915,-37.33915 -13.66101,-26.56419 -13.66101,-54.55151 0,-81.1157 16.43529,-31.95885 52.74592,-51.43588 87.4961,-46.93293 5.17049,0.66999 12.3259,2.11246 15.9009,3.20548 9.156,2.79935 22.38608,9.84064 29.83545,15.87898 4.31489,3.49757 6.66143,4.80944 7.35754,4.11333 0.56215,-0.56215 2.92863,-6.80119 5.25885,-13.86455 6.9192,-20.97346 15.51987,-40.08844 26.05618,-57.90986 2.51823,-4.25939 4.4466,-8.37915 4.28529,-9.15501 -0.16132,-0.77586 -5.57729,-3.59235 -12.03549,-6.25888 -29.45089,-12.15996 -52.9128,-28.19114 -76.33617,-52.15939 -37.67511,-38.55153 -60.28698,-88.31518 -64.19534,-141.27958 -0.77869,-10.55242 -0.72447,-11.04083 1.60964,-14.5 5.76956,-8.5505 50.06559,-54.02955 72.66405,-74.60469 C 387.19602,212.12382 452.63167,165.34886 523.30757,126.50714 532.82207,121.27821 541.51074,117 542.61574,117 c 5.18542,0 31.91072,10.49635 46.38426,18.21741 21.37292,11.40159 38.38928,24.31108 56.57835,42.92327 32.43875,33.19336 53.04849,73.15103 61.38767,119.01699 6.74631,37.10501 3.73461,78.15474 -8.32386,113.45518 -1.33635,3.91207 -2.14002,7.56585 -1.78594,8.11951 0.35408,0.55366 5.14378,1.76768 10.64378,2.69781 50.09918,8.47257 96.84023,29.38632 137.5,61.5228 5.775,4.56442 17.78442,15.66726 26.6876,24.67299 8.90319,9.00572 16.48521,16.37404 16.84895,16.37404 0.36374,0 4.22283,-2.68366 8.57576,-5.9637 46.82439,-35.28323 109.46309,-41.46854 162.38769,-16.03511 32.0909,15.42159 58.0772,41.40791 73.4988,73.49881 20.6659,43.00376 20.6659,92.99624 0,136 -21.1832,44.08034 -62.0818,75.9967 -110.0481,85.87913 -19.9151,4.10308 -43.82776,4.11326 -62.4507,0.0266 -3.85,-0.84485 -8.63292,-1.78369 -10.62872,-2.08631 l -3.62872,-0.55021 -4.27653,12.8654 C 926.65404,853.69873 902.95271,892.2211 869.0869,926.08691 833.54375,961.63007 791.76603,986.5597 743,1001.3256 c -31.32641,9.4853 -72.28617,14.0698 -104.54866,11.7017 z M 1687.5,730.96142 c -31.4369,-3.50469 -59.5113,-16.90975 -81.5315,-38.92995 -25.6108,-25.61085 -39.2762,-58.67517 -39.2762,-95.03147 0,-36.3563 13.6654,-69.42062 39.2762,-95.03147 25.6109,-25.61085 58.6752,-39.27623 95.0315,-39.27623 36.3563,0 69.4206,13.66538 95.0315,39.27623 25.6108,25.61085 39.2762,58.67517 39.2762,95.03147 0,36.3563 -13.6654,69.42062 -39.2762,95.03147 -24.2536,24.25357 -54.9081,37.6415 -90.0315,39.32003 -5.775,0.27599 -14.1,0.10045 -18.5,-0.39008 z M 847,292.99865 c -30.28513,-3.72393 -56.32212,-22.21229 -69.49244,-49.34522 -21.16559,-43.60444 -2.93523,-95.89786 40.83901,-117.14587 43.60444,-21.16559 95.89786,-2.93523 117.14587,40.83901 21.16559,43.60444 2.93523,95.89786 -40.83901,117.14587 -14.5577,7.06631 -32.8333,10.32853 -47.65343,8.50621 z"
       id="path829"
       inkscape:connector-curvature="0" />
    <path
       style="fill:#3f3f3f"
       d="m 900.77481,1961.4679 c -26.23853,-3.5776 -52.67281,-13.982 -74.07701,-29.1562 -10.53434,-7.4682 -30.54134,-27.4752 -38.00952,-38.0095 -10.86812,-15.3302 -20.56153,-36.0918 -25.21746,-54.0115 -12.24129,-47.1142 -2.93737,-97.8788 25.21746,-137.5929 7.46818,-10.5343 27.47518,-30.5413 38.00952,-38.0095 15.33016,-10.8681 36.09179,-20.5616 54.01148,-25.2175 47.11417,-12.2413 97.87878,-2.9373 137.59292,25.2175 10.5343,7.4682 30.5413,27.4752 38.0095,38.0095 10.8681,15.3302 20.5616,36.0918 25.2175,54.0115 12.2413,47.1142 2.9373,97.8788 -25.2175,137.5929 -3.1964,4.5088 -11.2117,13.5978 -17.8117,20.1978 -6.6,6.6 -15.689,14.6153 -20.1978,17.8117 -9.3516,6.6297 -25.14309,15.0931 -36.65108,19.643 -24.00833,9.4921 -54.6214,13.093 -80.87631,9.5132 z m 620.95899,-234.0514 c -35.099,-6.3457 -63.0464,-34.5959 -69.2142,-69.9644 -3.803,-21.8082 0.6685,-43.7606 12.6531,-62.1192 15.7422,-24.1148 43.7261,-39.3329 72.3273,-39.3329 41.546,0 77.8309,30.5494 84.9804,71.5479 3.803,21.8082 -0.6685,43.7606 -12.6531,62.1192 -19.0159,29.1295 -53.6594,43.9748 -88.0935,37.7494 z M 1766,1644.8464 c -13.2118,-9.0175 -24.1941,-18.3347 -36.5369,-30.9975 -24.6893,-25.3293 -41.5565,-52.624 -52.7531,-85.366 -12.9225,-37.7889 -15.7044,-73.4782 -9.0215,-115.7382 1.1563,-7.3116 1.3742,-11.082 0.6808,-11.7754 -0.5611,-0.5611 -7.5112,-2.538 -15.4447,-4.3931 -27.0541,-6.326 -51.4913,-15.21 -75.8274,-27.5665 -33.1535,-16.8335 -59.1735,-36.062 -86.1368,-63.6543 -14.5591,-14.8986 -21.5432,-23.1454 -32.9062,-38.8554 -7.4372,-10.2822 -9.4518,-12.2837 -10.56,-10.4906 -0.3515,0.5687 -1.4966,7.6618 -2.5446,15.7624 -6.6091,51.083 -28.496,97.2621 -63.5928,134.1737 -31.146,32.7564 -71.8281,56.3338 -115.7984,67.1113 -20.2296,4.9584 -32.7323,6.3655 -56.5584,6.3655 -38.5196,0 -69.179,-6.8286 -102.5,-22.8294 -64.701,-31.0695 -111.55406,-88.6659 -128.55677,-158.0345 -4.9584,-20.2296 -6.36557,-32.7323 -6.36557,-56.5584 0,-39.4877 6.93743,-69.8457 23.88039,-104.5 34.78075,-71.1387 101.17795,-119.4064 180.48355,-131.203 15.9195,-2.368 50.1973,-2.368 66.1168,0 25.7516,3.8305 48.1779,10.7871 71.4416,22.161 26.5104,12.9613 48.8445,29.4413 69.2043,51.0648 5.9376,6.3062 11.5171,11.4683 12.3987,11.4715 1.402,0 1.6776,-2.6589 2.1973,-21.2443 1.0261,-36.6899 5.4572,-63.5233 15.7479,-95.3627 16.8168,-52.03153 43.8688,-95.54304 83.5964,-134.46002 53.265,-52.17822 117.8225,-82.69905 194.8554,-92.12175 12.9127,-1.57949 57.0873,-1.57949 70,0 41.7516,5.10707 77.5546,15.6789 112.6228,33.25491 31.6041,15.8399 56.5664,33.71238 82.2184,58.86684 15.4894,15.18899 23.6649,24.49147 35.6761,40.59408 12.2966,16.48529 13.0504,18.02773 14.0469,28.74144 1.4937,16.0595 3.9041,46.96458 4.2302,54.2372 0.2561,5.71177 0.3817,4.97563 0.6826,-4 l 0.3688,-11 0.6955,11.5 c 0.3826,6.325 0.6956,27.25 0.6956,46.5 0,19.25 -0.313,40.175 -0.6956,46.5 l -0.6955,11.5 -0.3688,-11 c -0.3009,-8.9756 -0.4265,-9.7118 -0.6826,-4 -0.3279,7.3134 -2.6776,37.4678 -4.3246,55.5 -1.1065,12.1153 -5.5373,46.1356 -6.9677,53.5 -0.5342,2.75 -1.6868,9.725 -2.5614,15.5 -0.8746,5.775 -2.1867,13.2 -2.9157,16.5 -0.729,3.3 -1.8181,8.475 -2.4203,11.5 -4.6317,23.2688 -11.1295,51.22 -14.5437,62.5612 -0.8177,2.7163 -3.1085,10.7888 -5.0907,17.9388 -8.9539,32.2986 -26.1601,80.6437 -41.6406,117 -11.214,26.3361 -36.7728,78.5283 -45.7876,93.5 -0.4968,0.825 -3.1997,5.55 -6.0065,10.5 -5.8916,10.3902 -5.0416,8.9334 -13.1289,22.5 -9.0004,15.098 -27.3458,43.4505 -32.4988,50.2264 -2.4244,3.1878 -4.4079,6.0195 -4.4079,6.2928 0,0.2733 -3.0015,4.6558 -6.67,9.7389 -20.6751,28.6472 -43.9501,57.7477 -46.1689,57.7246 -0.9136,-0.01 -5.0361,-2.3209 -9.1611,-5.1363 z M 745.5,1358.97 c -13.575,-2.0967 -29.94502,-8.5607 -42.40966,-16.7462 -7.19109,-4.7224 -21.5917,-19.1231 -26.3141,-26.3141 -29.2049,-44.4721 -21.32186,-101.5596 18.66105,-135.1401 11.63279,-9.77 24.84871,-16.4716 41.37597,-20.9811 11.09246,-3.0266 36.28102,-3.0266 47.37348,0 38.65002,10.5457 64.47903,36.3747 75.02479,75.0248 3.0266,11.0924 3.0266,36.281 0,47.3734 -10.5482,38.659 -36.95786,65.0335 -75.02479,74.9248 -8.9002,2.3126 -29.37723,3.2963 -38.68674,1.8585 z M 218.61774,1154.9515 c -6.32785,-1.5895 -15.33339,-6.9194 -19.70531,-11.6623 -2.24587,-2.4365 -5.50742,-7.4358 -7.24791,-11.1096 -2.86563,-6.0487 -3.16452,-7.5818 -3.16452,-16.2315 0,-9.0151 0.20984,-9.9764 3.73472,-17.1085 4.49813,-9.1014 10.28875,-14.7706 19.58567,-19.1751 6.0408,-2.8619 7.58815,-3.1645 16.17961,-3.1645 8.59146,0 10.13881,0.3026 16.17961,3.1645 9.29692,4.4045 15.08754,10.0737 19.58567,19.1751 3.52914,7.1407 3.73472,8.0853 3.73472,17.1604 0,9.0751 -0.20558,10.0197 -3.73472,17.1604 -6.75758,13.673 -18.76252,21.6955 -33.51604,22.3976 -4.26208,0.2028 -9.49626,-0.07 -11.6315,-0.6065 z M 638.5,1011.4046 c -18.94945,-1.9146 -25.88709,-2.8891 -38.54557,-5.4142 C 528.18707,991.67379 465.0161,951.6223 420.63058,892.29593 395.88089,859.2151 378.31594,820.85318 369.18223,779.93252 c -1.91447,-8.57719 -3.2307,-12.51076 -4.25211,-12.70746 -0.81362,-0.15669 -5.25627,2.19998 -9.87254,5.23706 -18.84034,12.39517 -40.38104,16.87718 -62.54043,13.01291 C 251.69477,778.3562 221,741.88538 221,700.5 c 0,-41.38538 30.69477,-77.8562 71.51715,-84.97503 25.57223,-4.45942 50.36457,2.21798 70.84921,19.08206 4.31811,3.55491 6.18384,4.53567 7.29497,3.83475 0.82113,-0.51798 3.66159,-7.46678 6.31213,-15.44178 7.46119,-22.44934 16.33982,-42.02957 27.05878,-59.67335 2.23308,-3.67572 3.92686,-7.52348 3.76395,-8.55057 -0.21163,-1.33432 -3.08668,-2.9882 -10.07076,-5.79324 C 324.98465,519.76772 272.62924,456.39325 258.124,380 c -3.07525,-16.19608 -4.6307,-35.1847 -3.11426,-38.0182 3.67461,-6.86607 55.23045,-59.30858 79.96374,-81.33898 17.67308,-15.74173 38.43677,-33.09361 54.92564,-45.90046 C 403.64982,204.06223 429.64357,185 430.45657,185 c 0.2866,0 3.12927,-1.98354 6.31705,-4.40786 6.77586,-5.15309 35.12839,-23.49848 50.22638,-32.49879 13.56656,-8.08739 12.10984,-7.23738 22.5,-13.12896 4.95,-2.80682 9.675,-5.50293 10.5,-5.99136 0.825,-0.48842 5.68887,-3.18713 10.80859,-5.99712 10.62062,-5.8292 9.61686,-5.81881 25.69141,-0.26591 21.09005,7.28549 45.54396,20.53801 63.65062,34.49474 67.90254,52.33968 100.49399,137.81148 84.76392,222.29526 -2.04432,10.97972 -5.43403,24.09925 -8.36497,32.37573 -2.55026,7.20151 -2.1567,8.93082 2.20043,9.66877 45.40382,7.68992 78.91948,19.67129 114.02642,40.76281 21.43628,12.87848 47.06474,33.90752 63.44417,52.05818 5.03005,5.57398 9.96123,10.53991 10.95818,11.03541 1.4061,0.69884 3.10317,-0.11164 7.56693,-3.61382 19.67299,-15.43505 42.80219,-26.0442 67.52654,-30.97381 16.03319,-3.19674 42.42236,-3.19674 58.45556,0 31.6888,6.3182 57.2631,20.04472 80.3386,43.12029 23.0756,23.07557 36.8021,48.64984 43.1203,80.33868 3.1968,16.03319 3.1968,42.42233 0,58.45552 -6.3182,31.68884 -20.0447,57.26311 -43.1203,80.33868 -23.0707,23.07077 -48.6144,36.78297 -80.3386,43.1269 -9.2829,1.8563 -14.4324,2.23773 -29.7278,2.20198 -16.16434,-0.0378 -20.12398,-0.38472 -31.363,-2.74795 -9.24379,-1.94369 -13.22301,-2.40592 -14.1425,-1.6428 -0.70373,0.58404 -2.4909,4.98444 -3.97149,9.77866 -9.55634,30.94382 -25.57357,62.34174 -45.15359,88.5127 -48.54661,64.88815 -118.73543,106.12526 -199.49034,117.20397 -10.83738,1.4867 -49.90131,2.7613 -58.37908,1.9047 z M 1683.6348,728.93441 c -50.2716,-6.96139 -92.6834,-41.9506 -108.5415,-89.54531 -5.2265,-15.68615 -6.5487,-24.24516 -6.5487,-42.3891 0,-12.04054 0.4847,-18.7973 1.7935,-25 11.5004,-54.5043 51.1576,-94.16151 105.6619,-105.66194 11.8297,-2.49608 38.1703,-2.49608 50,0 54.5043,11.50043 94.1615,51.15764 105.6619,105.66194 2.4961,11.82969 2.4961,38.17031 0,50 -11.4548,54.28823 -51.3999,94.36782 -105.1619,105.516 -9.5062,1.97123 -33.2091,2.75555 -42.8652,1.41841 z m -839.50707,-438.014 c -37.82932,-4.90346 -68.8459,-37.08637 -73.28439,-76.04014 -5.35971,-47.03871 28.82403,-89.63009 76.27639,-95.03693 54.41798,-6.20052 101.23745,40.61895 95.03693,95.03693 -5.54577,48.67165 -49.01834,82.39293 -98.02893,76.04014 z"
       id="path827"
       inkscape:connector-curvature="0" />
  </g>
</svg>
