<?xml version="1.0" encoding="UTF-8" standalone="no"?>
<svg
   xmlns:dc="http://purl.org/dc/elements/1.1/"
   xmlns:cc="http://creativecommons.org/ns#"
   xmlns:rdf="http://www.w3.org/1999/02/22-rdf-syntax-ns#"
   xmlns:svg="http://www.w3.org/2000/svg"
   xmlns="http://www.w3.org/2000/svg"
   xmlns:sodipodi="http://sodipodi.sourceforge.net/DTD/sodipodi-0.dtd"
   xmlns:inkscape="http://www.inkscape.org/namespaces/inkscape"
   version="1.1"
   id="svg815"
   width="1000"
   height="1000"
   viewBox="0 0 1000 1000"
   sodipodi:docname="neptune.svg"
   inkscape:version="1.0.1 (3bc2e813f5, 2020-09-07)"
   inkscape:export-filename=""
   inkscape:export-xdpi="144"
   inkscape:export-ydpi="144">
  <metadata
     id="metadata821">
    <rdf:RDF>
      <cc:Work
         rdf:about="">
        <dc:format>image/svg+xml</dc:format>
        <dc:type
           rdf:resource="http://purl.org/dc/dcmitype/StillImage" />
        <dc:title />
      </cc:Work>
    </rdf:RDF>
  </metadata>
  <defs
     id="defs819" />
  <sodipodi:namedview
     pagecolor="#ffffff"
     bordercolor="#666666"
     borderopacity="1"
     objecttolerance="10"
     gridtolerance="10"
     guidetolerance="10"
     inkscape:pageopacity="0"
     inkscape:pageshadow="2"
     inkscape:window-width="1633"
     inkscape:window-height="873"
     id="namedview817"
     showgrid="false"
     inkscape:zoom="0.35355339"
     inkscape:cx="962.81494"
     inkscape:cy="856.42891"
     inkscape:window-x="0"
     inkscape:window-y="0"
     inkscape:window-maximized="1"
     inkscape:current-layer="svg815"
     inkscape:document-rotation="0" />
  <g
     id="g825"
     transform="matrix(0.49452699,0,0,0.49452699,0.07015341,0.07021494)">
    <path
       style="fill:#9b9fea"
       d="m 953.5,2020.8867 c -39.47927,-1.8687 -68.21904,-5.0026 -109,-11.8856 C 637.28371,1974.0271 444.61771,1874.621 295.99834,1726.0017 136.92753,1566.9309 34.722774,1358.0338 6.600813,1134.5 c -8.980201,-71.3812 -8.980201,-175.61882 0,-247 C 34.722774,663.96617 136.92753,455.06914 295.99834,295.99834 455.06914,136.92753 663.96617,34.722774 887.5,6.600813 c 71.38118,-8.980201 175.6188,-8.980201 247,0 336.225,42.299219 629.5723,249.665507 780.7649,551.920247 56.2952,112.54182 91.7661,234.99283 103.1179,355.97894 3.7955,40.45236 4.5329,115.5995 1.6729,170.5 -1.2451,23.9014 -4.6623,50.3745 -7.1672,55.524 -0.5415,1.1132 -0.7755,4.7132 -0.5199,8 0.8386,10.7859 -9.1088,64.6604 -19.7831,107.1447 -91.079,362.4989 -374.4179,645.8378 -736.9168,736.9168 -50.6068,12.7151 -111.258,23.0512 -154.6687,26.3583 -39.2094,2.987 -106.66962,3.8756 -147.5,1.9429 z M 782.53388,1502.201 c 1.49337,-0.866 -8.96227,-1.1475 -43.48388,-1.1706 -29.51671,-0.02 -45.10827,0.3113 -44.4752,0.9444 2.02976,2.0298 84.48354,2.2418 87.95908,0.2262 z M 490.5,1233.9842 c 12.1,-0.03 23.8,-0.437 26,-0.9044 l 4,-0.8498 -3.60078,-0.115 c -1.98042,-0.063 -4.90542,-0.5522 -6.5,-1.0865 -1.59457,-0.5343 -13.02422,-1.4598 -25.39922,-2.0568 -12.375,-0.5969 -25.5182,-1.3223 -29.20711,-1.6119 -4.56358,-0.3583 -8.44785,-0.021 -12.1539,1.0568 -2.99574,0.8709 -6.72755,1.5903 -8.2929,1.5987 -1.56535,0.01 -3.48996,0.4228 -4.2769,0.9208 -2.89679,1.8331 14.39766,4.0481 27.43081,3.5131 5.5,-0.2258 19.9,-0.4351 32,-0.465 z m 234.91047,-57.4462 c 1.79266,-0.8212 1.76183,-0.9337 -0.5,-1.8246 -3.90521,-1.5381 -67.84773,-2.2192 -72.24061,-0.7695 -4.169,1.3759 -4.72218,2.6963 -1.41986,3.389 4.00325,0.8397 72.18757,0.1089 74.16047,-0.7949 z M 1496,1074 c 0,-0.6459 -9.117,-0.9294 -25.75,-0.8005 -19.7949,0.1533 -23.0905,0.3384 -14.25,0.8005 20.4022,1.0664 40,1.0664 40,0 z m 271,-63.051 c -2.475,-0.4404 -8.4284,-0.8341 -13.2298,-0.8749 -5.6237,-0.048 -10.1976,-0.6614 -12.8554,-1.7249 -6.9465,-2.7794 -40.3174,-0.4277 -38.3814,2.7049 0.3515,0.5687 14.2184,0.896 34.7756,0.8207 20.6105,-0.075 32.4036,-0.4432 29.691,-0.9258 z"
       id="path839"
       inkscape:connector-curvature="0" />
    <path
       style="fill:#7c81e2"
       d="m 963.5,2021.3513 c -34.11674,-1.8423 -81.7415,-7.2305 -118,-13.3502 C 604.74505,1967.3664 381.77093,1838.4705 230.52636,1652.5 117.70439,1513.7739 43.327688,1350.269 13.998888,1176.5 7.7050126,1139.2097 2.0826984,1090.791 3.42531,1085.4416 c 0.6652682,-2.6507 0.7035804,-2.6608 7.371717,-1.9427 9.901336,1.0663 97.396193,0.6895 106.702973,-0.4595 4.4,-0.5432 13.4,-1.4739 20,-2.0683 6.6,-0.5944 14.21918,-1.7311 16.9315,-2.5259 2.77223,-0.8124 9.34003,-1.4705 15,-1.5029 12.52919,-0.072 32.42324,-1.4637 33.28856,-2.329 1.71321,-1.7132 -2.56726,-2.9009 -13.35766,-3.7062 -38.86421,-2.9007 -62.40133,-3.8969 -91.8624,-3.8884 -33.219814,0.01 -63.441847,1.2461 -69,2.823 l -3,0.8511 4.157767,0.7259 c 2.286772,0.3993 4.962027,1.314 5.945011,2.0328 1.565322,1.1446 1.049051,1.3797 -4.157767,1.8936 -3.269756,0.3227 -10.780081,0.8702 -16.68961,1.2167 -9.8753686,0.579 -10.7928215,0.4806 -11.3406776,-1.2159 -0.3278431,-1.0153 -1.1177736,-2.9263 -1.7554009,-4.2468 -0.83705186,-1.7336 -1.15465171,-17.8565 -1.14252002,-58 C 0.53496779,952.99044 1.4078834,937.58679 7.5630652,888.75925 39.595743,634.65192 167.54509,399.13969 361.7815,236.76084 433.09003,177.14794 513.96655,126.50512 596.03295,90.078552 707.1125,40.774001 810.23061,14.080567 933.25925,2.7832412 954.72863,0.81177715 963.6165,0.55729082 1011,0.55729082 c 47.3835,0 56.2714,0.25448633 77.7408,2.22595038 C 1244.6002,17.095319 1378.2292,58.604933 1513,134.57229 c 95.6494,53.91548 185.7688,127.56772 259.0746,211.73476 87.6523,100.63918 157.1331,223.11577 199.2313,351.19295 25.1773,76.59827 40.0041,149.56283 47.9076,235.75925 1.9583,21.35823 2.2257,30.54308 2.2483,77.24075 0.023,47.6508 -0.2107,55.6241 -2.317,79 -1.2885,14.3 -2.7482,26.7579 -3.2438,27.6843 -0.4955,0.9263 -0.901,3.0934 -0.901,4.8157 0,1.7223 -0.4658,4.0019 -1.0352,5.0657 -0.9841,1.8389 -2.4018,1.9369 -28.75,1.9874 -31.5275,0.06 -73.8691,1.416 -76.436,2.4473 -0.9982,0.401 -1.6283,1.5887 -1.5,2.8272 0.1755,1.6945 -0.5019,2.2967 -3.2788,2.9147 -1.925,0.4285 -5.975,1.3367 -9,2.0183 -3.025,0.6817 -5.4315,1.6894 -5.3479,2.2394 0.084,0.55 4.3587,2.474 9.5,4.2755 9.3421,3.2734 9.3654,3.2761 37.3479,4.2115 15.4,0.5148 38.4144,0.9534 51.143,0.9745 18.9254,0.032 23.2413,0.2945 23.6821,1.4432 0.2964,0.7726 -1.2036,11.6851 -3.3335,24.25 -35.0826,206.9666 -135.2761,401.6298 -282.4916,548.8453 -111.87,111.87 -248.7051,195.7475 -401,245.8059 -76.1462,25.0287 -149.8009,40.0389 -234.5,47.7889 -18.2171,1.6669 -31.7321,2.1136 -71,2.3467 -26.675,0.1583 -51.65,0.1177 -55.5,-0.09 z m -185,-515.366 c 61.06453,-2.4461 75.26795,-3.6295 72.8125,-6.0668 -0.44688,-0.4436 -4.1875,-1.2618 -8.3125,-1.8183 -4.125,-0.5566 -10.65,-1.5467 -14.5,-2.2004 -10.01029,-1.6996 -128.32341,-1.7212 -155.4849,-0.028 -21.77383,1.3571 -28.53202,2.2455 -30.26512,3.9786 -3.06504,3.0651 12.63076,5.0017 49.12233,6.061 40.9925,1.1899 58.40344,1.2048 86.62769,0.074 z M 529,1237.6754 c 49.07463,-0.1561 57.28853,-0.3969 62.5,-1.8321 3.3,-0.9089 8.12701,-1.9464 10.72669,-2.3056 5.1433,-0.7108 6.76545,-1.9301 4.01757,-3.0199 -0.95934,-0.3804 -8.26926,-1.1166 -16.24426,-1.636 -17.61425,-1.1472 -19.68729,-1.698 -6.78495,-1.8029 5.66713,-0.046 11.50308,-0.6859 14.00632,-1.5358 2.74645,-0.9325 11.5843,-1.7659 24.55018,-2.3153 11.1424,-0.472 20.70803,-1.3074 21.25695,-1.8563 0.66406,-0.6641 -1.26522,-1.7347 -5.76523,-3.1993 -5.31412,-1.7295 -9.12022,-2.1987 -17.76327,-2.1896 -6.05,0.01 -17.75,-0.6367 -26,-1.4288 -12.83849,-1.2328 -16.96268,-1.2439 -28.6202,-0.077 -10.12055,1.0132 -18.47126,1.1458 -32.5,0.516 -42.00547,-1.8858 -55.25186,-2.2419 -57.97484,-1.5585 l -2.85587,0.7168 2.46893,1.8623 c 2.25584,1.7016 2.31218,1.9225 0.65281,2.5592 -0.99886,0.3833 -4.37092,0.4512 -7.49347,0.1508 -9.67123,-0.9303 -61.96556,1.0209 -71.45111,2.6661 -9.39256,1.6289 -11.07807,2.232 -10.20166,3.6501 0.69289,1.1211 -1.48839,1.5708 -13.71177,2.827 -10.01679,1.0295 -14.22054,2.4101 -13.54146,4.4473 0.62651,1.8795 6.53223,2.5012 34.72864,3.6558 14.575,0.5968 28.075,1.4977 30,2.002 1.92532,0.5043 13.84791,0.6843 26.5,0.4001 12.65,-0.2842 48.425,-0.5977 79.5,-0.6966 z m 4,-9.7756 c -9.075,-0.4021 -25.05,-1.2042 -35.5,-1.7825 -10.45,-0.5784 -20.9125,-1.0664 -23.25,-1.0844 -2.3375,-0.018 -4.25,-0.4829 -4.25,-1.0329 0,-1.6806 48.14183,-1.2844 56.50037,0.465 3.8498,0.8058 12.52089,1.772 19.26909,2.1472 6.74821,0.3752 12.14821,0.7783 12,0.8958 -1.08456,0.8599 -10.75323,1.0128 -24.76946,0.3918 z m 98.5,-22.9687 c 6.05,-0.4953 17.25714,-1.3951 24.90477,-1.9994 14.64797,-1.1576 19.64847,-2.2785 17.91197,-4.015 -2.36123,-2.3612 -27.15251,-2.9273 -89.31674,-2.0395 -53.75858,0.7678 -65.07829,1.1826 -73.78816,2.7038 -6.5353,1.1413 -9.76029,2.0922 -8.84104,2.6066 3.09859,1.7341 21.40065,2.7816 50.1292,2.8692 16.5,0.05 32.025,0.4724 34.5,0.9381 4.85284,0.913 26.74754,0.3896 44.5,-1.0638 z M 734,1181.1046 c 4.675,-0.4827 12.55,-1.5728 17.5,-2.4224 4.95,-0.8496 11.53718,-1.8268 14.63817,-2.1715 3.10099,-0.3446 6.47599,-1.242 7.5,-1.994 1.76382,-1.2953 1.71608,-1.4229 -0.90675,-2.4243 -1.52272,-0.5814 -9.39772,-1.508 -17.5,-2.0592 -18.96472,-1.2903 -89.1875,-1.3294 -99.67952,-0.056 -4.42855,0.5377 -15.05709,1.4028 -23.619,1.9225 -9.30741,0.565 -16.9475,1.5299 -19,2.3995 l -3.4329,1.4545 2.5,1.0002 c 1.375,0.5501 8.575,1.3316 16,1.7367 7.425,0.4051 14.28835,1.1516 15.2519,1.659 0.96354,0.5074 4.33854,1.3339 7.5,1.8368 6.75076,1.0738 70.88744,0.3942 83.2481,-0.8821 z m 310.7365,-22.2205 c 24.9472,-1.9166 21.0647,-3.1661 -15.1904,-4.8886 -36.5725,-1.7375 -100.33867,-0.6029 -102.77027,1.8287 -1.53101,1.531 10.93696,3.4779 27.22417,4.2512 19.97073,0.9482 71.7343,0.2685 90.7365,-1.1913 z m 497.5006,-74.8551 c 11.3135,-1.5251 18.3139,-3.2759 18.0635,-4.5176 -0.1096,-0.5437 -2.3596,-1.4852 -5,-2.0921 -5.8401,-1.3424 -4.8917,-1.7752 8.6231,-3.935 11.178,-1.7864 15.0763,-2.9061 15.0763,-4.3304 0,-2.3165 -43.7201,-4.4783 -92.5,-4.5737 -35.1992,-0.069 -43.2637,0.2008 -57,1.9057 -19.0102,2.3596 -29.0588,2.4448 -74,0.6272 -23.8923,-0.9663 -47.5923,-1.1812 -79.7212,-0.7229 -59.6627,0.851 -86.4303,2.5166 -96.5065,6.0051 -19.8527,6.8731 40.7394,12.5638 123.2277,11.5731 52.2882,-0.628 66.3698,-0.4979 83.5,0.7713 19.657,1.4565 144.3686,0.8892 156.2371,-0.7107 z m -261.6007,-8.0182 c 3.7701,-1.5217 24.522,-4.0131 32.8234,-3.9405 8.2389,0.072 15.6727,1.7022 8.5402,1.8728 -1.925,0.046 -11.6,0.7498 -21.5,1.5638 -9.9,0.814 -18.9,1.4545 -20,1.4232 -1.9043,-0.054 -1.8977,-0.098 0.1364,-0.9193 z M 1777.5,1018.0465 c 4.4,-0.5294 15.425,-1.6559 24.5,-2.5031 14.3577,-1.3405 33.7325,-3.4282 47.75,-5.1453 2.3375,-0.2864 4.25,-0.892 4.25,-1.3458 0,-1.8885 -13.646,-2.6642 -76.5,-4.349 -51.3095,-1.3753 -171.2615,-1.4531 -176.8012,-0.1148 -2.0907,0.5052 -3.8011,1.3669 -3.801,1.915 4e-4,1.5459 6.2131,2.396 23.6022,3.2296 l 16,0.7669 -0.3089,2.653 c -0.2635,2.2641 0.2172,2.8267 3.2793,3.8372 1.9734,0.6513 11.1124,1.5589 20.3088,2.0169 20.8775,1.0398 106.9326,0.3375 117.7208,-0.9606 z"
       id="path837"
       inkscape:connector-curvature="0" />
    <path
       style="fill:#595eda"
       d="m 960.75,2021.3188 c -5.3625,-0.2152 -9.75,-0.8249 -9.75,-1.355 0,-0.5301 -2.1375,-0.9656 -4.75,-0.9679 -14.83956,-0.013 -67.67403,-6.2404 -101.75,-11.9936 C 661.91804,1976.1764 486.52,1893.4848 348.30705,1773.0716 288.11046,1720.6274 235.80758,1662.8271 188.98171,1597 93.051581,1462.1429 31.147982,1305.0117 9.532296,1141.5 6.5781822,1119.1536 4,1094.7088 4,1089.0461 v -4.0108 l 43.75,0.6216 c 51.868794,0.737 94.11197,-0.705 105.52027,-3.6021 5.70765,-1.4495 12.8088,-1.9619 33.72973,-2.434 33.56043,-0.7574 44.73778,-2.283 41.37354,-5.6473 -0.9149,-0.9149 -8.76535,-2.0854 -33.37354,-4.9761 -15.5314,-1.8244 -71.99927,-3.4911 -112.5,-3.3204 -56.394376,0.2376 -77.3840505,1.8389 -73.6073593,5.6156 1.8359383,1.836 1.2642923,2.7074 -1.7760093,2.7074 -3.000045,0 -3.9157644,-1.5137 -4.234618,-7 -0.1135234,-1.9533 -0.2933002,-1.7346 -0.822121,1 -1.30574156,6.7523 -2.33486429,-36.4927 -1.8195419,-76.45926 0.36409606,-28.23801 0.8444062,-40.06899 1.6374387,-40.33334 0.617216,-0.20574 1.1240374,-2.47407 1.1262698,-5.04073 C 3.0102229,939.08007 5.6978484,910.93143 8.5577987,888 45.02393,595.61014 208.06208,331.75587 452.5,169.54212 569.08201,92.176039 705.18188,38.519204 844.5,14.997672 878.483,9.2602115 931.40591,3.0168979 946.16667,3.004059 949.00797,3.0015877 950.99631,2.5110623 951.25,1.75 c 0.60984,-1.82952892 118.8902,-1.82952892 119.5,0 0.2537,0.7610623 2.242,1.2515877 5.0833,1.254059 7.0866,0.00616 35.2353,2.6937894 58.1667,5.5537397 89.176,11.1218053 178.9852,34.8639213 262.2692,69.3339513 59.1409,24.47754 124.9116,59.34259 174.7308,92.62483 134.1134,89.59581 242.9264,207.63427 321.729,349.0061 63.2844,113.53207 104.6742,239.87451 120.7132,368.47732 2.86,22.93143 5.5476,51.08007 5.5537,58.16667 0,2.8413 0.493,4.82964 1.2541,5.08333 1.6613,0.55377 1.8452,118.4236 0.1865,119.5365 -0.5926,0.3976 -1.6178,8.2834 -2.3156,17.8113 -1.1387,15.5491 -1.7527,20.7129 -3.9122,32.9022 l -0.7087,4 -48,0.6325 c -42.9609,0.566 -62.7034,1.6391 -65.8419,3.5788 -0.5367,0.3317 -8.9673,0.9492 -18.7346,1.3723 -19.1782,0.8306 -26.9235,1.6794 -26.9235,2.9503 0,0.4438 3.0375,1.0831 6.75,1.4207 16.181,1.4714 17.0945,1.8497 13.652,5.6536 -2.0424,2.257 -1.2584,3.4705 2.7616,4.2745 1.7628,0.3526 3.9929,1.3539 4.9557,2.2252 2.8619,2.5901 16.7919,3.3487 74.1625,4.0388 29.5799,0.3559 53.9983,0.9975 54.2631,1.4259 0.7075,1.1448 -6.7992,44.5183 -11.4101,65.9274 -33.2187,154.2402 -98.2744,292.8896 -196.3195,418.4045 -55.263,70.7464 -123.1537,135.9976 -199.3153,191.5664 -122.2085,89.1653 -273.0672,152.2113 -426,178.0314 -33.983,5.7375 -86.9059,11.9808 -101.6667,11.9936 -2.7025,0 -4.8328,0.5025 -5.0613,1.1882 -0.296,0.8879 -12.8837,1.2268 -50.3334,1.3549 -27.46621,0.094 -54.3261,-0.01 -59.6886,-0.2202 z M 763.5,1507.495 c 13.75,-0.8041 31.525,-1.4812 39.5,-1.5046 26.04884,-0.076 56.15392,-2.6134 60.12293,-5.0664 2.79324,-1.7263 1.94097,-1.9126 -25.62293,-5.6007 -11.26098,-1.5067 -22.02952,-1.7398 -80.5,-1.742 -67.54154,0 -97.67296,1.0049 -117.3238,3.9228 -12.06588,1.7916 -12.58524,2.7565 -3.1762,5.9011 6.78398,2.2673 26.25967,3.6021 65.81293,4.5106 18.25289,0.4193 33.86207,0.8251 34.68707,0.9018 0.825,0.077 12.75,-0.5185 26.5,-1.3226 z M 487,1240.9626 c 2.07041,-1.1872 11.09179,-1.4564 52.5,-1.5661 31.9918,-0.085 51.80082,-0.5266 55,-1.2268 2.75,-0.6018 8.375,-1.6003 12.5,-2.2188 10.1293,-1.5189 12.88233,-4.0704 7.5,-6.9509 -1.375,-0.7359 -2.5,-1.6507 -2.5,-2.033 0,-0.8794 16.37511,-1.8931 46.88658,-2.9025 13.1225,-0.4341 24.4241,-1.1385 25.11467,-1.5653 2.88189,-1.7811 -3.12933,-2.8247 -20.42416,-3.5459 -12.9331,-0.5394 -19.3576,-1.2321 -22.57709,-2.4344 -2.79518,-1.0438 -10.05916,-2.0385 -19.17384,-2.6255 -8.07061,-0.5198 -17.97061,-1.7857 -22,-2.8132 l -7.32616,-1.8681 4.5,-0.5898 c 2.475,-0.3244 16.875,-1.072 32,-1.6612 31.97245,-1.2456 42.83341,-2.3515 48.73553,-4.9623 8.08565,-3.5766 4.71421,-5.5235 -12.05622,-6.9619 -14.00845,-1.2015 -42.707,-1.5779 -48.67931,-0.6385 -2.475,0.3894 -23.85,0.8707 -47.5,1.0697 -24.01382,0.2021 -45.87,0.836 -49.5,1.4357 -3.575,0.5906 -13.49795,1.5086 -22.05101,2.04 -15.38651,0.956 -18.94899,1.5303 -18.94899,3.0548 0,2.3231 22.25215,3.8061 69.5,4.6319 34.40976,0.6014 43.98021,1.3787 34.97073,2.8402 -2.1839,0.3543 -7.34573,1.3493 -11.47073,2.2111 -9.30774,1.9447 -13.50393,2.0146 -60,0.9994 -30.84349,-0.6735 -41.58266,-0.5293 -60.5,0.8127 -12.65,0.8973 -31.775,2.0265 -42.5,2.5093 -23.28707,1.0483 -29.83705,1.7384 -32.5,3.4239 -3.37764,2.1379 -11.61038,4.4264 -19.93426,5.5413 -4.36385,0.5845 -9.31385,1.866 -11,2.8478 -3.48804,2.031 -4.55466,5.5903 -1.97219,6.5813 4.11422,1.5788 16.88308,2.6411 43.83866,3.6473 16.52942,0.6169 29.794,1.5411 30.94252,2.1557 5.37347,2.8758 63.80776,3.5248 68.62527,0.7621 z m 286,-54.919 c 25.24752,-0.8472 33.52748,-1.9161 31.3911,-4.0525 -1.24129,-1.2413 -13.34037,-2.9465 -21.08208,-2.9713 -6.56611,-0.021 -8.68415,-1.2135 -5.33703,-3.0048 4.62945,-2.4776 1.78428,-5.2974 -6.47199,-6.4143 -9.61068,-1.3 -78.05937,-2.4393 -95.5,-1.5895 -39.12457,1.9064 -53.97892,3.0591 -63.5,4.9275 -5.5,1.0794 -12.1375,2.2608 -14.75,2.6254 -2.6125,0.3646 -4.75,1.0007 -4.75,1.4135 0,1.1906 7.14345,1.8696 27.00779,2.5671 15.32746,0.5382 18.92337,0.951 21.01155,2.4117 1.38564,0.9693 3.63564,2.12 5,2.557 6.48221,2.0762 83.16941,3.0003 126.98066,1.5302 z m 273.0554,-25.0238 c 25.9669,-0.949 33.9446,-1.6643 33.9446,-3.0437 0,-1.4394 -17.4591,-3.965 -34.4247,-4.9798 -9.3085,-0.5567 -17.1123,-1.1999 -17.3416,-1.4293 -0.4613,-0.4613 3.6526,-1.0231 17.5577,-2.3978 13.9533,-1.3795 14.1261,-2.8756 0.5058,-4.3797 -11.256,-1.2429 -101.82655,-1.242 -114.08013,0 -14.73796,1.4953 -14.17406,3.136 1.54505,4.4956 14.51242,1.2552 15.50018,1.9301 4.23788,2.8957 -28.03376,2.4034 -30.39195,2.7594 -28.80315,4.3482 0.80123,0.8012 22.79228,3.4942 35.80315,4.3843 16.59471,1.1354 71.3104,1.1924 101.0554,0.1053 z M 1504.5,1087.9689 c 24.0026,-0.7178 37.9696,-1.5995 47.5,-2.9986 7.425,-1.0901 21.0186,-2.866 30.2081,-3.9466 18.1886,-2.1387 21.7919,-2.8108 21.7919,-4.0647 0,-0.9577 -1.3947,-1.4039 -9.2635,-2.9638 -3.1699,-0.6284 -5.528,-1.5235 -5.2403,-1.989 0.2877,-0.4655 4.7636,-1.8124 9.9465,-2.9931 9.5741,-2.1811 12.8819,-4.0885 10.7638,-6.2066 -1.9973,-1.9973 -10.2227,-2.6835 -46.404,-3.8708 -40.0403,-1.3139 -98.9052,-0.042 -113.9137,2.4606 -6.3988,1.0672 -26.5357,1.553 -84.8888,2.0479 -121.9115,1.0341 -204.4673,2.3775 -218.5,3.5557 -24.5608,2.0622 -36.6698,4.885 -40.4393,9.427 -3.1036,3.7396 5.1615,7.0904 21.4393,8.6917 5.6368,0.5545 63.667,1.1823 133,1.4389 67.65,0.2503 135.375,0.8203 150.5,1.2667 41.675,1.23 56.4384,1.2528 93.5,0.1447 z m 285,-68.4631 c 13.75,-0.8689 27.925,-2.2634 31.5,-3.0988 3.575,-0.8353 14.0164,-2.1588 23.2031,-2.9409 9.1867,-0.7821 18.1867,-2.0516 20,-2.8211 l 3.2969,-1.399 -2.9684,-1.1813 c -5.2455,-2.0875 -23.9179,-3.1295 -74.0316,-4.1316 -26.95,-0.5389 -56.2,-1.3841 -65,-1.8782 -20.9397,-1.1757 -80.5408,-1.2305 -106.5,-0.098 -30.033,1.3104 -44,3.4337 -44,6.689 0,2.0656 3.9806,3.2348 13.2546,3.8932 11.8941,0.8444 13.2126,1.1928 11.648,3.0781 -1.838,2.2146 0.019,3.0707 8.5203,3.9282 26.4893,2.6718 138.5586,2.6471 181.0771,-0.04 z M 516,660.99634 c 24.01629,-0.90663 29,-1.42649 29,-3.02507 0,-1.7759 -22.34895,-3.59466 -56.43134,-4.59239 -25.19844,-0.73767 -27.8771,-1.63484 -8.29108,-2.77695 6.47767,-0.37773 12.77028,-1.05401 13.98358,-1.50283 l 2.20599,-0.81606 -2.48357,-0.86649 c -6.32728,-2.20752 -111.79082,0.18708 -115.96533,2.63304 -0.98586,0.57765 -1.07993,0.90026 -0.26825,0.92 0.6875,0.0167 1.25,0.41834 1.25,0.89248 0,0.47414 -3.4875,1.16416 -7.75,1.53338 -13.26414,1.14896 -17.0401,2.31991 -12.76775,3.95936 7.89337,3.02897 110.75322,5.40691 157.51775,3.64153 z"
       id="path835"
       inkscape:connector-curvature="0" />
    <path
       style="fill:#3c41d1"
       d="m 960.5,2021 -10,-0.6127 9.5,-0.3403 9.5,-0.3403 -13.5,-0.8009 C 801.6008,2009.7456 654.18629,1966.7933 519.52268,1891.7291 461.02774,1859.1229 407.59427,1822.6749 361.04269,1783.6269 319.78339,1749.0182 270.51153,1700.2474 245.6997,1669.457 208.49233,1623.2841 189.49392,1597.6912 167.77911,1564.4896 82.679087,1434.3727 28.873185,1288.43 9.5833336,1135.4005 c -2.792467,-22.1531 -5.1987697,-48.1288 -4.5188017,-48.7798 0.2395075,-0.2294 15.5104681,0 33.9354681,0.5162 39.131718,1.09 197.74563,0.7391 200.11669,-0.4427 1.54573,-0.7705 8.90837,-15.9562 8.89144,-18.3389 -0.01,-1.4078 -16.25767,-2.0892 -68.00813,-2.8524 -20.625,-0.3041 -45.15,-1.0476 -54.5,-1.6522 -9.35,-0.6047 -40.7375,-1.1187 -69.75,-1.1423 L 3,1062.6654 2.8318923,1057.5827 2.6637846,1052.5 l -0.5818923,6 -0.5818923,6 -0.75,-9.4036 C -0.16367438,1043.6406 -0.01582,976.73257 0.95683079,961.5 L 1.6592176,950.5 1.9762673,960 2.293317,969.5 3.0942452,956 C 13.850787,774.69371 71.169261,603.19102 171.53773,452 211.17369,392.294 250.13806,344.92574 304,290.96811 366.2741,228.58338 438.30171,174.54429 519.52268,129.2711 538.04857,118.94463 575.5737,99.855897 580,98.506777 c 1.375,-0.419095 9.35386,-3.853554 17.73079,-7.632131 C 710.27562,40.109145 831.10732,10.50388 956,3.0942452 L 969.5,2.293317 960,1.9762673 l -9.5,-0.3170497 11,-0.70238681 c 14.25091,-0.90996805 84.7491,-0.90996805 99,0 l 11,0.70238681 -9.5,0.3170497 -9.5,0.3170497 13.5,0.8009282 c 154.1733,9.1467958 301.7669,52.1071818 436,126.9074448 9.625,5.36345 20.875,11.51768 25,13.67606 4.125,2.15839 15.375,8.92328 25,15.03308 86.9059,55.16658 163.8135,122.06607 229.1028,199.28917 12.606,14.91023 29.7398,36.63215 32.0521,40.63512 0.9101,1.57568 6.4643,9.38988 12.3426,17.36488 52.2221,70.84934 98.8384,157.53716 131.4798,244.5 34.4705,91.83601 55.9167,194.16956 61.9285,295.5 l 0.8009,13.5 0.317,-9.5 0.3171,-9.5 0.7024,11 c 0.3863,6.05 0.7024,28.325 0.7024,49.5 0,21.175 -0.3161,43.45 -0.7024,49.5 l -0.7024,11 -0.3595,-9.5 c -0.2811,-7.4278 -0.4255,-8.1913 -0.6621,-3.5 -0.4401,8.7273 -3.2948,46.1313 -3.9755,52.09 l -0.5815,5.09 -58.6311,0.6489 c -74.9905,0.83 -123.0707,2.8146 -150.1906,6.1996 -23.7874,2.9689 -23.8207,5.7617 -0.1078,9.0362 16.5992,2.2922 16.5468,2.5842 -0.8604,4.794 -12.6168,1.6017 -18.9723,3.1564 -18.9723,4.6413 0,2.5376 18.7084,5.282 47.5,6.9679 23.4274,1.3718 45.1218,2.9254 57,4.0819 4.95,0.482 33.8697,1.1885 64.2659,1.5701 l 55.2659,0.6938 -0.5058,3.0931 c -8.8753,54.2834 -16.9311,91.2033 -29.0774,133.2619 -35.0355,121.3161 -96.9128,242.3357 -174.5225,341.3313 -6.6834,8.525 -13.5634,17.4984 -15.2889,19.9408 -1.7254,2.4424 -8.3386,10.5424 -14.6958,18 -74.9634,87.9383 -169.0897,164.5854 -273.8972,223.0346 -19.2477,10.734 -62.8687,32.6944 -74.0442,37.2764 -3.575,1.4658 -15.95,6.5622 -27.5,11.3254 -110.2138,45.452 -218.2749,70.4332 -334.5,77.3286 l -13.5,0.8009 9.5,0.317 9.5,0.3171 -11,0.7024 c -13.2698,0.8473 -85.97764,0.8159 -100,-0.043 z m -213,-510.6008 c 12.53701,-1.8147 39.379,-3.354 59,-3.3837 20.40966,-0.031 43.68386,-1.628 57.33378,-3.9345 15.07424,-2.5473 15.99582,-3.4898 5.0312,-5.1455 -35.79737,-5.4057 -54.64234,-6.2011 -132.36498,-5.5871 -69.86294,0.5519 -104.84279,2.2514 -117.75,5.7207 -4.8062,1.2919 -4.75357,2.5499 0.16837,4.0246 2.26286,0.678 4.11697,1.9334 4.38844,2.9715 0.27906,1.0672 2.03924,2.2176 4.33164,2.8312 6.10643,1.6343 29.44833,3.2072 60.36155,4.0673 31.94809,0.889 44.9027,0.5484 59.5,-1.5645 z m -290.90086,-265.4 c 67.51238,-1.4719 114.50815,-2.9698 126.40086,-4.0288 5.775,-0.5143 21.7315,-1.3952 35.45889,-1.9577 33.47282,-1.3715 47.54111,-3.13 47.54111,-5.9426 0,-0.5387 -1.57106,-1.2742 -3.49125,-1.6344 -6.17626,-1.1587 -2.80995,-2.221 9.23922,-2.9157 17.61272,-1.0154 24.09447,-2.2096 27.48731,-5.0645 1.60499,-1.3505 3.89614,-2.4624 5.09145,-2.4708 1.1953,-0.01 2.84827,-0.4584 3.67327,-1 1.25822,-0.826 1.27787,-1.1279 0.12195,-1.8729 -2.38527,-1.5373 -10.46443,-2.176 -38.95214,-3.0796 -20.40095,-0.647 -29.64006,-1.3416 -35.16981,-2.644 -6.68413,-1.5743 -7.17365,-1.8418 -4.5,-2.459 1.65,-0.3809 9.075,-0.7473 16.5,-0.8141 16.47015,-0.1483 55.63656,-1.7311 78,-3.1523 27.59318,-1.7534 46,-4.5396 46,-6.9628 0,-2.6902 -18.92425,-5.2816 -55,-7.5315 -14.025,-0.8747 -25.95,-1.7524 -26.5,-1.9505 -0.55,-0.198 11.15,-0.4011 26,-0.4512 68.78199,-0.2321 176.41106,-4.6303 198.5,-8.1116 31.35823,-4.9423 5.83441,-9.493 -73,-13.0153 -12.375,-0.5529 -56.36145,-1.2831 -97.74766,-1.6225 -66.6462,-0.5467 -76.07666,-0.4352 -82.5,0.9754 -3.98879,0.876 -14.45234,1.8614 -23.25234,2.1899 -8.8,0.3285 -18.025,1.0182 -20.5,1.5326 -2.475,0.5144 -10.125,1.596 -17,2.4035 -6.875,0.8075 -15.0875,1.7806 -18.25,2.1624 -3.1625,0.3818 -5.75,1.0012 -5.75,1.3764 0,1.3607 18.96868,3.243 39.72378,3.9419 11.67308,0.3931 21.53626,1.0272 21.91818,1.4091 0.38191,0.3819 0.11151,1.7835 -0.6009,3.1147 -0.96771,1.8082 -3.47599,3.1312 -9.91817,5.2315 l -8.62289,2.8112 -45,0.6554 c -66.10234,0.9627 -111.5,2.9463 -111.5,4.872 0,1.4984 9.63846,4.8384 17,5.8909 4.125,0.5897 14.02,1.5646 21.98889,2.1662 7.96889,0.6017 14.63606,1.2411 14.81594,1.421 0.44611,0.4461 -14.97936,1.2601 -48.30483,2.5489 -15.4,0.5956 -30.25,1.2661 -33,1.49 -4.44271,0.3617 -20.25533,1.2339 -56.25,3.1028 -8.62588,0.4479 -11.25,0.9065 -11.25,1.9664 0,2.3808 -4.07602,2.5769 -20.15923,0.9702 -18.26698,-1.825 -36.2128,-2.1213 -40.04989,-0.6612 -1.56001,0.5936 -3.51731,2.6385 -4.6145,4.8211 -2.35566,4.686 -3.33256,12.6992 -1.80128,14.7754 2.42983,3.2944 27.27303,6.4267 59.1249,7.4547 35.1623,1.1348 48.40897,1.1428 98.09914,0.059 z m 623.51216,-82.9727 c 11.9467,-1.0112 14.8887,-1.6211 14.8887,-3.0865 0,-0.4653 -1.6875,-1.3275 -3.75,-1.9159 -3.3223,-0.948 -28.0094,-5.0241 -30.4282,-5.0241 -0.5169,0 -0.7037,-0.3821 -0.4151,-0.849 0.2886,-0.467 4.2527,-1.1126 8.809,-1.4346 8.539,-0.6034 11.7843,-1.3515 11.7843,-2.7164 0,-1.5611 -3.8291,-2.1543 -23.5,-3.6405 -27.5052,-2.0781 -108.28081,-2.0835 -136.5,-0.01 -20.10061,1.4776 -24,2.0706 -24,3.6497 0,1.292 2.88367,2.0157 10.64752,2.672 4.04386,0.3418 7.35248,0.9253 7.35248,1.2967 0,0.669 -12.44015,2.4389 -25.03199,3.5615 -11.12021,0.9913 -11.97017,3.6454 -1.56437,4.8847 4.61785,0.5501 18.10318,1.2706 67.59636,3.612 21.08804,0.9976 108.8652,0.2901 124.1113,-1.0004 z M 1606,1092.0795 c 58.0591,-2.6441 86,-5.6006 86,-9.0998 0,-2.9326 -20.572,-5.5711 -61.7128,-7.915 -16.4831,-0.9391 -23.1918,-2.3542 -16.2579,-3.4295 1.9089,-0.296 12.0207,-1.0425 22.4707,-1.659 28.9368,-1.707 47.5,-4.4413 47.5,-6.9965 0,-2.3573 -13.2027,-4.5004 -39.6314,-6.4332 -44.0658,-3.2227 -78.0397,-4.0138 -172.3686,-4.0138 -94.3289,0 -128.3028,0.7911 -172.3686,4.0138 -21.0346,1.5383 -29.607,2.6441 -38.7757,5.002 -4.2981,1.1053 -12.5505,1.4515 -34.5992,1.4515 -33.4647,0 -107.7069,1.5043 -149.7565,3.0343 -55.4107,2.0163 -88.5,5.3684 -88.5,8.9657 0,3.6828 33.4501,7.0061 90.5,8.9914 17.6,0.6124 34.7,1.5326 38,2.0449 16.9773,2.6352 38.7538,3.2775 115.5,3.4064 52.6297,0.088 87.8066,0.5823 101.6044,1.4264 11.6074,0.7102 33.8824,1.6643 49.5,2.1204 36.5373,1.0669 193.5622,0.4259 222.8956,-0.91 z m 244,-69.9931 c 58.2392,-2.6701 86,-5.6098 86,-9.1067 0,-4.7633 -59.9295,-9.162 -150,-11.0097 -26.675,-0.5472 -62.45,-1.4542 -79.5,-2.0157 -49.0304,-1.61461 -117.2368,0.4815 -130.3636,4.0062 -2,0.5371 -12.8023,1.6655 -24.005,2.5077 -27.1515,2.0412 -40.1314,4.1538 -40.1314,6.5318 0,0.4647 1.4625,1.3149 3.25,1.8893 10.8303,3.4806 41.9497,5.6477 122.25,8.5133 19.8914,0.7098 191.4918,-0.353 212.5,-1.3162 z M 413.51855,684.99782 c 33.22836,-1.07565 42.65242,-2.16018 40.18776,-4.62485 -3.03559,-3.03559 -66.35511,-4.94334 -113.45631,-3.41832 -39.16517,1.26807 -47.74991,2.26426 -43.28618,5.02299 2.31448,1.43043 12.28672,2.25949 36.03618,2.99595 34.58685,1.07253 48.01041,1.07656 80.51855,0.0242 z m 65.88838,-19.00622 c 38.94065,-1.05702 58.95682,-2.34551 70.45182,-4.53512 4.0473,-0.77095 16.1973,-1.87751 27,-2.45902 C 603.13715,657.58289 615,656.02856 615,654 c 0,-2.77741 -20.23299,-4.62756 -64.63461,-5.91033 -25.23395,-0.72901 -27.37739,-0.93397 -30.60072,-2.9261 -4.4318,-2.739 -13.01265,-3.86885 -38.76467,-5.1042 -67.13091,-3.22033 -181.38473,-1.48136 -198.25,3.01741 -11.91135,3.17733 4.2854,5.79193 46.52426,7.51031 9.22585,0.37533 17.01543,1.07262 17.31018,1.54953 0.99375,1.60793 -4.76142,2.90138 -17.45666,3.92334 C 315.81808,657.13137 309,658.46602 309,660 c 0,5.09856 88.57483,8.2129 170.40693,5.9916 z"
       id="path833"
       inkscape:connector-curvature="0" />
    <path
       style="fill:#2f34c8"
       d="m 1395,1927.8737 c -64.3687,-16.3206 -126.4697,-32.3944 -200.5,-51.8959 -46.2,-12.1702 -109.875,-28.6403 -141.5,-36.6001 -31.625,-7.9597 -66.05,-16.9027 -76.5,-19.8732 -81.0689,-23.0444 -154.67762,-33.4869 -236.13907,-33.4999 -95.35832,-0.015 -182.94122,14.3019 -276.03859,45.1238 -31.77184,10.5188 -26.40438,10.9221 -46.2465,-3.4754 -49.49685,-35.9151 -100.49107,-80.7612 -140.4216,-123.4916 -23.61917,-25.2752 -36.71975,-40.3888 -36.41097,-42.0057 0.15339,-0.8031 6.89866,-3.3459 16.75673,-6.3168 18.885,-5.6914 76.12368,-24.6976 151.5,-50.3058 104.3438,-35.4496 163.77466,-53.8771 227,-70.3852 82.703,-21.5937 106.28636,-25.3201 171.5,-27.0988 24.89495,-0.6789 42.03378,-1.6018 48.5,-2.6116 5.5,-0.8588 12.925,-1.9935 16.5,-2.5215 7.8155,-1.1543 10,-1.7827 10,-2.8764 0,-1.4188 -2.9095,-2.0528 -16.40895,-3.5752 -7.20008,-0.812 -14.21605,-1.7542 -15.59105,-2.0937 l -2.5,-0.6173 2.5,-0.8294 c 2.95273,-0.9796 29.72898,-4.209 53,-6.3922 50.39127,-4.7274 100.1632,-6.4836 131,-4.6221 135.0673,8.1533 335.446,51.3237 647.5,139.4998 88.1097,24.8969 105.8443,30.1235 106.24,31.3105 0.8178,2.4535 -37.4538,45.1362 -65.7069,73.28 -76.9142,76.6168 -162.6475,138.2927 -259.7531,186.8643 -30.2278,15.1198 -41.6627,20.1534 -45.5363,20.0447 -1.784,-0.05 -12.0187,-2.3159 -22.7437,-5.0353 z M 329.5,1216.3659 c -32.86644,-2.6103 -63.8073,-12.0358 -79.03669,-24.077 -8.60724,-6.8054 -13.34758,-18.7712 -16.95114,-42.7889 -3.4573,-23.0428 0.11102,-55.0432 6.96928,-62.5 2.92591,-3.1813 9.51855,-17.5153 9.51855,-20.6957 0,-6.8941 24.30488,-33.1169 41,-44.2355 9.87127,-6.574 32.37311,-17.981 44.5,-22.55871 33.6824,-12.71449 76.29889,-14.97805 121.2946,-6.4425 33.63669,6.38078 83.21595,22.60531 100.42531,32.86361 21.7651,12.9739 47.81887,34.199 70.54576,57.4712 34.91967,35.7576 49.22081,64.438 38.88694,77.9864 -1.50365,1.9714 -3.72811,4.1271 -4.94326,4.7905 -1.28154,0.6996 -11.02819,1.7111 -23.20935,2.4085 -11.55,0.6613 -23.7,1.7051 -27,2.3194 -3.3,0.6144 -13.875,1.7527 -23.5,2.5296 -17.2829,1.3951 -21,2.0258 -21,3.5632 0,0.4323 0.7875,1.0961 1.75,1.4752 3.07035,1.2091 35.25848,3.4956 49.41821,3.5105 7.51752,0.01 14.40443,0.2968 15.30425,0.6421 3.05476,1.1722 -2.25027,5.1396 -10.36387,7.7507 -7.54984,2.4296 -8.0024,2.453 -58.60859,3.0264 -51.62805,0.585 -99.68491,2.1206 -107,3.419 -5.19586,0.9223 -5.3148,3.3134 -0.2175,4.3725 2.08037,0.4322 5.00537,1.4172 6.5,2.1889 1.49462,0.7716 7.8925,1.9457 14.2175,2.6089 6.325,0.6633 12.11983,1.5484 12.8774,1.9669 1.85023,1.0222 -11.72655,2.0138 -40.69619,2.9721 -13.15978,0.4354 -24.43856,1.1078 -25.06394,1.4943 -0.62538,0.3865 -15.45464,1.0716 -32.95392,1.5224 -26.18792,0.6746 -32.36948,1.1053 -34.94045,2.4348 -3.54388,1.8326 -4.41756,1.8321 -27.7229,-0.019 z M 1397,435.906 c -110.0568,-2.20041 -232.2447,-15.05354 -374.5,-39.3942 -43.552,-7.45199 -104.01649,-18.64996 -189,-35.00262 -134.18757,-25.82058 -183.4954,-34.87531 -245,-44.991 -83.23867,-13.6903 -159.7644,-23.70668 -229,-29.9736 -15.4,-1.39395 -32.05,-2.91101 -37,-3.37125 l -9,-0.83681 8.92847,-8.76897 c 36.28752,-35.63927 98.66012,-83.841 150.65647,-116.42779 C 513.16931,132.01838 575.28856,99 582.46643,99 c 1.98573,0 12.25563,1.56298 22.82199,3.4733 124.7221,22.54873 287.018,39.53345 449.21158,47.01124 65.0257,2.99795 89.0726,3.61268 164,4.19244 111.055,0.8593 188.6029,-1.59051 279.3341,-8.82442 l 26.3341,-2.0996 5.7226,2.95141 c 3.1475,1.62327 14.1079,8.28738 24.3564,14.80913 85.2831,54.27063 165.3727,124.74928 230.987,203.268 18.0217,21.56603 26.0266,32.09649 25.4805,33.5197 -0.266,0.69301 -4.4731,2.04366 -9.3491,3.00145 C 1660.4525,427.98178 1538.3548,438.73217 1397,435.906 Z"
       id="path831"
       inkscape:connector-curvature="0" />
    <path
       style="fill:#1318b7"
       d="m 1407.5,1928.8358 c -33.5231,-8.2359 -124.3312,-31.6851 -211,-54.486 -53.35,-14.0354 -121.75,-31.7662 -152,-39.4017 -30.25,-7.6355 -64.45,-16.5478 -76,-19.8051 -50.25247,-14.1722 -102.47052,-23.5567 -160.5,-28.8447 -28.07553,-2.5584 -109.0362,-2.5449 -137,0.023 -77.19597,7.0884 -141.27322,20.4815 -211.83108,44.2761 l -24.33108,8.2052 -6.66892,-4.5248 c -10.61806,-7.2043 -43.51001,-32.1547 -57.36187,-43.5122 -29.8329,-24.4609 -64.63542,-56.4643 -85.8495,-78.9447 -28.55212,-30.2566 -43.59626,-47.6312 -42.27481,-48.8237 0.44949,-0.4056 4.19226,-1.7254 8.31726,-2.9329 23.32744,-6.8284 64.18664,-20.271 134,-44.0858 137.70643,-46.9746 205.47821,-67.6979 284.5,-86.9949 57.01929,-13.9239 75.26601,-16.9784 101.49387,-16.9896 19.74114,-0.01 65.2186,-1.7818 77.68687,-3.0292 5.5994,-0.5602 12.3494,-1.6756 15,-2.4786 2.65059,-0.803 8.64426,-1.9715 13.31926,-2.5967 9.45824,-1.2648 13,-2.3244 13,-3.8893 0,-1.725 -4.24707,-2.8286 -15.67659,-4.0738 -5.95288,-0.6486 -11.1915,-1.5129 -11.64138,-1.9207 -1.29123,-1.1704 29.52648,-4.6263 66.81797,-7.4928 51.87328,-3.9875 87.4952,-4.2721 126.5,-1.0107 145.3279,12.1515 361.3745,61.2519 702.25,159.5987 18.4798,5.3316 28.75,8.7545 28.75,9.5819 0,0.7079 -5.3139,7.4814 -11.8086,15.0523 -76.0164,88.6113 -168.5354,163.9235 -272.7141,221.9941 -28.7077,16.0021 -78.4556,40.4477 -81.7336,40.163 -0.684,-0.059 -6.6437,-1.4347 -13.2437,-3.0562 z m 187,-259.7707 c 17.998,-1.3191 23.8603,-2.0431 25.5964,-3.1611 5.9671,-3.843 -21.5326,-5.7502 -94.5964,-6.5607 -66.0943,-0.7331 -129.0966,1.1917 -138.75,4.239 -2.1511,0.6791 -2.2643,2.0064 -0.2375,2.7841 2.8258,1.0844 23.0499,2.7376 44.0534,3.6012 26.7594,1.1003 145.5298,0.4464 163.9341,-0.9025 z m -1270,-454.1365 c -20.62892,-2.2346 -47.25578,-9.6358 -62,-17.2336 -10.28731,-5.3011 -18.54777,-13.3112 -20.83646,-20.2049 -8.80577,-26.5236 -10.02463,-59.2408 -3.09502,-83.0778 2.72915,-9.3879 1.42335,-9.0322 37.93148,-10.3333 37.11989,-1.3228 58.21821,-2.669 71.32173,-4.5506 9.142,-1.3127 11.10806,-1.9319 9.91666,-3.1233 -2.09885,-2.0989 -34.76412,-4.7887 -78.21934,-6.4411 -14.83952,-0.5642 -27.3703,-1.4153 -27.84618,-1.8911 -2.27062,-2.2707 10.30246,-19.2923 22.59786,-30.5934 15.81925,-14.54 44.14359,-30.4037 68.784,-38.52404 50.26854,-16.56626 107.18959,-11.5066 186.45937,16.57424 17.8204,6.3128 21.92985,8.4028 38.4859,19.5741 46.47975,31.3625 89.07224,77.3255 98.49354,106.2878 2.58035,7.9323 2.68742,8.8904 1.4768,13.2143 -1.80976,6.4639 -7.54177,12.3769 -12.0655,12.4465 -1.87266,0.029 -11.27984,0.4664 -20.90484,0.9725 -9.625,0.506 -27.625,1.3756 -40,1.9325 -43.03681,1.9366 -72.79453,4.5038 -74.73839,6.4477 -1.19081,1.1908 0.77336,1.8105 9.91666,3.1289 13.65118,1.9684 73.47523,5.4019 95.07173,5.4565 4.61779,0.012 4.84815,1.6527 0.48775,3.4746 -2.61957,1.0945 -18.62643,1.47 -81.25,1.9058 -94.51732,0.6577 -145.08961,2.4684 -170.30948,6.0977 -9.14268,1.3158 -11.10775,1.9353 -9.91666,3.1263 2.0347,2.0347 32.97154,4.6292 77.23839,6.4775 14.3,0.5971 26.4275,1.5001 26.95,2.0066 0.58389,0.5661 -0.76492,0.9644 -3.5,1.0336 -2.4475,0.062 -10.75,0.463 -18.45,0.8912 -7.7,0.4283 -27.275,1.2837 -43.5,1.9009 -16.225,0.6173 -34.45,1.6277 -40.5,2.2454 -15.05041,1.5366 -28.46444,1.8114 -38,0.7785 z M 1373,433.3417 C 1217.9533,426.83113 1096.8751,410.31426 839.09372,360.50887 766.11457,346.40873 744.73006,342.31773 714,336.57762 562.87004,308.34784 454.8969,292.71193 344.25323,283.03349 331.4675,281.91507 320.105,281 319.00323,281 317.90145,281 317,280.36638 317,279.59196 c 0,-1.61504 23.56709,-23.09652 44.95049,-40.97253 60.2226,-50.34464 126.51565,-93.83995 196.01573,-128.6072 l 20.46621,-10.238184 31.53379,5.575304 c 115.8737,20.48694 250.11942,35.32487 394.53378,43.60706 84.3255,4.83609 123.9968,6.07649 215,6.72237 116.3679,0.8259 190.9401,-1.60197 287.1035,-9.34731 l 21.1034,-1.69975 12.8966,7.89729 c 78.1277,47.84204 156.6802,112.7946 215.8965,178.51796 26.1334,29.00511 54.2813,63.63327 52.8099,64.96777 -0.4455,0.40397 -11.6099,2.82345 -24.8099,5.37663 -89.7427,17.35827 -174.6371,27.2585 -271,31.60352 -19.1035,0.86138 -122.1861,1.11583 -140.5,0.34681 z m 104.5,-111.27656 c 17.998,-1.31913 23.8603,-2.04314 25.5964,-3.16117 5.9671,-3.84297 -21.5326,-5.75018 -94.5964,-6.56064 -66.0943,-0.73314 -129.0966,1.19166 -138.75,4.23901 -2.1511,0.67904 -2.2643,2.00633 -0.2375,2.78407 2.8258,1.08437 23.0499,2.73762 44.0534,3.60123 26.7594,1.10027 145.5298,0.44641 163.9341,-0.9025 z"
       id="path829"
       inkscape:connector-curvature="0" />
    <path
       style="fill:#181c81"
       d="m 328.5,1215.3372 c -5.96208,-0.5778 -24.89415,-4.1802 -34,-6.4696 -23.88981,-6.0064 -41.79566,-15.0884 -48.98766,-24.8471 -4.85007,-6.581 -10.19965,-29.7973 -11.18026,-48.5205 -0.9443,-18.0299 3.37681,-44.0562 8.02136,-48.3131 1.98102,-1.8158 4.61433,-2.0554 34.14656,-3.1079 37.11989,-1.3228 58.21821,-2.669 71.32173,-4.5506 9.142,-1.3127 11.10806,-1.9319 9.91666,-3.1233 -2.09885,-2.0989 -34.76412,-4.7887 -78.21934,-6.4411 -14.83952,-0.5642 -27.36871,-1.4137 -27.84264,-1.8876 -2.03934,-2.0393 8.16671,-15.7164 21.01189,-28.1579 12.17028,-11.7878 25.69721,-20.8616 44.39719,-29.7813 17.01142,-8.1143 25.84339,-11.41226 39.41451,-14.71779 46.6197,-11.3552 101.16415,-4.98302 172,20.09399 16.72341,5.9203 23.99875,9.4739 36.5,17.8283 45.9618,30.7153 90.18435,77.4425 100.69449,106.3977 3.29087,9.0662 3.06845,14.7659 -0.80437,20.6128 -1.71044,2.5823 -3.88907,5.1121 -4.84141,5.6217 -1.65176,0.884 -19.2974,1.9665 -65.54871,4.0213 -30.86915,1.3714 -54.8276,3.0406 -64.8238,4.5164 -13.37186,1.9741 -13.26558,3.0372 0.50207,5.0224 13.65118,1.9684 73.47523,5.4019 95.07173,5.4565 4.61779,0.012 4.84815,1.6527 0.48775,3.4746 -2.61957,1.0945 -18.62643,1.47 -81.25,1.9058 -94.51732,0.6577 -145.08961,2.4684 -170.30948,6.0977 -9.14268,1.3158 -11.10775,1.9353 -9.91666,3.1263 2.0347,2.0347 32.97154,4.6292 77.23839,6.4775 14.3,0.5971 26.4275,1.5001 26.95,2.0066 0.58389,0.5661 -0.76492,0.9644 -3.5,1.0336 -2.4475,0.062 -10.75,0.463 -18.45,0.8912 -7.7,0.4283 -27.275,1.2837 -43.5,1.9009 -16.225,0.6173 -34.45,1.6277 -40.5,2.2454 -12.1425,1.2397 -27.81179,1.7868 -34,1.1871 z"
       id="path827"
       inkscape:connector-curvature="0" />
  </g>
</svg>
