<?xml version="1.0" encoding="UTF-8" standalone="no"?>
<svg
   xmlns:dc="http://purl.org/dc/elements/1.1/"
   xmlns:cc="http://creativecommons.org/ns#"
   xmlns:rdf="http://www.w3.org/1999/02/22-rdf-syntax-ns#"
   xmlns:svg="http://www.w3.org/2000/svg"
   xmlns="http://www.w3.org/2000/svg"
   xmlns:sodipodi="http://sodipodi.sourceforge.net/DTD/sodipodi-0.dtd"
   xmlns:inkscape="http://www.inkscape.org/namespaces/inkscape"
   version="1.1"
   id="svg815"
   width="1000"
   height="1000"
   viewBox="0 0 1000 1000"
   sodipodi:docname="pluto.svg"
   inkscape:version="1.0.1 (3bc2e813f5, 2020-09-07)"
   inkscape:export-filename=""
   inkscape:export-xdpi="96"
   inkscape:export-ydpi="96">
  <metadata
     id="metadata821">
    <rdf:RDF>
      <cc:Work
         rdf:about="">
        <dc:format>image/svg+xml</dc:format>
        <dc:type
           rdf:resource="http://purl.org/dc/dcmitype/StillImage" />
        <dc:title />
      </cc:Work>
    </rdf:RDF>
  </metadata>
  <defs
     id="defs819" />
  <sodipodi:namedview
     pagecolor="#ffffff"
     bordercolor="#666666"
     borderopacity="1"
     objecttolerance="10"
     gridtolerance="10"
     guidetolerance="10"
     inkscape:pageopacity="0"
     inkscape:pageshadow="2"
     inkscape:window-width="1536"
     inkscape:window-height="822"
     id="namedview817"
     showgrid="false"
     inkscape:zoom="0.1767767"
     inkscape:cx="-581.32234"
     inkscape:cy="967.47727"
     inkscape:window-x="0"
     inkscape:window-y="0"
     inkscape:window-maximized="1"
     inkscape:current-layer="svg815"
     inkscape:document-rotation="0" />
  <g
     id="g845"
     transform="matrix(0.49743216,0,0,0.4974888,0.16578754,0.05285051)">
    <path
       style="fill:#ecdcc9"
       d="m 951.5,2008.9136 c -157.95676,-9.6731 -307.97591,-54.0139 -443,-130.9364 -42.96374,-24.4761 -81.16819,-50.1366 -126.35041,-84.8647 -2.94273,-2.2619 -5.79921,-4.1125 -6.34774,-4.1125 -3.13553,0 -48.79963,-40.1168 -75.68207,-66.4882 C 187.47187,1612.0054 101.07607,1473.5924 50.436977,1322.5 23.685527,1242.6814 4.5053235,1147.6612 1.891115,1082 -0.84953956,1013.1629 -0.3062763,960.30539 3.5869665,917 20.196078,732.25321 87.931551,554.44716 198.1963,406.14925 267.64915,312.74032 346.19135,237.56728 442.14925,172.66093 515.74571,122.87996 588.91038,86.38009 679.5,54.253076 691.05,50.156944 703.425,45.754665 707,44.470234 737.89091,33.371701 807.02023,17.260541 854.5,10.094142 905.00644,2.4709087 935.69793,0.51805521 1005,0.51805521 c 51.0091,0 85.8339,1.38456959 112.5,4.47277939 108.4385,12.5583164 211.8615,41.9045444 313.5,88.9554074 18.9581,8.776158 51.7699,25.618748 54.5,27.975358 1.1,0.94951 8.3,5.25669 16,9.57152 51.9041,29.0854 107.4487,68.03573 157.4795,110.43175 85.2976,72.28091 161.5786,164.78566 218.9977,265.57513 67.11,117.80003 109.8254,248.01439 125.9669,384 1.1098,9.35 2.422,19.025 2.9159,21.5 2.4277,12.16518 3.5186,107.6993 1.8043,158 -2.764,81.098 -25.1563,187.9013 -58.1804,277.5 -9.5541,25.9217 -16.372,42.6294 -18.9749,46.5 -1.2946,1.925 -5.6247,10.925 -9.6225,20 -15.3258,34.7898 -41.3348,83.8007 -63.1505,119 -123.909,199.9248 -312.7259,349.1024 -536.736,424.0562 -86.6281,28.9857 -171.7459,45.2875 -266,50.9442 -19.0252,1.1419 -85.33683,1.0868 -104.5,-0.087 z"
       id="path863"
       inkscape:connector-curvature="0" />
    <path
       style="fill:#d2cac1"
       d="M 360.49072,1776.3518 C 339.32251,1758.7279 322.57668,1743.5239 300.62709,1722 136.16259,1560.7248 31.648733,1346.3094 4.9969462,1115.5 1.7178658,1087.1026 0.5,1055.5745 0.5,999.08324 0.5,958.03868 0.77119648,946.57611 1.75,946.24991 2.538615,945.98709 3,943.89328 3,940.57728 3,937.68645 3.670223,928.16145 4.4893844,919.41061 20.72342,745.98764 77.303349,586.49018 173.25379,443.66781 294.80778,262.73451 473.16933,126.3166 681.22858,55.148759 c 9.73241,-3.329026 18.73952,-6.736979 20.0158,-7.573227 2.66986,-1.749361 18.05173,-6.519103 41.92741,-13.001211 C 808.6889,16.786809 878.6091,4.9043312 936.5,1.7194625 c 28.35137,-1.55975111 108.6486,-1.55975111 137,0 101.2391,5.5696696 222.0918,34.6762255 323,77.7923735 34.5064,14.743923 83.2454,38.618764 87.8596,43.038144 1.1772,1.12749 8.4404,5.5911 16.1404,9.91914 119.9387,67.41541 226.7399,161.79284 309.9658,273.90865 105.066,141.53722 172.8628,313.2003 192.3844,487.12223 0.9877,8.8 2.3859,17.09569 3.107,18.43487 3.2665,6.06639 4.8199,114.72163 2.3241,162.56513 -3.2402,62.1155 -16.9098,139.4341 -36.7732,208 -12.2672,42.3445 -36.6336,109.2843 -40.7179,111.8605 -1.2624,0.7963 -2.8589,0.2609 -6.964,-2.3354 -78.2462,-49.4866 -145.4147,-76.345 -213.9134,-85.5366 -26.5103,-3.5574 -62.1146,-3.6024 -89.4128,-0.1132 -54.3929,6.9524 -118.3231,7.7631 -158.5,2.0099 -50.5245,-7.235 -85.7791,-23.2578 -107.0281,-48.6433 -7.3689,-8.8033 -16.0584,-25.9679 -18.9126,-37.3587 -14.249,-56.8654 17.0868,-141.8542 88.161,-239.10943 13.1583,-18.00517 30.448,-39.44024 42.948,-53.24496 11.6945,-12.91509 14.2964,-14.69618 42.3317,-28.97762 18.1545,-9.24809 40.1969,-18.90624 57.4058,-25.15306 5.8182,-2.11201 11.1191,-4.57925 11.7797,-5.48276 0.6607,-0.90351 2.178,-5.75409 3.3718,-10.77906 2.6521,-11.1634 2.8776,-29.11174 0.5167,-41.12804 -9.1516,-46.57911 -48.9089,-100.62923 -117.074,-159.16207 -4.4,-3.77825 -9.61,-8.09611 -11.5779,-9.59526 -10.8287,-8.24969 -70.2106,-39.24167 -101.9221,-53.19422 -84.2291,-37.0594 -158.8484,-57.86331 -232,-64.68178 -17.3722,-1.61927 -61.0351,-1.61255 -76.5,0.0118 -85.26759,8.95588 -151.78678,42.84489 -202.39641,103.1133 -56.81923,67.66312 -88.9404,159.56959 -83.18062,238 3.10083,42.22383 12.92513,78.52749 32.14386,118.78102 34.08173,71.38394 94.14003,140.88244 184.07181,213.00504 15.49164,12.4238 19.05057,16.4234 23.97331,26.9417 3.05215,6.5214 5.84055,10.3581 13.44525,18.5 8.849,9.474 16.7862,18.8592 53.6121,63.3932 39.755,48.0761 65.5673,71.1745 97.393,87.1532 10.6899,5.3671 31.3369,12.9603 53.5835,19.7061 17.0857,5.1809 30.9327,8.7101 107.446,27.385 74.685,18.2286 100.301,32.7346 100.3862,56.8472 0.048,13.4894 -6.8382,25.4448 -27.0202,46.9123 -15.651,16.648 -25.1756,28.4086 -44.4416,54.8752 -20.8394,28.6279 -29.3356,39.1568 -40.8226,50.5892 -22.8623,22.7537 -47.7588,36.1044 -82.6936,44.3443 -56.5589,13.3402 -148.7429,8.7988 -244,-12.0205 -36.17496,-7.9063 -59.31586,-14.2605 -132.41607,-36.3593 -40.6279,-12.2821 -65.99621,-18.8754 -86.62064,-22.5127 -70.90645,-12.5051 -121.54225,1.7342 -184.96329,52.0135 -41.82339,33.157 -100.84118,65.1015 -178.39967,96.5622 -12.04482,4.8858 -23.299,8.8833 -25.00928,8.8833 -2.50076,0 -5.84892,-2.2807 -17.10033,-11.6482 z"
       id="path861"
       inkscape:connector-curvature="0" />
    <path
       style="fill:#cfc5ba"
       d="m 370.3266,1784.3391 c -18.65489,-14.1493 -56.27324,-48.4005 -82.32885,-74.9598 C 226.20412,1646.3911 174.69536,1578.1798 131.043,1501.5294 64.175273,1384.1146 20.534992,1249.9874 4.9545188,1114 c -2.263179,-19.7532 -3.506243,-41.1913 -4.58563703,-79.0849 -0.6067898,-21.3022 -0.51339579,-23.6457 0.96493793,-24.213 0.9480701,-0.3638 10.1633503,2.7703 21.9014653,7.4485 166.525865,66.3695 341.916855,112.2285 515.513905,134.7898 93.664,12.173 171.18052,17.0153 273.25081,17.0696 57.28351,0.031 65.57123,0.5107 84,4.867 29.4989,6.9732 57.23379,21.2317 82.97889,42.6593 13.18861,10.9769 31.59721,30.8339 56.91231,61.39 7.4848,9.0344 21.4702,25.9094 31.0786,37.5 37.5204,45.2605 66.9676,71.1892 97.0302,85.4364 21.4388,10.1602 54.587,20.7045 100.6026,32.0012 15.8935,3.9019 42.7159,10.4844 59.6051,14.6278 36.8295,9.0354 54.2631,14.6059 70.2923,22.4603 27.8573,13.6502 35.3391,29.4039 24.4515,51.4855 -4.1111,8.338 -10.7088,16.7965 -25.003,32.0546 -15.2762,16.3064 -22.4836,25.2704 -43.5868,54.2102 -27.9087,38.2724 -40.041,51.6099 -59.8617,65.808 -46.1512,33.0593 -120.6774,41.8932 -231.5,27.4405 -61.31416,-7.9961 -104.4555,-18.4247 -215,-51.9717 -58.20951,-17.6649 -90.86391,-24.0006 -123.49387,-23.9608 -31.30343,0.038 -56.16811,6.0137 -85.24788,20.4868 -17.60223,8.7606 -30.87028,17.3177 -49.75825,32.0907 -24.68046,19.3037 -40.14881,29.7503 -66.55938,44.9512 -16.22412,9.338 -58.60434,30.4698 -79.94062,39.8604 -23.53452,10.358 -59.22747,24.5901 -61.6734,24.5914 -1.19538,7e-4 -4.34538,-1.6462 -7,-3.6597 z M 1917,1387.3794 c -50.5305,-32.6546 -110.7749,-59.7085 -161.0926,-72.3416 -49.2561,-12.3666 -87.4864,-14.7253 -139.4074,-8.601 -40.0216,4.7207 -92.1454,6.6998 -122.5,4.6512 -65.3749,-4.4119 -107.9929,-19.3079 -134.0805,-46.8641 -25.1859,-26.6038 -32.3711,-60.4027 -22.8504,-107.4873 11.9058,-58.8795 59.2986,-143.2186 121.5103,-216.2366 15.1212,-17.74779 20.4671,-22.53871 32.9206,-29.50311 21.6775,-12.1227 46.8578,-23.78914 73.1258,-33.88039 7.0808,-2.72018 15.6218,-6.10088 18.9801,-7.51268 18.1534,-7.63163 62.6576,-17.79258 96.3941,-22.00817 29.5041,-3.68671 73.3829,-4.80141 101.6048,-2.58117 71.0747,5.59152 142.2398,24.59127 203.8952,54.43622 9.35,4.52597 17.8378,9.17961 18.8618,10.34142 2.5196,2.85875 3.3855,10.96937 4.7734,44.70788 1.197,29.09616 0.6877,89.7793 -1.0322,123 -2.9718,57.4032 -17.3454,137.5336 -36.5931,204 -12.1564,41.9788 -36.8179,110.1738 -40.7436,112.6656 -1.7389,1.1038 -0.9727,1.4815 -13.7663,-6.7862 z M 668.5,1123.614 c -11.18465,-2.7199 -22.52324,-11.8061 -27.84974,-22.3175 -12.37887,-24.4285 3.07895,-54.3276 30.72054,-59.4207 26.94831,-4.9654 52.71885,20.8051 47.75343,47.7534 -1.57414,8.5431 -5.09806,15.4055 -11.25266,21.9131 -10.38295,10.9784 -25.19364,15.5195 -39.37157,12.0717 z m -86.26441,-41.5455 c -8.03266,-2.0221 -15.49443,-9.8237 -17.36698,-18.1578 -2.14251,-9.5356 2.51833,-19.8211 11.48161,-25.3374 4.1355,-2.5452 5.8522,-2.9851 11.64978,-2.9851 5.79758,0 7.51428,0.4399 11.64978,2.9851 8.68755,5.3466 13.25599,14.9101 11.71776,24.5297 -0.90018,5.6294 -5.96335,12.789 -11.36754,16.0744 -4.92653,2.995 -12.47293,4.2231 -17.76441,2.8911 z m 60,-100.00002 c -8.03266,-2.02212 -15.49443,-9.82364 -17.36698,-18.15775 -2.14251,-9.53562 2.51833,-19.8211 11.48161,-25.33747 4.1355,-2.54515 5.8522,-2.98502 11.64978,-2.98502 5.79758,0 7.51428,0.43987 11.64978,2.98502 8.68755,5.34667 13.25599,14.91016 11.71776,24.52974 -0.90018,5.62939 -5.96335,12.78904 -11.36754,16.07441 -4.92653,2.99499 -12.47293,4.22313 -17.76441,2.89107 z M 286.5,961.05986 C 265.80871,957.63821 247.14983,948.2188 232.96552,934.03448 221.20074,922.26971 212.35028,906.72891 207.88793,890 c -3.25339,-12.19664 -3.25339,-33.80336 0,-46 9.15443,-34.31909 34.79298,-59.95764 69.11207,-69.11207 6.97817,-1.86139 11.09606,-2.26733 23,-2.26733 11.90394,0 16.02183,0.40594 23,2.26733 34.31909,9.15443 59.95764,34.79298 69.11207,69.11207 3.25339,12.19664 3.25339,33.80336 0,46 -9.16233,34.3487 -35.1947,60.34568 -69.11207,69.01814 -9.3772,2.39769 -28.03587,3.44141 -36.5,2.04172 z M 1866.2356,782.06848 c -8.0327,-2.02212 -15.4944,-9.82364 -17.367,-18.15775 -2.1425,-9.53562 2.5183,-19.8211 11.4816,-25.33747 4.1355,-2.54515 5.8522,-2.98502 11.6498,-2.98502 5.7976,0 7.5143,0.43987 11.6498,2.98502 8.6875,5.34667 13.256,14.91016 11.7177,24.52974 -0.9001,5.62939 -5.9633,12.78904 -11.3675,16.07441 -4.9265,2.99499 -12.4729,4.22313 -17.7644,2.89107 z M 1806.5,637.614 c -11.1846,-2.71991 -22.5232,-11.80612 -27.8497,-22.31747 -12.3789,-24.42853 3.0789,-54.32759 30.7205,-59.42076 26.9483,-4.96542 52.7188,20.80512 47.7534,47.75343 -1.5741,8.54312 -5.098,15.4055 -11.2526,21.91308 -10.383,10.97844 -25.1937,15.51954 -39.3716,12.07172 z M 316.69848,625.90447 c -16.45108,-3.87149 -29.10292,-17.5422 -32.02559,-34.60466 -2.95625,-17.25846 6.93218,-36.24547 22.7773,-43.73524 25.94357,-12.26316 55.03416,2.86376 59.87692,31.13562 4.85586,28.34826 -22.47435,53.82994 -50.62863,47.20428 z m 247.29505,-1.78056 C 552.78801,620.45494 546.56739,612.20039 546.56739,601 c 0,-13.74757 9.68117,-23.42602 23.43261,-23.42602 13.75144,0 23.43261,9.67845 23.43261,23.42602 0,9.53112 -4.44181,16.87402 -12.81021,21.17701 -4.31133,2.21685 -12.77719,3.20803 -16.62887,1.9469 z m 1120.24207,-8.05543 c -8.0327,-2.02212 -15.4944,-9.82364 -17.367,-18.15775 -2.1425,-9.53562 2.5183,-19.8211 11.4816,-25.33747 4.1355,-2.54515 5.8522,-2.98502 11.6498,-2.98502 5.7976,0 7.5143,0.43987 11.6498,2.98502 8.6875,5.34667 13.256,14.91016 11.7177,24.52974 -0.9001,5.62939 -5.9633,12.78904 -11.3675,16.07441 -4.9265,2.99499 -12.4729,4.22313 -17.7644,2.89107 z m 86,-104 c -8.0327,-2.02212 -15.4944,-9.82364 -17.367,-18.15775 -2.1425,-9.53562 2.5183,-19.8211 11.4816,-25.33747 4.1355,-2.54515 5.8522,-2.98502 11.6498,-2.98502 5.7976,0 7.5143,0.43987 11.6498,2.98502 8.6875,5.34667 13.256,14.91016 11.7177,24.52974 -0.9001,5.62939 -5.9633,12.78904 -11.3675,16.07441 -4.9265,2.99499 -12.4729,4.22313 -17.7644,2.89107 z m -1400.00001,-8 c -8.03266,-2.02212 -15.49443,-9.82364 -17.36698,-18.15775 -2.14251,-9.53562 2.51833,-19.8211 11.48161,-25.33747 4.1355,-2.54515 5.8522,-2.98502 11.64978,-2.98502 5.79758,0 7.51428,0.43987 11.64978,2.98502 8.68755,5.34667 13.25599,14.91016 11.71776,24.52974 -0.90018,5.62939 -5.96335,12.78904 -11.36754,16.07441 -4.92653,2.99499 -12.47293,4.22313 -17.76441,2.89107 z m 316,-76 c -8.03266,-2.02212 -15.49443,-9.82364 -17.36698,-18.15775 -2.14251,-9.53562 2.51833,-19.8211 11.48161,-25.33747 4.1355,-2.54515 5.8522,-2.98502 11.64978,-2.98502 5.79758,0 7.51428,0.43987 11.64978,2.98502 8.68755,5.34667 13.25599,14.91016 11.71776,24.52974 -0.90018,5.62939 -5.96335,12.78904 -11.36754,16.07441 -4.92653,2.99499 -12.47293,4.22313 -17.76441,2.89107 z m 796.00001,-22 c -8.0327,-2.02212 -15.4944,-9.82364 -17.367,-18.15775 -2.1425,-9.53562 2.5183,-19.8211 11.4816,-25.33747 4.1355,-2.54515 5.8522,-2.98502 11.6498,-2.98502 5.7976,0 7.5143,0.43987 11.6498,2.98502 8.6875,5.34667 13.256,14.91016 11.7177,24.52974 -0.9001,5.62939 -5.9633,12.78904 -11.3675,16.07441 -4.9265,2.99499 -12.4729,4.22313 -17.7644,2.89107 z m -266.6834,-6.65402 c -45.3681,-10.15771 -69.1433,-58.29402 -49.4153,-100.04845 6.5481,-13.85911 18.536,-26.02677 32.2121,-32.69521 11.176,-5.44935 18.483,-7.08501 31.651,-7.08501 13.168,0 20.475,1.63566 31.651,7.08501 17.8421,8.69979 31.4399,25.40678 36.997,45.45679 2.4139,8.70914 2.4139,27.03568 0,35.74482 -6.8694,24.78458 -25.8526,43.93177 -50.148,50.58106 -8.766,2.39914 -24.4777,2.8574 -32.9478,0.96099 z M 846.5,389.614 c -11.18465,-2.71991 -22.52324,-11.80612 -27.84974,-22.31747 -12.37887,-24.42853 3.07895,-54.32759 30.72054,-59.42076 26.94831,-4.96542 52.71885,20.80512 47.75343,47.75343 -1.57414,8.54312 -5.09806,15.4055 -11.25266,21.91308 C 875.48862,388.52072 860.67793,393.06182 846.5,389.614 Z m -206,-10 c -11.18465,-2.71991 -22.52324,-11.80612 -27.84974,-22.31747 -12.37887,-24.42853 3.07895,-54.32759 30.72054,-59.42076 26.94831,-4.96542 52.71885,20.80512 47.75343,47.75343 -1.57414,8.54312 -5.09806,15.4055 -11.25266,21.91308 C 669.48862,378.52072 654.67793,383.06182 640.5,379.614 Z m 393.7356,-23.54552 c -8.0327,-2.02212 -15.4944,-9.82364 -17.367,-18.15775 -2.1425,-9.53562 2.5183,-19.8211 11.4816,-25.33747 4.1355,-2.54515 5.8522,-2.98502 11.6498,-2.98502 5.7976,0 7.5143,0.43987 11.6498,2.98502 8.6875,5.34667 13.256,14.91016 11.7177,24.52974 -0.9001,5.62939 -5.9633,12.78904 -11.3675,16.07441 -4.9265,2.99499 -12.4729,4.22313 -17.7644,2.89107 z m -294.00001,-38 c -8.03266,-2.02212 -15.49443,-9.82364 -17.36698,-18.15775 -2.14251,-9.53562 2.51833,-19.8211 11.48161,-25.33747 4.1355,-2.54515 5.8522,-2.98502 11.64978,-2.98502 5.79758,0 7.51428,0.43987 11.64978,2.98502 8.68755,5.34667 13.25599,14.91016 11.71776,24.52974 -0.90018,5.62939 -5.96335,12.78904 -11.36754,16.07441 -4.92653,2.99499 -12.47293,4.22313 -17.76441,2.89107 z M 1185.5,147.96942 C 1128.8819,144.77398 1076.5901,138.8554 1026.7339,129.99969 924.28753,111.80265 818.13646,86.777327 729,59.808342 714.425,55.398554 701.72325,51.563 700.77389,51.284889 c -1.3388,-0.392197 -1.50381,-0.921026 -0.73538,-2.35684 C 702.69614,43.962222 781.42386,23.629237 833,14.588125 933.65133,-3.0556913 1044.0957,-4.8388747 1145,9.5507172 1255.1275,25.255594 1365.4444,60.385411 1464,111.13452 c 17.9308,9.23307 22.1855,12.09869 20.4611,13.7808 -0.9899,0.96568 -22.8034,5.43034 -43.9611,8.99773 -29.2581,4.93319 -71.5966,9.84027 -109.5,12.69119 -24.7316,1.86019 -120.7641,2.76123 -145.5,1.36518 z"
       id="path859"
       inkscape:connector-curvature="0" />
    <path
       style="fill:#c6b7aa"
       d="M 367.32692,1781.7984 C 334.74624,1755.9077 288.30511,1711.6046 257.47094,1677 182.80868,1593.2078 123.812,1500.2182 79.509492,1396.5 41.947002,1308.5611 16.069106,1210.1536 4.9584196,1113 2.6551776,1092.8601 1.4008958,1071.5169 0.36149441,1034.7776 l -0.67113632,-23.7224 2.15049061,0.4142 c 1.1827699,0.2277 13.2899393,4.7667 26.9048213,10.0866 203.03977,79.3357 400.67766,125.8152 607.75433,142.9288 57.39011,4.7429 103.88847,6.5004 172.19878,6.5085 61.94878,0.01 69.47799,0.5087 91.00796,6.06 27.11421,6.9911 52.32271,20.1423 77.29326,40.3237 15.78762,12.7597 38.0432,36.7275 67.8286,73.0467 30.9511,37.7408 42.5395,51.0424 57.6219,66.1404 22.1621,22.185 39.1666,34.8478 61.0495,45.462 20.3293,9.8606 58.1108,21.9027 103,32.8292 96.6448,23.5244 109.3945,27.1687 128.4875,36.7267 19.2602,9.6417 27.9822,19.9802 28.0027,33.193 0.02,13.0384 -7.2496,25.6884 -26.6097,46.3022 -15.8458,16.8719 -25.1527,28.3606 -44.8977,55.4228 -9.2296,12.65 -20.4878,27.5 -25.0181,33 -33.098,40.1819 -67.9422,58.4851 -125.8339,66.0992 -16.3624,2.1521 -62.5137,2.9752 -84.1854,1.5015 -81.4599,-5.5392 -142.57945,-17.9917 -251.4454,-51.2296 -70.76364,-21.6048 -96.08015,-27.4629 -129.50393,-29.9662 -34.30551,-2.5695 -65.88099,3.4916 -97.49607,18.7147 -20.31017,9.7797 -33.97956,18.6876 -59,38.4486 -13.86706,10.9522 -37.45126,26.7867 -56.5,37.9344 -17.83525,10.4375 -70.72476,36.6274 -93.50612,46.3025 -23.0709,9.7981 -50.69137,20.6949 -52.45584,20.6949 -0.77386,0 -4.91886,-2.7907 -9.21112,-6.2016 z M 1920.8783,1389.1846 c -12.368,-8.0718 -34.0906,-20.7688 -49.0685,-28.6809 -57.0638,-30.1439 -108.0622,-47.4292 -162.8098,-55.1824 -17.5547,-2.486 -70.099,-2.5323 -87.5,-0.077 -18.0561,2.5477 -43.1262,4.5881 -71.1372,5.7897 -36.3424,1.559 -74.5312,-0.5474 -101.4903,-5.5979 -66.1058,-12.3842 -103.1846,-41.3622 -113.1416,-88.4228 -2.5789,-12.1886 -2.7253,-34.9991 -0.3175,-49.4704 7.4864,-44.9946 31.0463,-97.4596 69.8481,-155.5429 19.2865,-28.87038 43.5669,-60.44512 63.4411,-82.5 10.1439,-11.25701 13.9088,-13.78465 41.2974,-27.72615 51.1429,-26.03301 104.6851,-43.5307 157,-51.30792 33.0428,-4.91218 78.4278,-6.77797 110.5,-4.54267 73.0409,5.09063 145.4259,24.30861 210.8474,55.97928 7.7839,3.76823 14.9256,7.71358 15.8703,8.76744 2.5344,2.82711 3.6278,12.57697 4.9156,43.83002 1.2036,29.20888 0.688,90.4933 -1.0305,122.5 -3.6704,68.3584 -22.3357,162.702 -47.2847,239 -8.5133,26.0353 -26.5689,73.7701 -29.0304,76.75 -1.6551,2.0036 -3.1001,1.5313 -10.9094,-3.5654 z M 670,1121.6075 c -20.54498,-4.5756 -34.57864,-24.8725 -30.96726,-44.788 3.04852,-16.8116 15.97258,-29.7378 32.78026,-32.7856 25.4975,-4.6236 49.7773,19.6521 45.15426,45.1466 -3.02273,16.6694 -15.91323,29.6747 -32.44113,32.73 -6.97586,1.2896 -7.41631,1.2804 -14.52613,-0.303 z m -86.5,-41.5211 c -10.36552,-2.5977 -16.82581,-10.6968 -16.81985,-21.0864 0.007,-12.205 9.12368,-21.323 21.31985,-21.323 22.58005,0 29.71616,30.4883 9.5,40.5878 -3.89856,1.9476 -10.21693,2.7697 -14,1.8216 z m 60,-99.99996 C 633.13448,977.48866 626.67419,969.38962 626.68015,959 c 0.007,-12.20498 9.12368,-21.32301 21.31985,-21.32301 22.58005,0 29.71616,30.4883 9.5,40.58779 -3.89856,1.94762 -10.21693,2.76976 -14,1.82166 z M 287.58475,958.96188 c -38.18104,-6.01088 -67.61086,-32.23019 -77.32776,-68.89205 -3.63409,-13.71143 -3.63409,-32.42823 0,-46.13966 8.71448,-32.87971 33.79347,-57.9587 66.67318,-66.67318 13.71143,-3.63409 32.42823,-3.63409 46.13966,0 32.87971,8.71448 57.9587,33.79347 66.67318,66.67318 3.63409,13.71143 3.63409,32.42823 0,46.13966 -10.58182,39.92518 -45.03603,67.66058 -86.21144,69.39962 -5.51736,0.23302 -12.69343,0.005 -15.94682,-0.50757 z M 1867.5,780.08644 c -10.3655,-2.59778 -16.8258,-10.69682 -16.8199,-21.08644 0.01,-12.20498 9.1237,-21.32301 21.3199,-21.32301 22.5801,0 29.7162,30.4883 9.5,40.58779 -3.8986,1.94762 -10.2169,2.76976 -14,1.82166 z M 1808,635.60748 c -20.545,-4.57555 -34.5786,-24.87247 -30.9673,-44.78802 3.0486,-16.81159 15.9726,-29.73774 32.7803,-32.78555 25.4975,-4.62358 49.7773,19.65211 45.1543,45.14663 -3.0228,16.66937 -15.9133,29.67465 -32.4412,32.73 -6.9758,1.28956 -7.4163,1.28037 -14.5261,-0.30306 z M 316,623.39685 c -15.31153,-4.09661 -26.20967,-16.11715 -29.20245,-32.21002 -2.99141,-16.08549 6.28492,-34.18754 21.27839,-41.52316 11.88974,-5.81711 23.95838,-5.81711 35.84812,0 14.99347,7.33562 24.2698,25.43767 21.27839,41.52316 -3.03385,16.31369 -13.96815,28.20946 -29.66255,32.27083 -7.27756,1.88327 -12.33248,1.86754 -19.5399,-0.0608 z m 247.55752,-1.64506 c -5.99099,-1.58268 -12.94769,-9.04128 -14.51101,-15.55792 -1.90364,-7.93524 -0.0511,-14.28451 5.90587,-20.24149 5.95698,-5.95698 12.30625,-7.80951 20.24149,-5.90587 3.95891,0.94973 6.30185,2.35398 9.85375,5.90587 8.98022,8.98022 8.99169,21.10355 0.0284,30.06679 -6.32786,6.32787 -12.76942,8.04392 -21.51854,5.73262 z M 1685.5,614.08644 c -10.3655,-2.59778 -16.8258,-10.69682 -16.8199,-21.08644 0.01,-12.20498 9.1237,-21.32301 21.3199,-21.32301 22.5801,0 29.7162,30.4883 9.5,40.58779 -3.8986,1.94762 -10.2169,2.76976 -14,1.82166 z m 86,-104 c -10.3655,-2.59778 -16.8258,-10.69682 -16.8199,-21.08644 0.01,-12.20498 9.1237,-21.32301 21.3199,-21.32301 22.5801,0 29.7162,30.4883 9.5,40.58779 -3.8986,1.94762 -10.2169,2.76976 -14,1.82166 z m -1400,-8 C 361.13448,499.48866 354.67419,491.38962 354.68015,481 c 0.007,-12.20498 9.12368,-21.32301 21.31985,-21.32301 22.58005,0 29.71616,30.4883 9.5,40.58779 -3.89856,1.94762 -10.21693,2.76976 -14,1.82166 z m 316,-76 C 677.13448,423.48866 670.67419,415.38962 670.68015,405 c 0.007,-12.20498 9.12368,-21.32301 21.31985,-21.32301 22.58005,0 29.71616,30.4883 9.5,40.58779 -3.89856,1.94762 -10.21693,2.76976 -14,1.82166 z m 796,-22 c -10.3655,-2.59778 -16.8258,-10.69682 -16.8199,-21.08644 0.01,-12.20498 9.1237,-21.32301 21.3199,-21.32301 22.5801,0 29.7162,30.4883 9.5,40.58779 -3.8986,1.94762 -10.2169,2.76976 -14,1.82166 z m -266,-6.47477 c -26.1911,-5.01703 -47.2209,-24.68216 -54.1579,-50.64332 -2.3157,-8.66631 -2.3157,-25.27039 0,-33.9367 8.9258,-33.40414 40.9179,-55.40357 74.4464,-51.19323 32.4137,4.07034 56.3027,27.95936 60.3731,60.37307 4.1803,33.28919 -17.9198,65.68224 -50.6616,74.2568 -8.5248,2.23252 -21.694,2.73443 -30,1.14338 z M 848,387.60748 c -20.54498,-4.57555 -34.57864,-24.87247 -30.96726,-44.78802 3.04852,-16.81159 15.97258,-29.73774 32.78026,-32.78555 25.4975,-4.62358 49.7773,19.65211 45.15426,45.14663 -3.02273,16.66937 -15.91323,29.67465 -32.44113,32.73 -6.97586,1.28956 -7.41631,1.28037 -14.52613,-0.30306 z m -206,-10 c -20.54498,-4.57555 -34.57864,-24.87247 -30.96726,-44.78802 3.04852,-16.81159 15.97258,-29.73774 32.78026,-32.78555 25.4975,-4.62358 49.7773,19.65211 45.15426,45.14663 -3.02273,16.66937 -15.91323,29.67465 -32.44113,32.73 -6.97586,1.28956 -7.41631,1.28037 -14.52613,-0.30306 z m 393.5,-23.52104 c -10.3655,-2.59778 -16.8258,-10.69682 -16.8199,-21.08644 0.01,-12.20498 9.1237,-21.32301 21.3199,-21.32301 22.5801,0 29.7162,30.4883 9.5,40.58779 -3.8986,1.94762 -10.2169,2.76976 -14,1.82166 z m -294,-38 C 731.13448,313.48866 724.67419,305.38962 724.68015,295 c 0.007,-12.20498 9.12368,-21.32301 21.31985,-21.32301 22.58005,0 29.71616,30.4883 9.5,40.58779 -3.89856,1.94762 -10.21693,2.76976 -14,1.82166 z m 457,-168.68628 c -3.3,-0.19106 -14.55,-0.823 -25,-1.40432 -54.1836,-3.01415 -107.1049,-9.65378 -167.9981,-21.07743 C 913.1534,107.59367 837.77216,89.973165 757.5,66.947487 717.00033,55.330354 701.66377,50.491318 701.23112,49.193361 700.71511,47.645344 703.7105,46.314087 716.29034,42.500503 864.09967,-2.3079659 1024.1705,-12.027049 1176,14.588125 c 75.7937,13.286363 152.4508,36.018454 223,66.128967 38.9747,16.634467 84.5,39.433998 84.5,42.318458 0,1.69875 -6.2138,3.14924 -36,8.40351 -35.3524,6.23614 -74.0017,10.85073 -118.5,14.14848 -19.9556,1.4789 -113.7596,2.78182 -130.5,1.81262 z"
       id="path857"
       inkscape:connector-curvature="0" />
    <path
       style="fill:#bbb2a9"
       d="m 371.28289,1784.3058 c -18.71613,-14.1949 -56.23242,-48.3761 -82.78706,-75.4275 C 235.20988,1654.5957 190.16433,1597.2775 150.27554,1533 71.026591,1405.2969 20.922429,1258.4754 5.0572258,1107.4633 2.4580561,1082.7232 0.01124547,1043.1495 0.00496398,1025.75 6.0058229e-4,1013.6636 0.19867512,1012 1.6421041,1012 c 0.9031573,0 10.2406569,3.4243 20.7499999,7.6096 158.523826,63.1308 324.238746,107.6501 489.066726,131.3876 51.82972,7.4642 90.70175,11.5784 156.04117,16.5152 34.94712,2.6405 70.55736,3.7484 129.5,4.0287 36.025,0.1714 69.1,0.6033 73.5,0.9598 29.28929,2.373 60.66158,13.6448 86.68053,31.1435 25.22428,16.9643 46.05427,37.4193 80.73797,79.2846 10.2198,12.3359 23.4373,28.2886 29.3721,35.4503 37.9383,45.7815 65.1614,69.5053 97.2094,84.7139 20.5545,9.7543 54.4121,20.55 98.0779,31.2727 14.8072,3.6361 41.6158,10.2137 59.5748,14.617 17.959,4.4033 38.884,10.06 46.5,12.5705 25.355,8.3579 42.7095,18.239 49.1736,27.998 6.7675,10.2171 6.6945,18.8568 -0.2782,32.9486 -4.5339,9.1631 -7.9263,13.4349 -27.968,35.2181 -12.6665,13.7672 -20.6042,23.7662 -39.5196,49.7819 -26.3226,36.2036 -39.3483,50.8504 -56.873,63.9509 -10.0733,7.5303 -29.9354,18.044 -42.2237,22.3504 -31.3563,10.9888 -75.2677,15.7723 -122.6356,13.3592 -81.7363,-4.1638 -146.4712,-16.5107 -248.3282,-47.3636 -71.49415,-21.6559 -93.59697,-27.4956 -121,-31.9689 -18.50284,-3.0204 -54.25933,-3.2579 -70,-0.4649 -36.67856,6.508 -68.90336,22.509 -108.69543,53.9719 -25.69149,20.3137 -53.4897,37.6957 -90.80457,56.7792 -33.11101,16.9336 -79.82756,37.6965 -106.315,47.251 l -7.11922,2.5681 z M 1922.905,1389.8535 c -73.9835,-47.8953 -145.7995,-76.0133 -218.405,-85.5119 -21.4002,-2.7997 -59.3656,-2.4028 -87.5,0.9146 -37.2369,4.3907 -52.2139,5.2465 -91,5.1999 -46.4996,-0.056 -67.5222,-2.2884 -98.5561,-10.4661 -100.2893,-26.4269 -120.3732,-106.3269 -57.3082,-227.99 23.2627,-44.8776 59.0448,-96.79127 94.429,-137 13.3026,-15.11643 14.3929,-15.9999 30.9353,-25.06608 23.8204,-13.05499 41.924,-21.11993 84,-37.42093 22.086,-8.55654 66.8996,-18.98038 98.5,-22.91159 32.4903,-4.04191 76.7099,-5.16715 105.5,-2.68463 63.5526,5.48003 121.2881,19.61646 178.895,43.8021 19.2148,8.06716 42.3612,19.91586 42.9739,21.99844 2.379,8.08676 4.6212,52.86119 4.6212,92.28269 0,128.0276 -23.1481,248.6681 -71.1863,371 -5.9809,15.2305 -7.3304,18 -8.7712,18 -0.3974,0 -3.6048,-1.8659 -7.1276,-4.1465 z M 667.28604,1119.6076 c -10.39619,-3.393 -19.43201,-11.4201 -24.12563,-21.4325 -2.29689,-4.8996 -2.66041,-6.9761 -2.66041,-15.1961 0,-8.7156 0.27421,-10.0781 3.24128,-16.105 3.90359,-7.9293 11.05606,-14.9516 19.04065,-18.6939 4.9471,-2.3187 7.0018,-2.6801 15.2391,-2.6801 8.71556,0 10.07802,0.2742 16.105,3.2413 7.92932,3.9036 14.95154,11.056 18.69391,19.0406 2.3174,4.9443 2.68006,7.0036 2.68006,15.2181 0,8.2145 -0.36266,10.2738 -2.68006,15.2181 -3.71574,7.9277 -10.77028,15.1398 -18.56041,18.9749 -5.34802,2.6328 -7.84416,3.228 -14.605,3.4827 -5.03321,0.1896 -9.76751,-0.2193 -12.36849,-1.0681 z M 579,1076.752 c -9.87009,-5.2762 -13.80407,-17.3011 -8.75198,-26.752 5.27617,-9.8701 17.30108,-13.8041 26.75198,-8.752 9.87009,5.2762 13.80407,17.3011 8.75198,26.752 -5.27617,9.8701 -17.30108,13.8041 -26.75198,8.752 z M 639,976.75198 C 629.12991,971.47581 625.19593,959.4509 630.24802,950 635.52419,940.12991 647.5491,936.19593 657,941.24802 666.87009,946.52419 670.80407,958.5491 665.75198,968 660.47581,977.87009 648.4509,981.80407 639,976.75198 Z M 282.11298,956.51571 c -34.70637,-7.85742 -59.47987,-30.65054 -69.79879,-64.21912 -2.47407,-8.04842 -2.70406,-10.19996 -2.70406,-25.29659 0,-15.09663 0.22999,-17.24817 2.70406,-25.29659 9.49607,-30.89177 31.49745,-52.89315 62.38922,-62.38922 8.04842,-2.47407 10.19996,-2.70406 25.29659,-2.70406 15.09663,0 17.24817,0.22999 25.29659,2.70406 30.89177,9.49607 52.89315,31.49745 62.38922,62.38922 2.47407,8.04842 2.70406,10.19996 2.70406,25.29659 0,15.09663 -0.22999,17.24817 -2.70406,25.29659 -9.50571,30.92311 -31.76592,53.15722 -62.38922,62.31606 -11.03541,3.30047 -32.77879,4.25869 -43.18361,1.90306 z M 1863,776.75198 c -9.8701,-5.27617 -13.8041,-17.30108 -8.752,-26.75198 5.2762,-9.87009 17.3011,-13.80407 26.752,-8.75198 9.8701,5.27617 13.8041,17.30108 8.752,26.75198 -5.2762,9.87009 -17.3011,13.80407 -26.752,8.75198 z m -57.714,-143.14442 c -10.3962,-3.39292 -19.432,-11.42004 -24.1256,-21.43241 -2.2969,-4.89969 -2.6604,-6.97612 -2.6604,-15.19618 0,-8.71556 0.2742,-10.07802 3.2413,-16.105 3.9036,-7.92932 11.056,-14.95154 19.0406,-18.69391 4.9471,-2.31871 7.0018,-2.68006 15.2391,-2.68006 8.7156,0 10.0781,0.27421 16.105,3.24128 7.9293,3.90359 14.9516,11.05606 18.6939,19.04065 2.3174,4.94432 2.6801,7.00358 2.6801,15.21807 0,8.21449 -0.3627,10.27375 -2.6801,15.21807 -3.7157,7.92777 -10.7702,15.13986 -18.5604,18.97493 -5.348,2.63282 -7.8441,3.22805 -14.605,3.48269 -5.0332,0.18958 -9.7675,-0.21927 -12.3685,-1.06813 z M 313.22212,621.08588 c -11.12893,-4.12541 -20.18749,-13.59444 -23.78523,-24.86301 -2.50694,-7.85203 -1.63504,-19.93427 1.98598,-27.52032 3.50721,-7.34764 10.82999,-14.70158 18.27968,-18.35748 C 314.95584,547.76704 316.48554,547.5 326,547.5 c 9.51446,0 11.04416,0.26704 16.29745,2.84507 7.39762,3.63034 14.72714,10.95986 18.35748,18.35748 2.57803,5.25329 2.84507,6.78299 2.84507,16.29745 0,9.51446 -0.26704,11.04416 -2.84507,16.29745 -3.65187,7.44149 -11.00207,14.76546 -18.35748,18.29197 -7.83583,3.75685 -21.13154,4.44115 -29.07533,1.49646 z M 561.5,619.33837 c -15.32947,-8.08149 -15.493,-28.63905 -0.28984,-36.43569 7.27186,-3.72923 17.9293,-1.79547 23.42287,4.25 9.22628,10.15319 6.38758,25.67233 -5.84319,31.94464 -4.55588,2.33639 -13.08959,2.45536 -17.28984,0.24105 z M 1681,610.75198 c -9.8701,-5.27617 -13.8041,-17.30108 -8.752,-26.75198 5.2762,-9.87009 17.3011,-13.80407 26.752,-8.75198 9.8701,5.27617 13.8041,17.30108 8.752,26.75198 -5.2762,9.87009 -17.3011,13.80407 -26.752,8.75198 z m 86,-104 c -9.8701,-5.27617 -13.8041,-17.30108 -8.752,-26.75198 5.2762,-9.87009 17.3011,-13.80407 26.752,-8.75198 9.8701,5.27617 13.8041,17.30108 8.752,26.75198 -5.2762,9.87009 -17.3011,13.80407 -26.752,8.75198 z m -1400,-8 C 357.12991,493.47581 353.19593,481.4509 358.24802,472 363.52419,462.12991 375.5491,458.19593 385,463.24802 394.87009,468.52419 398.80407,480.5491 393.75198,490 388.47581,499.87009 376.4509,503.80407 367,498.75198 Z m 316,-76 C 673.12991,417.47581 669.19593,405.4509 674.24802,396 679.52419,386.12991 691.5491,382.19593 701,387.24802 710.87009,392.52419 714.80407,404.5491 709.75198,414 704.47581,423.87009 692.4509,427.80407 683,422.75198 Z m 796,-22 c -9.8701,-5.27617 -13.8041,-17.30108 -8.752,-26.75198 5.2762,-9.87009 17.3011,-13.80407 26.752,-8.75198 9.8701,5.27617 13.8041,17.30108 8.752,26.75198 -5.2762,9.87009 -17.3011,13.80407 -26.752,8.75198 z m -265.6273,-5.73072 C 1183.4804,387.1842 1163,360.74803 1163,330 c 0,-56.18128 64.7029,-87.16816 109.1674,-52.2814 32.8732,25.7923 32.8732,78.7705 0,104.5628 -16.6167,13.0374 -39.0878,17.90654 -58.7947,12.73986 z m -368.08666,-9.4137 c -10.39619,-3.39292 -19.43201,-11.42004 -24.12563,-21.43241 -2.29689,-4.89969 -2.66041,-6.97612 -2.66041,-15.19618 0,-8.71556 0.27421,-10.07802 3.24128,-16.105 3.90359,-7.92932 11.05606,-14.95154 19.04065,-18.69391 4.9471,-2.31871 7.0018,-2.68006 15.2391,-2.68006 8.71556,0 10.07802,0.27421 16.105,3.24128 7.92932,3.90359 14.95154,11.05606 18.69391,19.04065 2.3174,4.94432 2.68006,7.00358 2.68006,15.21807 0,8.21449 -0.36266,10.27375 -2.68006,15.21807 -3.71574,7.92777 -10.77028,15.13986 -18.56041,18.97493 -5.34802,2.63282 -7.84416,3.22805 -14.605,3.48269 -5.03321,0.18958 -9.76751,-0.21927 -12.36849,-1.06813 z m -206,-10 c -10.39619,-3.39292 -19.43201,-11.42004 -24.12563,-21.43241 -2.29689,-4.89969 -2.66041,-6.97612 -2.66041,-15.19618 0,-8.71556 0.27421,-10.07802 3.24128,-16.105 3.90359,-7.92932 11.05606,-14.95154 19.04065,-18.69391 4.9471,-2.31871 7.0018,-2.68006 15.2391,-2.68006 8.71556,0 10.07802,0.27421 16.105,3.24128 7.92932,3.90359 14.95154,11.05606 18.69391,19.04065 2.3174,4.94432 2.68006,7.00358 2.68006,15.21807 0,8.21449 -0.36266,10.27375 -2.68006,15.21807 -3.71574,7.92777 -10.77028,15.13986 -18.56041,18.97493 -5.34802,2.63282 -7.84416,3.22805 -14.605,3.48269 -5.03321,0.18958 -9.76751,-0.21927 -12.36849,-1.06813 z M 1031,350.75198 c -9.8701,-5.27617 -13.8041,-17.30108 -8.752,-26.75198 5.2762,-9.87009 17.3011,-13.80407 26.752,-8.75198 9.8701,5.27617 13.8041,17.30108 8.752,26.75198 -5.2762,9.87009 -17.3011,13.80407 -26.752,8.75198 z m -294,-38 C 727.12991,307.47581 723.19593,295.4509 728.24802,286 733.52419,276.12991 745.5491,272.19593 755,277.24802 764.87009,282.52419 768.80407,294.5491 763.75198,304 758.47581,313.87009 746.4509,317.80407 737,312.75198 Z M 1190,145.89535 C 1102.3947,141.86709 1014.6616,128.38353 887.5,99.404611 820.94218,84.236719 703,51.64648 703,48.422858 c 0,-0.760757 3.4289,-2.3467 8.25,-3.815808 C 772.13181,26.054856 835.51729,12.791095 895.5,6.0517235 939.60708,1.0960611 950.17024,0.5669617 1005,0.5669617 c 54.8298,0 65.3929,0.5290994 109.5,5.4847618 118.0769,13.2665595 237.9946,49.3059485 344.5,103.5340865 18.669,9.5055 23,12.00411 23,13.26914 0,1.53101 -32.2144,7.62389 -66.5,12.57749 -34.4779,4.98139 -75.2495,8.71111 -115.5,10.56576 -24.6717,1.13682 -84.2516,1.08111 -110,-0.10285 z"
       id="path855"
       inkscape:connector-curvature="0" />
    <path
       style="fill:#b38b68"
       d="M 360.49072,1775.3518 C 318.61091,1740.4842 275.65212,1697.9476 240.84326,1656.8802 104.62281,1496.1678 22.634595,1300.6318 3.569768,1091 1.3882649,1067.0128 -0.20050949,1035.1124 0.1743394,1022.8246 L 0.5,1012.1492 l 5,1.8409 c 2.75,1.0124 16.475,6.3354 30.5,11.8287 178.26843,69.8248 365.89055,115.9265 552,135.6349 76.71034,8.1235 162.24021,12.2775 232,11.2678 20.075,-0.2906 41.675,-0.1003 48,0.4228 31.56245,2.6104 62.01423,13.3259 88.87984,31.2754 27.97043,18.6877 48.07346,38.8066 90.50906,90.5803 29.2466,35.6823 41.7365,49.8943 56.7449,64.5684 33.8791,33.1245 57.6658,46.5281 110.7866,62.4272 22.1116,6.618 32.1437,9.2158 81.5796,21.1248 23.1,5.5648 48.075,11.8352 55.5,13.9343 40.3024,11.3938 60.6688,22.3933 67.5663,36.4912 2.3919,4.8889 2.639,6.3474 2.2407,13.2263 -0.3854,6.6584 -1.0315,8.8539 -4.6549,15.8186 -4.7208,9.0739 -10.0137,15.7765 -25.419,32.1888 -13.9078,14.8169 -22.0668,24.9958 -42.1899,52.6347 -21.5509,29.6 -26.6565,35.8822 -39.4863,48.5857 -27.7915,27.518 -60.862,42.227 -109.1979,48.5688 -16.7505,2.1976 -61.7667,3.0074 -84.4932,1.5198 -78.5597,-5.1422 -144.65005,-18.4828 -246.31306,-49.7195 -71.75322,-22.0467 -100.38659,-28.7855 -133.55274,-31.4316 -39.22961,-3.1297 -77.87835,5.7917 -113.20699,26.1321 -14.45899,8.3247 -22.42538,13.7798 -38.91937,26.6504 -25.4767,19.88 -40.70833,30.0919 -68.14001,45.684 -17.99498,10.2283 -54.38406,28.3793 -76.23363,38.0256 -21.64895,9.5578 -61.54874,25.5704 -63.7156,25.5704 -0.99162,0 -8.09878,-5.2417 -15.79368,-11.6482 z M 688.6816,1492.3749 c 9.78919,-4.6382 15.61252,-14.1028 15.61252,-25.3749 0,-16.1738 -12.12035,-28.2941 -28.29412,-28.2941 -16.17377,0 -28.29412,12.1203 -28.29412,28.2941 0,21.4767 21.32778,34.6843 40.97572,25.3749 z M 249,1390.9713 c 19.7073,-3.0731 35.84527,-19.3123 38.97669,-39.2213 3.88922,-24.7268 -13.98834,-48.757 -39.22669,-52.7267 -30.11821,-4.7372 -57.4639,22.6085 -52.72669,52.7267 3.46931,22.0572 21.83085,38.4382 44.97669,40.1255 0.825,0.06 4.425,-0.3467 8,-0.9042 z m 113.6816,-82.5964 c 9.78919,-4.6382 15.61252,-14.1028 15.61252,-25.3749 0,-16.1738 -12.12035,-28.2941 -28.29412,-28.2941 -16.17377,0 -28.29412,12.1203 -28.29412,28.2941 0,21.4767 21.32778,34.6843 40.97572,25.3749 z m 1553.9977,77.0128 c -68.4398,-43.6919 -139.4245,-71.4003 -207.6793,-81.0664 -17.5547,-2.486 -70.099,-2.5323 -87.5,-0.077 -18.0561,2.5477 -43.1262,4.5881 -71.1372,5.7897 -36.3424,1.559 -74.5312,-0.5474 -101.4903,-5.5979 -54.3669,-10.1851 -88.6034,-31.5807 -104.8228,-65.5077 -27.0473,-56.576 3.9305,-150.1303 86.3057,-260.64642 27.5852,-37.00879 45.4395,-56.67429 58.105,-63.99933 35.6601,-20.62382 88.1426,-41.92679 128.7019,-52.24092 100.2504,-25.49339 211.1679,-19.49837 312.564,16.89389 31.0578,11.14702 74.2515,30.95824 75.6942,34.71791 0.8548,2.22759 2.2386,17.80423 3.5586,40.05782 1.2998,21.91268 1.312,80.78265 0.021,102.28865 -6.7813,112.9929 -29.0639,214.2532 -70.1966,319 -6.3325,16.1259 -7.3008,18.0219 -9.1762,17.967 -0.6202,-0.018 -6.4469,-3.4289 -12.9483,-7.5793 z m -17.9977,-235.0128 c 9.7892,-4.6382 15.6125,-14.1028 15.6125,-25.3749 0,-30.8874 -42.0477,-39.4179 -54.5855,-11.0741 -2.6943,6.0908 -2.7005,16.0502 -0.014,22.0974 6.8808,15.4875 23.5999,21.6421 38.9868,14.3516 z m -146,-173.99999 c 9.7892,-4.63819 15.6125,-14.1028 15.6125,-25.37491 0,-30.88741 -42.0477,-39.41793 -54.5855,-11.07414 -2.6943,6.09085 -2.7005,16.05021 -0.014,22.09748 6.8808,15.48749 23.5999,21.64202 38.9868,14.35157 z M 1201.5,145.97294 c -70.6054,-2.81146 -125.9503,-9.38982 -206,-24.48541 C 895.56812,102.64261 807.68879,81.047705 709.57046,51.225041 699.14144,48.055181 699.41903,47.897446 732,38.479965 781.54864,24.158007 843.22679,11.924893 895.5,6.0517235 939.60708,1.0960611 950.17024,0.5669617 1005,0.5669617 c 54.8298,0 65.3929,0.5290994 109.5,5.4847618 119.1942,13.3920905 240.3464,50.0227225 347.5,105.0673165 9.625,4.94435 18.1424,9.62372 18.9275,10.3986 1.8485,1.82431 2.2963,1.68275 -17.3204,5.47588 -45.367,8.77227 -96.3695,14.84434 -151.0898,17.98792 -25.8179,1.48318 -85.323,2.01463 -111.0173,0.9915 z"
       id="path853"
       inkscape:connector-curvature="0" />
    <path
       style="fill:#b0712a"
       d="M 360.49072,1774.3518 C 219.79476,1657.2135 111.5635,1498.1044 52.44594,1321.5 26.74296,1244.7164 9.0173595,1157.4373 3.9072061,1082.5 3.3071128,1073.7 2.408663,1065.7205 1.910651,1064.7677 1.412639,1063.815 0.70602507,1051.7409 0.34039781,1037.9365 l -0.66477684,-25.0989 3.91218953,1.6413 C 37.177296,1028.5709 101.35029,1052.1081 149,1067.8128 c 168.69081,55.5985 343.6495,90.0948 515.5,101.6401 47.53451,3.1935 65.65086,3.7924 137.5,4.5457 77.82649,0.816 77.66688,0.8069 96.5,5.5149 36.08729,9.0212 70.05189,30.3857 103.5,65.1039 13.9683,14.4987 23.0044,24.9318 47.5335,54.8826 27.9362,34.111 35.2638,42.4363 52.3988,59.5325 22.9563,22.9043 44.4089,38.3048 66.812,47.9633 21.38,9.2174 57.6026,20.3542 98.7557,30.3628 88.973,21.6387 103.0021,25.5114 120.8987,33.3738 35.0837,15.4131 41.5055,34.9604 20.5705,62.6149 -2.8268,3.7341 -10.0648,11.9775 -16.0844,18.3187 -14.0997,14.8529 -23.0782,25.9948 -43.5424,54.0338 -9.1524,12.5401 -20.3466,27.3002 -24.8759,32.8002 -32.9233,39.9783 -67.8471,57.9711 -126.4665,65.1555 -17.956,2.2007 -70.8418,2.5019 -93,0.5297 -81.0876,-7.2174 -134.68227,-18.4875 -238.5,-50.1527 -75.99217,-23.1781 -102.46983,-29.1058 -137,-30.671 -33.30595,-1.5096 -62.46574,4.7356 -94,20.1321 -17.61311,8.5996 -33.2763,18.7206 -54,34.893 -34.31132,26.7759 -68.9184,47.556 -117.56316,70.5916 -30.34593,14.3703 -84.29601,37.0218 -88.17633,37.0218 -0.70349,0 -7.57489,-5.2417 -15.26979,-11.6482 z m 325.9994,-279.1036 c 6.97869,-2.1935 15.5467,-10.8323 17.96514,-18.1135 2.25538,-6.7903 2.25538,-13.4791 0,-20.2694 -2.45077,-7.3786 -10.94197,-15.8698 -18.32057,-18.3206 -11.76745,-3.9085 -22.45646,-1.3829 -31.21469,7.3753 -6.26706,6.2671 -9.15077,12.9101 -9.15077,21.08 0,14.3035 10.92542,27.1761 25.36251,29.8829 4.99459,0.9364 8.29645,0.585 15.35838,-1.6347 z M 254.9699,1391.3296 c 8.26317,-2.2861 12.85326,-4.9941 19.86071,-11.7172 10.36767,-9.9469 15.27738,-20.8175 15.40684,-34.1124 0.12609,-12.9483 -4.18279,-23.489 -13.62502,-33.3306 -10.15749,-10.5872 -20.90463,-15.3548 -34.61243,-15.3548 -13.7078,0 -24.45494,4.7676 -34.61243,15.3548 -9.27131,9.6635 -13.6784,20.2413 -13.6784,32.8306 0,12.5893 4.40709,23.1671 13.6784,32.8306 13.53367,14.1061 29.26056,18.5678 47.58233,13.499 z m 105.52022,-80.0814 c 6.97869,-2.1935 15.5467,-10.8323 17.96514,-18.1135 3.90852,-11.7675 1.38297,-22.4565 -7.37526,-31.2147 -4.04517,-4.0452 -7.08376,-6.0927 -10.94531,-7.3753 -11.76745,-3.9085 -22.45646,-1.3829 -31.21469,7.3753 -6.26706,6.2671 -9.15077,12.9101 -9.15077,21.08 0,14.3035 10.92542,27.1761 25.36251,29.8829 4.99459,0.9364 8.29645,0.585 15.35838,-1.6347 z m 1556.48728,72.9099 c -55.208,-34.7642 -110.3303,-59.2281 -163.4774,-72.5531 -42.1337,-10.5636 -88.7292,-13.6991 -130,-8.7479 -9.9,1.1877 -25.425,2.8576 -34.5,3.711 -22.6044,2.1255 -80.2954,3.0039 -100,1.5227 -83.2992,-6.2618 -131.7134,-32.2971 -148.0041,-79.5908 -8.4641,-24.5721 -6.1769,-61.9293 6.0307,-98.5 19.6083,-58.7414 67.8389,-136.85833 121.9394,-197.5 11.2478,-12.60775 15.0763,-15.18665 44.5717,-30.0243 55.6749,-28.00715 110.7782,-44.34419 175.5996,-52.06181 18.1209,-2.15747 70.6953,-3.01868 90.8717,-1.48856 62.9745,4.77582 123.3798,19.3583 181.4408,43.80173 14.9924,6.31174 40.4032,18.74061 42.4526,20.76438 0.9703,0.95815 1.6948,5.79455 2.3512,15.6967 0.5219,7.87152 1.4658,15.39248 2.0976,16.71325 1.6234,3.39351 1.6296,114.78501 0.01,118.19721 -0.6283,1.3208 -1.6404,9.6014 -2.2492,18.4014 -5.0142,72.4793 -22.0456,158.031 -46.2852,232.5 -9.1472,28.102 -27.5292,76.0686 -29.389,76.6885 -0.5388,0.1796 -6.5945,-3.209 -13.457,-7.5304 z m -20.4873,-230.9099 c 6.9787,-2.1935 15.5467,-10.8323 17.9652,-18.1135 3.9085,-11.7675 1.3829,-22.4565 -7.3753,-31.2147 -4.0452,-4.0452 -7.0838,-6.0927 -10.9453,-7.3753 -11.7675,-3.9085 -22.4565,-1.3829 -31.2147,7.3753 -6.2671,6.2671 -9.1508,12.9101 -9.1508,21.08 0,14.3035 10.9255,27.1761 25.3625,29.8829 4.9946,0.9364 8.2965,0.585 15.3584,-1.6347 z m -146,-173.99998 c 6.9787,-2.1935 15.5467,-10.83229 17.9652,-18.11353 3.9085,-11.76745 1.3829,-22.45646 -7.3753,-31.21469 -12.3837,-12.3837 -29.7763,-12.3837 -42.16,0 -6.2671,6.26706 -9.1508,12.91006 -9.1508,21.08 0,14.30346 10.9255,27.17614 25.3625,29.88291 4.9946,0.93642 8.2965,0.58498 15.3584,-1.63469 z M 1201,144.40353 c -37.1576,-2.00687 -48.503,-2.76203 -67.417,-4.48736 C 1090.0129,135.94172 1054.4776,130.88015 1005,121.60111 934.21368,108.32583 875.5452,95.299434 813,78.970595 771.97683,68.260568 708.44165,49.764793 706.63011,48.005173 c -0.48193,-0.468111 0.63306,-1.276555 2.5,-1.812678 C 710.98355,45.660249 719.7,43.116966 728.5,40.540755 778.20151,25.990577 839.82858,13.476754 891,7.5439548 911.51319,5.1656623 935.68631,3 941.71963,3 944.68875,3 946.88256,2.6189929 946.59476,2.1533175 945.80581,0.87677571 969.58693,0 1005,0 c 35.4131,0 59.1942,0.87677571 58.4052,2.1533175 C 1063.1174,2.6189929 1065.3112,3 1068.2804,3 c 2.9691,0 12.5581,0.670223 21.309,1.4893844 122.0647,11.4264136 233.6311,41.7991586 343.9106,93.6259476 23.4048,10.999298 44.7173,22.188998 44.6496,23.442408 -0.061,1.13512 -9.8535,3.18624 -37.6496,7.88627 -35.6171,6.02248 -74.0271,10.39661 -119.5,13.60868 -14.1689,1.00085 -107.109,2.04708 -120,1.35084 z"
       id="path851"
       inkscape:connector-curvature="0" />
    <path
       style="fill:#6d2f17"
       d="M 361.79784,1774.7796 C 291.27708,1716.0215 226.2145,1644.0686 174.58932,1567.745 90.867849,1443.9698 34.072223,1298.8175 12.111,1152.5 7.5190897,1121.9062 3,1080.133 3,1068.2804 c 0,-2.9692 -0.3810071,-5.163 -0.8466825,-4.8752 C 1.1914183,1063.9997 0,1042.5951 0,1024.7194 c 0,-9.4301 0.26476402,-11.7556 1.25,-10.9793 1.5931031,1.2555 40.772033,16.6776 68.75,27.0623 197.45892,73.2919 400.59853,116.9039 604,129.6726 51.44666,3.2296 69.99859,3.7969 132,4.0365 39.92089,0.1542 67.1675,0.661 71.5,1.3299 30.19158,4.6613 54.36975,13.9749 78.7415,30.3319 28.6548,19.2316 49.1388,40.2942 102.9197,105.8267 48.6445,59.2738 77.6017,83.4227 119.3075,99.4971 24.9879,9.6309 55.0733,18.3976 99.5313,29.0028 74.8753,17.861 94.7897,23.5133 112.7519,32.0025 28.5427,13.4896 35.8537,27.6905 25.1586,48.8678 -4.2699,8.4549 -8.9524,14.4523 -22.4834,28.7975 -14.5091,15.3821 -25.8649,29.4797 -45.3763,56.3323 -20.3839,28.0534 -27.8167,37.072 -41.2568,50.059 -26.1136,25.2332 -55.5875,38.6378 -99.794,45.3856 -31.2463,4.7696 -87.088,4.1574 -134,-1.4691 -61.4735,-7.3729 -111.48229,-18.3804 -186.76742,-41.1098 -77.92786,-23.5272 -94.96182,-28.1073 -122.90677,-33.0475 -14.55989,-2.5739 -17.86558,-2.7985 -41.32581,-2.8077 -22.7342,-0.01 -26.74238,0.2416 -36.9544,2.3091 -36.50863,7.3914 -66.96842,22.8354 -106.0456,53.7684 -34.03906,26.9448 -80.42201,53.6554 -137.33738,79.0886 -19.29625,8.6227 -52.0548,22.1756 -61.36478,25.3878 l -5.20215,1.795 z m 320.30959,-277.8 c 11.45249,-2.1719 21.78986,-12.6472 23.93567,-24.255 3.90552,-21.1269 -14.64085,-39.6732 -35.76775,-35.7677 -11.79683,2.1808 -22.13769,12.5216 -24.31845,24.3185 -3.37397,18.2514 10.22531,35.3295 29.15661,36.615 0.88743,0.06 4.03469,-0.3496 6.99392,-0.9108 z M 256.85759,1391.4497 c 6.63279,-1.9698 15.74453,-8.0898 21.37159,-14.3546 13.07679,-14.5587 16.07633,-35.5686 7.58028,-53.0951 -4.19878,-8.6617 -14.14779,-18.6107 -22.80946,-22.8095 -18.71111,-9.0703 -40.04814,-5.3009 -55.07928,9.7302 -11.50187,11.5019 -16.3305,25.7789 -13.97792,41.3293 2.96331,19.5873 20.08668,37.4205 39.0572,40.6763 6.61109,1.1346 17.29034,0.4736 23.85759,-1.4766 z m 99.24984,-78.4701 c 11.45249,-2.1719 21.78986,-12.6472 23.93567,-24.255 3.90552,-21.1269 -14.64085,-39.6732 -35.76775,-35.7677 -11.79683,2.1808 -22.13769,12.5216 -24.31845,24.3185 -3.37397,18.2514 10.22531,35.3295 29.15661,36.615 0.88743,0.06 4.03469,-0.3496 6.99392,-0.9108 z M 1923.5,1387.6634 c -2.75,-1.8554 -11.75,-7.4228 -20,-12.372 -71.8975,-43.1317 -140.1637,-67.4536 -207.5,-73.9281 -19.6955,-1.8938 -55.124,-1.3995 -73,1.0184 -33.1104,4.4785 -79.8137,7.1198 -110.3218,6.2391 -66.3312,-1.9147 -111.231,-13.8869 -141.1009,-37.6235 -15.5031,-12.3197 -27.128,-30.5518 -32.0867,-50.3239 -13.5257,-53.932 15.5752,-134.3993 82.4479,-227.97708 22.6193,-31.65211 53.0086,-68.11273 60.9483,-73.12488 22.7051,-14.33305 68.8639,-35.169 103.1627,-46.56729 74.6261,-24.79997 160.962,-31.21513 242.4505,-18.0152 41.0655,6.652 84.18,18.62163 122.7108,34.06749 19.6535,7.87851 52.5137,23.78311 53.2837,25.78974 0.828,2.15773 2.4486,19.45218 2.4797,26.46284 0.014,3.19496 0.4068,5.57354 0.8725,5.28574 1.2765,-0.78895 2.1533,22.99217 2.1533,58.40524 0,35.4131 -0.8768,59.1942 -2.1533,58.4052 -0.4657,-0.2878 -0.8467,1.906 -0.8467,4.8752 0,2.9691 -0.6702,12.5581 -1.4894,21.309 -8.693,92.8652 -28.1282,178.642 -59.5699,262.9106 -11.0977,29.7437 -14.5537,37.9617 -16.0933,38.2684 -0.7411,0.1477 -3.5974,-1.2496 -6.3474,-3.105 z m -31.3926,-232.6838 c 11.4525,-2.1719 21.7899,-12.6472 23.9357,-24.255 3.9055,-21.1269 -14.6408,-39.6732 -35.7677,-35.7677 -7.5981,1.4046 -15.2914,6.5919 -19.7617,13.3246 -13.0594,19.6688 0.533,45.9747 24.5998,47.6089 0.8874,0.06 4.0347,-0.3496 6.9939,-0.9108 z m -146,-173.99997 c 20.8191,-3.94825 31.1823,-28.92096 19.3789,-46.69814 -12.2028,-18.37876 -38.7698,-18.37876 -50.9726,0 -13.0594,19.66884 0.533,45.97468 24.5998,47.60894 0.8874,0.0603 4.0347,-0.3496 6.9939,-0.9108 z"
       id="path849"
       inkscape:connector-curvature="0" />
    <path
       style="fill:#4f2211"
       d="m 402,1509.4985 c -28.75437,-5.8106 -52.67732,-26.6257 -61.43575,-53.4545 -6.10938,-18.7142 -6.10938,-33.3738 0,-52.088 C 350.97451,1372.0674 383.05782,1349 417,1349 c 33.94218,0 66.02549,23.0674 76.43575,54.956 6.10938,18.7142 6.10938,33.3738 0,52.088 -12.19131,37.3443 -53.02544,61.2165 -91.43575,53.4545 z m 270,-109.59 c -5.13091,-0.9946 -19,-7.5373 -19,-8.9631 0,-1.2313 -7.71413,-8.9454 -8.94537,-8.9454 -0.51996,0 -2.57541,-3.2982 -4.56768,-7.3292 -7.05987,-14.2847 -7.05987,-29.0569 0,-43.3416 1.99227,-4.031 4.04772,-7.3292 4.56768,-7.3292 1.23124,0 8.94537,-7.7141 8.94537,-8.9454 0,-1.9387 14.6817,-8.1935 21.82923,-9.2999 9.84699,-1.5242 19.3312,0.032 28.84154,4.7323 4.03108,1.9922 7.32923,4.0477 7.32923,4.5676 0,1.2313 7.71413,8.9454 8.94537,8.9454 1.93873,0 8.19358,14.6817 9.29991,21.8292 1.52417,9.847 -0.032,19.3312 -4.73223,28.8416 -1.99227,4.031 -4.04772,7.3292 -4.56768,7.3292 -1.23124,0 -8.94537,7.7141 -8.94537,8.9454 0,1.5609 -14.10438,7.9837 -19.88649,9.0558 -6.28102,1.1647 -12.79031,1.1331 -19.11351,-0.093 z m 867.0701,-149.0416 c -1.3364,-0.5146 -3.0134,-1.7687 -3.7267,-2.787 -0.7132,-1.0182 -2.4619,-2.1438 -3.886,-2.5012 -1.7086,-0.4289 -3.0877,-1.8429 -4.0549,-4.1578 -0.8061,-1.9294 -2.1047,-3.7531 -2.8857,-4.0528 -2.1623,-0.8298 -3.4014,-6.0639 -3.4014,-14.3681 0,-8.4011 1.2421,-13.5395 3.4804,-14.3984 0.8245,-0.3164 1.9886,-1.9796 2.5869,-3.696 0.729,-2.091 2.2125,-3.5906 4.4961,-4.5448 1.8745,-0.7832 3.6534,-2.063 3.9531,-2.844 0.8298,-2.1623 6.0639,-3.4014 14.3681,-3.4014 8.3042,0 13.5383,1.2391 14.3681,3.4014 0.2997,0.781 2.0786,2.0608 3.9531,2.844 2.2836,0.9542 3.7671,2.4538 4.4961,4.5448 0.5983,1.7164 1.7624,3.3796 2.5869,3.696 2.2383,0.8589 3.4804,5.9973 3.4804,14.3984 0,8.4011 -1.2421,13.5395 -3.4804,14.3984 -0.8245,0.3164 -1.9886,1.9796 -2.5869,3.696 -0.729,2.091 -2.2125,3.5906 -4.4961,4.5448 -1.8745,0.7832 -3.6534,2.063 -3.9531,2.844 -0.2997,0.781 -1.9677,1.8609 -3.7065,2.3997 -3.9883,1.2358 -18.3678,1.2251 -21.5915,-0.016 z M 1862,1069.969 c -6.8313,-2.4501 -12.8517,-6.5926 -14.9228,-10.268 -0.8674,-1.5395 -2.7022,-3.3487 -4.0772,-4.0206 -3.3466,-1.6351 -8.2259,-9.0862 -10.3181,-15.7566 -2.5167,-8.0235 -1.8339,-26.5448 1.232,-33.4227 2.9032,-6.51271 6.68,-11.3962 9.7023,-12.54528 1.3308,-0.50597 2.8336,-2.0088 3.3396,-3.33962 1.1491,-3.02229 6.0326,-6.79908 12.5453,-9.70225 6.8779,-3.06596 25.3992,-3.74872 33.4227,-1.23208 6.6704,2.09225 14.1215,6.97157 15.7566,10.31813 0.6719,1.375 2.4811,3.20073 4.0206,4.05717 3.712,2.06509 8.5118,9.30703 10.6171,16.01903 2.5167,8.0235 1.8339,26.5448 -1.232,33.4227 -2.9032,6.5127 -6.68,11.3962 -9.7023,12.5453 -1.3308,0.506 -2.8336,2.0088 -3.3396,3.3396 -1.1489,3.0217 -6.0314,6.7982 -12.5453,9.7034 -7.2561,3.2362 -26.5586,3.7296 -34.4989,0.8818 z"
       id="path847"
       inkscape:connector-curvature="0" />
  </g>
</svg>
