<?xml version="1.0" encoding="UTF-8" standalone="no"?>
<svg
   xmlns:dc="http://purl.org/dc/elements/1.1/"
   xmlns:cc="http://creativecommons.org/ns#"
   xmlns:rdf="http://www.w3.org/1999/02/22-rdf-syntax-ns#"
   xmlns:svg="http://www.w3.org/2000/svg"
   xmlns="http://www.w3.org/2000/svg"
   xmlns:sodipodi="http://sodipodi.sourceforge.net/DTD/sodipodi-0.dtd"
   xmlns:inkscape="http://www.inkscape.org/namespaces/inkscape"
   version="1.1"
   id="svg815"
   width="1000"
   height="1000"
   viewBox="0 0 1000 1000"
   sodipodi:docname="saturn.svg"
   inkscape:version="1.0.1 (3bc2e813f5, 2020-09-07)"
   inkscape:export-filename=""
   inkscape:export-xdpi="144"
   inkscape:export-ydpi="144">
  <metadata
     id="metadata821">
    <rdf:RDF>
      <cc:Work
         rdf:about="">
        <dc:format>image/svg+xml</dc:format>
        <dc:type
           rdf:resource="http://purl.org/dc/dcmitype/StillImage" />
        <dc:title />
      </cc:Work>
    </rdf:RDF>
  </metadata>
  <defs
     id="defs819" />
  <sodipodi:namedview
     pagecolor="#ffffff"
     bordercolor="#666666"
     borderopacity="1"
     objecttolerance="10"
     gridtolerance="10"
     guidetolerance="10"
     inkscape:pageopacity="0"
     inkscape:pageshadow="2"
     inkscape:window-width="1633"
     inkscape:window-height="873"
     id="namedview817"
     showgrid="false"
     inkscape:zoom="0.35355339"
     inkscape:cx="1232.3144"
     inkscape:cy="384.33722"
     inkscape:window-x="0"
     inkscape:window-y="0"
     inkscape:window-maximized="1"
     inkscape:current-layer="svg815"
     inkscape:document-rotation="0" />
  <g
     id="g825"
     transform="matrix(0.4952947,0,0,0.4952947,0.0058249,0.0051943)">
    <path
       style="fill:#c8c2a8"
       d="m 965,2018.4048 c -2.475,-0.2 -12.375,-0.8503 -22,-1.4451 C 769.47842,2006.2356 591.44338,1945.165 445.72371,1846.3814 314.88766,1757.6873 210.45498,1644.9642 131.77384,1507.5082 106.85939,1463.9827 79.085186,1404.5167 64.2798,1363 27.32664,1259.3774 10.257536,1180.8511 1.7865202,1075.5 0.04231,1053.8079 0.05067043,965.03467 1.7989516,943.5 6.2920073,888.15622 11.556831,850.13885 20.985613,804.95282 49.816919,666.78311 106.53388,537.37344 189.04321,421.5 234.14064,358.16661 287.59938,299.24503 345.97126,248.53578 392.81243,207.84357 453.56097,164.83231 512,130.98389 c 18.92983,-10.96433 79.66832,-41.626998 87,-43.920288 2.475,-0.77416 11.7,-4.422736 20.5,-8.107947 C 723.48371,35.409989 828.20286,10.438936 943,1.8147025 c 23.52097,-1.76703306 109.479,-1.76703306 133,0 73.0485,5.4878333 140.5611,17.1174325 204.7499,35.2698465 128.8481,36.437876 249.5845,98.025201 355.881,181.533961 152.7903,120.03525 269.6258,287.66636 331.6797,475.88149 26.7235,81.05498 41.8935,158.13219 48.9085,248.5 1.6944,21.82654 1.7169,112.1955 0.033,132 -0.6782,7.975 -1.9314,22.825 -2.7851,33 -4.7557,56.6846 -15.7964,116.2693 -31.8703,172 -5.7215,19.8372 -22.5687,69.8032 -30.5142,90.5 -21.2135,55.2577 -52.4658,118.4282 -83.7333,169.2506 -28.7788,46.7772 -62.3615,92.445 -98.7225,134.2486 -16.8369,19.357 -47.3989,51.6611 -54.7669,57.8885 -3.6522,3.0868 -12.6631,11.2425 -20.0244,18.1239 -56.8674,53.16 -122.3024,100.5333 -195.3354,141.418 -20.2413,11.3313 -69.8305,35.6312 -92.5,45.3273 -104.2983,44.6096 -206.9846,69.9179 -324,79.8537 -17.1872,1.4594 -105.52075,2.8025 -118,1.7942 z"
       id="path839"
       inkscape:connector-curvature="0" />
    <path
       style="fill:#c3b88e"
       d="m 959.5,2018 -10,-0.6127 9,-0.3683 c 4.95,-0.2026 6.975,-0.5033 4.5,-0.6682 -2.475,-0.1649 -12.15,-0.7909 -21.5,-1.3911 C 811.29629,2006.6016 680.36122,1970.8752 560,1910.8652 364.72296,1813.5035 208.48399,1658.1456 110.47819,1463.8783 93.000293,1429.2336 68,1372.0244 68,1366.6738 c 0,-1.355 2.192073,-0.5911 11.046012,3.8493 41.418608,20.7722 100.100848,41.5938 216.953988,76.9796 120.11104,36.3724 161.45447,49.9831 209.5,68.9698 112.31635,44.3853 169.80816,89.7032 182.9508,144.211 l 1.73206,7.1835 10.15857,8.2602 c 29.50177,23.9884 56.89489,56.3489 95.57719,112.9087 57.19671,83.631 71.40005,102.6594 101.36425,135.7993 28.31224,31.3128 64.49455,62.662 98.25958,85.1344 6.02665,4.0111 11.38505,7.6838 11.90755,8.1616 1.0403,0.9514 -31.74449,0.8617 -47.95,-0.1312 z m 571,-161.8647 c -128.6572,-56.9721 -275.9096,-181.3001 -493.5,-416.6713 -16.775,-18.1459 -47.64994,-51.8983 -68.61097,-75.0054 -20.96104,-23.1071 -43.01104,-46.662 -49,-52.3443 -56.50654,-53.6124 -136.5873,-95.1681 -251.42565,-130.4706 -44.35631,-13.6355 -66.51493,-19.5539 -170.58194,-45.5607 -44.06521,-11.0121 -89.97672,-22.7158 -102.02557,-26.0081 -93.58543,-25.572 -154.359,-49.3594 -202.19174,-79.1398 -18.13254,-11.2893 -34.98064,-24.7205 -52.69886,-42.01133 C 120.77421,969.70768 105.28845,957.76106 81.814761,943.67735 65.092606,933.64442 36.665529,918.86729 18,910.50479 12.225,907.91748 7.3560623,905.66402 7.1801385,905.4971 6.5800583,904.92773 12.02892,864.55085 15.494868,843.88371 24.696143,789.01733 37.134373,739.98786 55.421361,686.5 60.122355,672.75 64.930285,658.575 66.105651,655 73.956248,631.12157 91.386789,590.98252 109.47819,555.1217 168.33728,438.45111 249.43686,334.19665 348,248.4991 363.3049,235.19198 389.34281,214 390.38795,214 c 0.3815,0 5.96277,-3.96671 12.40284,-8.81491 23.92547,-18.01154 50.01223,-35.89038 74.81806,-51.27735 8.19013,-5.08031 16.46615,-10.49196 18.39115,-12.02589 8.97165,-7.14904 76.85599,-42.876935 98.45636,-51.81812 10.09061,-4.176869 10.56448,-4.119865 40.04364,4.816958 88.51594,26.834252 174.1481,64.855442 255.15177,113.288902 65.69171,39.27818 117.31283,78.73936 163.90223,125.29325 52.0012,51.9616 81.5166,96.2008 99.4101,149.00136 7.0125,20.6924 11.1642,30.83028 19.1735,46.81856 51.5584,102.92192 182.0503,230.36571 362.8624,354.38662 138.1561,94.76273 292.6046,176.57632 416.5,220.62622 16.6409,5.9165 45.232,15.0627 55.2399,17.671 3.0876,0.8047 4.3954,1.7244 4.8119,3.3836 1.1116,4.429 -6.3733,52.364 -13.5374,86.697 -6.6316,31.7811 -18.8805,79.097 -21.9711,84.8718 -0.6902,1.2897 -5.4374,14.773 -10.5493,29.963 -20.6178,61.2656 -38.9227,103.206 -75.5574,173.118 -22.9249,43.7487 -62.6547,102.4614 -100.8251,148.9992 -21.7804,26.5547 -65.8477,74.5179 -75.7205,82.4145 -2.8099,2.2475 -11.1458,9.7165 -18.5243,16.5979 -26.7466,24.9446 -60.2544,52.5422 -91.1988,75.1129 -20.9269,15.2639 -56.4941,38.8836 -58.4587,38.8215 -0.9401,-0.03 -7.5592,-2.6445 -14.7092,-5.8107 z m 466,-880.03022 C 1870.1796,924.68985 1724.9599,839.63286 1588.5,737.13444 1515.7419,682.48399 1454.4225,630.00525 1396.1386,572.50635 1324.1015,501.43958 1276.8429,443.2583 1238.4173,378.33155 1211.0445,332.08056 1193.4137,309.33124 1155.553,271.41053 1117.7918,233.58951 1083.4368,205.68897 1034.5,173.10029 970.43397,130.43655 900.60357,93.998996 824.03598,63.280023 802.17149,54.507974 760.08782,39.060754 753.67678,37.453997 752.09926,37.058632 751.23334,36.366664 751.71427,35.885734 753.75415,33.845854 806.16775,21.991984 837,16.597495 869.96303,10.830202 909.22843,6.1118992 941.5,4.0403171 950.85,3.4401204 960.525,2.8141323 963,2.6492324 965.475,2.4843325 963.45,2.1941201 958.5,2.004316 l -9,-0.3450984 11,-0.70238681 c 14.24931,-0.90986597 83.7507,-0.90986597 98,0 l 11,0.70238681 -9,0.3506394 c -5.7301,0.223244 -7.1834,0.4595118 -4,0.6502962 49.6329,2.9745633 77.1517,5.998208 122.5,13.4597458 136.7482,22.500333 276.5815,78.713182 394.2763,158.498731 130.3749,88.38142 232.9555,199.14964 311.9802,336.88137 14.2874,24.9014 38.9676,74.499 50.5074,101.5 44.8406,104.91879 72.1026,218.00002 79.1958,328.5 0.6002,9.35 1.2262,19.025 1.3911,21.5 0.1649,2.475 0.3784,0.4875 0.4745,-4.41667 0.096,-4.90416 0.3438,-8.72916 0.5505,-8.5 0.2067,0.22917 0.6968,7.95417 1.089,17.16667 0.6756,15.87009 0.6165,16.74576 -1.1258,16.66925 -1.0115,-0.0444 -10.389,-3.56079 -20.839,-7.81417 z"
       id="path837"
       inkscape:connector-curvature="0" />
    <path
       style="fill:#b7af8d"
       d="m 1706.405,1729.8776 c -3.2696,-3.6426 -49.9088,-46.7084 -71.5864,-66.1016 C 1430.4651,1480.9582 1203.3873,1321.597 919.5,1161.772 835.07761,1114.2432 765.40841,1076.9355 609,995.49962 524.61006,951.56103 470.56223,923.13101 435.5,904.23584 272.34067,816.30867 177.30376,753.88341 106,687.80284 89.508526,672.51941 69.641242,651.64559 69.211637,649.15066 68.532285,645.20533 91.03014,593.81925 109.55705,557 168.9164,439.03281 249.42576,335.2063 348,249.4991 366.90596,233.06096 389.439,215 391.04143,215 c 1.62485,0 18.18635,11.12513 33.95857,22.81155 69.58116,51.55611 146.71143,127.84103 264.58837,261.68845 12.10936,13.75 56.91414,65.275 99.56617,114.5 165.56177,191.07598 225.17406,256.40366 326.29466,357.5788 76.5879,76.6291 126.9051,123.3004 194.8245,180.7076 185.3703,156.6799 374.9411,273.2184 570.2263,350.5462 3.2569,1.2897 4.9516,2.5356 4.861,3.5741 -0.2269,2.6033 -22.7118,39.4986 -37.841,62.0933 -37.4905,55.9897 -73.9598,100.7933 -123.1148,151.25 -12.5313,12.8631 -14.5337,13.9898 -18.0002,10.1276 z m 239.5701,-438.0338 C 1745.3801,1241.3157 1589.2448,1175.1286 1445,1079.4761 1320.2323,996.73939 1202.9979,892.06965 1070.7531,745.33949 1058.9743,732.27056 1056.5386,728.8153 1038.6851,699.84816 935.23118,531.99549 871.32251,440.95546 800.11703,360 782.37003,339.82295 736.18851,293.44416 718.5,278.03433 681.61581,245.90165 643.66903,218.37473 605.5,196.06315 578.04504,180.01444 533.98334,159.08698 505.22297,148.43575 499.60034,146.35345 495,144.10046 495,143.42912 495,140.9247 521.43596,125.92832 559,107.1237 588.93295,92.139221 600.51114,87 604.33685,87 c 3.47635,0 36.04659,9.670986 62.16315,18.45792 51.38742,17.28934 97.65357,36.60224 147.84891,61.71665 135.76054,67.92555 243.66989,154.06103 301.07639,240.32543 17.7879,26.72984 27.2451,45.86434 37.5921,76.05914 10.3509,30.20621 19.5308,49.72201 35.4858,75.44086 25.2891,40.76492 55.7587,78.04282 102.4553,125.34856 32.7047,33.13132 58.7956,57.00726 98.0527,89.72857 152.4886,127.10128 357.7009,250.56257 527.9888,317.65247 29.6929,11.6984 71.944,26.0582 89.2615,30.3371 3.5348,0.8734 4.9032,1.7414 5.3118,3.3693 0.3027,1.206 -0.4057,9.1388 -1.5742,17.6284 -6.0433,43.9079 -16.1761,92.7572 -27.9898,134.9356 -4.7027,16.79 -5.7553,19.6885 -7.3758,20.3104 -0.6508,0.2497 -13.5471,-2.6602 -28.6584,-6.4666 z M 1935.8744,691.18412 C 1782.9704,614.10495 1601.9526,476.88766 1440.956,316.02029 1341.8569,217.00066 1261.2036,119.5868 1205.5666,31.714492 c -3.7559,-5.932029 -6.6285,-10.985964 -6.3835,-11.230967 1.2671,-1.267064 53.8946,10.924246 84.3169,19.532241 100.2274,28.359359 203.8887,76.701554 290.7763,135.602864 129.8871,88.05074 231.0824,197.37505 309.9806,334.88137 22.3099,38.88244 50.4938,98.36809 66.8048,141 6.0331,15.76874 18.9383,53.01358 18.9383,54.65663 0,0.46385 -0.619,0.84337 -1.3756,0.84337 -0.7566,0 -15.4941,-7.11715 -32.75,-15.81588 z"
       id="path835"
       inkscape:connector-curvature="0" />
    <path
       style="fill:#c0ad63"
       d="m 1706.405,1729.8776 c -3.2696,-3.6426 -49.9088,-46.7084 -71.5864,-66.1016 C 1430.4651,1480.9582 1203.3873,1321.597 919.5,1161.772 835.07761,1114.2432 765.40841,1076.9355 609,995.49962 524.61006,951.56103 470.56223,923.13101 435.5,904.23584 272.34067,816.30867 177.30376,753.88341 106,687.80284 89.508526,672.51941 69.641242,651.64559 69.211637,649.15066 68.532285,645.20533 91.03014,593.81925 109.55705,557 168.9164,439.03281 249.42576,335.2063 348,249.4991 366.90596,233.06096 389.439,215 391.04143,215 c 1.62485,0 18.18635,11.12513 33.95857,22.81155 69.58116,51.55611 146.71143,127.84103 264.58837,261.68845 12.10936,13.75 56.91414,65.275 99.56617,114.5 165.56177,191.07598 225.17406,256.40366 326.29466,357.5788 76.5879,76.6291 126.9051,123.3004 194.8245,180.7076 185.3703,156.6799 374.9411,273.2184 570.2263,350.5462 3.2569,1.2897 4.9516,2.5356 4.861,3.5741 -0.2269,2.6033 -22.7118,39.4986 -37.841,62.0933 -37.4905,55.9897 -73.9598,100.7933 -123.1148,151.25 -12.5313,12.8631 -14.5337,13.9898 -18.0002,10.1276 z M 1944,1289.586 c -187.1668,-47.7911 -329.2446,-105.8675 -464.1103,-189.7119 -134.5551,-83.6515 -264.6219,-196.85301 -404.2486,-351.83155 -16.4815,-18.29358 -16.8041,-18.74192 -36.3328,-50.5 C 897.08649,466.25777 806.78072,349.378 703.6815,263.15179 645.13438,214.18639 580.77174,175.93913 512.26303,149.40208 c -8.38034,-3.24614 -15.24284,-6.38208 -15.25,-6.96874 -0.0338,-2.77009 95.31591,-52.466418 103.67241,-54.034106 8.64112,-1.621084 87.29711,24.380436 138.93671,45.928676 166.70973,69.56485 306.87525,172.09728 374.80315,274.17209 17.8829,26.87251 27.3922,46.21716 38.0242,77.35205 13.6125,39.86313 29.9575,70.06315 59.8854,110.64795 39.9464,54.1708 101.5513,116.79295 175.6763,178.57713 164.3105,136.95499 389.8219,269.39387 563.2276,330.77377 18.5016,6.5489 28.9228,9.8819 58.5112,18.7132 1.769,0.528 1.5849,4.0142 -1.2757,24.154 -6.2167,43.7688 -16.1132,91.0083 -27.4956,131.2477 -4.0895,14.4571 -5.2322,17.0944 -7.3511,16.9658 -0.6202,-0.038 -13.9526,-3.3432 -29.6276,-7.3456 z"
       id="path833"
       inkscape:connector-curvature="0" />
    <path
       style="fill:#938d74"
       d="m 1944,1289.586 c -187.1668,-47.7911 -329.2446,-105.8675 -464.1103,-189.7119 -134.5551,-83.6515 -264.6219,-196.85301 -404.2486,-351.83155 -16.4815,-18.29358 -16.8041,-18.74192 -36.3328,-50.5 C 897.08649,466.25777 806.78072,349.378 703.6815,263.15179 645.13438,214.18639 580.77174,175.93913 512.26303,149.40208 c -8.38034,-3.24614 -15.24284,-6.38208 -15.25,-6.96874 -0.0338,-2.77009 95.31591,-52.466418 103.67241,-54.034106 8.64112,-1.621084 87.29711,24.380436 138.93671,45.928676 166.70973,69.56485 306.87525,172.09728 374.80315,274.17209 17.8829,26.87251 27.3922,46.21716 38.0242,77.35205 13.6125,39.86313 29.9575,70.06315 59.8854,110.64795 39.9464,54.1708 101.5513,116.79295 175.6763,178.57713 164.3105,136.95499 389.8219,269.39387 563.2276,330.77377 18.5016,6.5489 28.9228,9.8819 58.5112,18.7132 1.769,0.528 1.5849,4.0142 -1.2757,24.154 -6.2167,43.7688 -16.1132,91.0083 -27.4956,131.2477 -4.0895,14.4571 -5.2322,17.0944 -7.3511,16.9658 -0.6202,-0.038 -13.9526,-3.3432 -29.6276,-7.3456 z"
       id="path831"
       inkscape:connector-curvature="0" />
    <path
       style="fill:#817d69"
       d="m 1947.5,1288.8721 c -238.4383,-60.8017 -408.6913,-139.2469 -576,-265.3958 C 1281.4488,955.57873 1185.1295,865.96811 1089.9085,761.49761 1063.0572,732.038 1059.8362,728.09084 1051.5572,714.5 946.88978,542.67657 869.84139,432.80828 796.99274,351.5 778.71038,331.09458 742.71135,295.11308 724,278.54281 658.75851,220.76669 590.30738,178.26246 514.93773,148.72712 506.19788,145.3022 499.18394,142.05 499.35119,141.5 500.52484,137.64055 595.61122,89 601.98234,89 c 3.1297,0 38.56808,10.447701 61.51766,18.13622 133.65162,44.77566 262.42422,116.47426 357,198.7721 16.8676,14.6778 50.1351,48.26517 62.436,63.0362 26.5659,31.90057 45.4285,61.1447 58.0863,90.05548 2.2876,5.225 7.0026,17.825 10.4777,28 3.4751,10.175 8.1898,22.775 10.4771,28 52.0045,118.79871 216.9817,274.99688 439.0229,415.66089 134.907,85.46421 279.2311,155.86031 387.11,188.81831 9.9389,3.0364 18.6893,5.5208 19.4452,5.5208 3.31,0 3.3803,3.5222 0.4708,23.5999 -4.8225,33.2789 -11.1039,65.6045 -18.9935,97.7461 -5.097,20.7646 -12.712,47.7541 -13.7369,48.6869 -0.4376,0.3983 -12.9456,-2.374 -27.7956,-6.1608 z"
       id="path829"
       inkscape:connector-curvature="0" />
    <path
       style="fill:#797564"
       d="M 1958,1290.3819 C 1805.0462,1251.4523 1700.856,1214.1387 1591,1158.9484 1421.1669,1073.6263 1269.9491,954.44404 1103.8483,775 1069.8509,738.27151 1061.2031,728.02476 1053.3614,715.17783 997.67656,623.95066 944.95583,542.61585 905.13382,486.5 777.57303,306.74559 663.91965,207.50075 518.50631,148.88765 c -9.34653,-3.76739 -17.10011,-7.19582 -17.23017,-7.61873 -0.63893,-2.07757 90.86887,-49.455093 98.16385,-50.823641 5.66299,-1.062383 63.85149,16.951441 104.94805,32.489511 119.06373,45.01641 233.90989,112.07467 316.95166,185.06691 47.3387,41.60989 82.5819,83.83334 107.6356,128.95389 7.6012,13.68939 13.5867,27.61703 19.9949,46.52659 11.967,35.3123 23.9739,59.46889 45.9856,92.51782 25.008,37.54793 51.52,68.61569 99.4745,116.56831 50.8944,50.89231 95.2219,89.15712 160.5697,138.60844 171.9949,130.15548 391.5577,248.56345 541.951,292.26865 6.8442,1.989 12.6036,3.7759 12.7986,3.9708 0.1949,0.195 -0.5972,7.2686 -1.7603,15.7191 -6.1417,44.6236 -16.3224,93.3831 -28.6532,137.2314 -3.3194,11.8039 -4.1024,13.6211 -5.835,13.5423 -1.1006,-0.05 -8.0761,-1.6373 -15.5011,-3.5271 z"
       id="path827"
       inkscape:connector-curvature="0" />
  </g>
</svg>
