<?xml version="1.0" encoding="UTF-8" standalone="no"?>
<svg
   xmlns:dc="http://purl.org/dc/elements/1.1/"
   xmlns:cc="http://creativecommons.org/ns#"
   xmlns:rdf="http://www.w3.org/1999/02/22-rdf-syntax-ns#"
   xmlns:svg="http://www.w3.org/2000/svg"
   xmlns="http://www.w3.org/2000/svg"
   xmlns:sodipodi="http://sodipodi.sourceforge.net/DTD/sodipodi-0.dtd"
   xmlns:inkscape="http://www.inkscape.org/namespaces/inkscape"
   version="1.1"
   id="svg815"
   width="1000"
   height="1000"
   viewBox="0 0 1000 1000"
   sodipodi:docname="uranus.svg"
   inkscape:version="1.0.1 (3bc2e813f5, 2020-09-07)"
   inkscape:export-filename=""
   inkscape:export-xdpi="144"
   inkscape:export-ydpi="144">
  <metadata
     id="metadata821">
    <rdf:RDF>
      <cc:Work
         rdf:about="">
        <dc:format>image/svg+xml</dc:format>
        <dc:type
           rdf:resource="http://purl.org/dc/dcmitype/StillImage" />
        <dc:title />
      </cc:Work>
    </rdf:RDF>
  </metadata>
  <defs
     id="defs819" />
  <sodipodi:namedview
     pagecolor="#ffffff"
     bordercolor="#666666"
     borderopacity="1"
     objecttolerance="10"
     gridtolerance="10"
     guidetolerance="10"
     inkscape:pageopacity="0"
     inkscape:pageshadow="2"
     inkscape:window-width="1633"
     inkscape:window-height="873"
     id="namedview817"
     showgrid="false"
     inkscape:zoom="0.125"
     inkscape:cx="3298.6247"
     inkscape:cy="906.14548"
     inkscape:window-x="0"
     inkscape:window-y="0"
     inkscape:window-maximized="1"
     inkscape:current-layer="svg815"
     inkscape:document-rotation="0" />
  <g
     id="g825"
     transform="matrix(0.49677099,0,0,0.49677099,0.00419117,0.00549549)">
    <path
       style="fill:#d7eaea"
       d="m 964,2012.3728 c -1.375,-0.1801 -13.3,-0.7754 -26.5,-1.323 -40.03767,-1.6607 -90.03637,-8.5056 -139,-19.0294 C 625.43728,1954.8241 468.51604,1875.0639 334.5,1756.1775 317.74175,1741.3112 271.68882,1695.2582 256.82248,1678.5 145.74657,1553.2884 69.382295,1408.9957 28.988171,1248 17.380357,1201.7356 7.5211065,1145.2378 3.5974571,1102.5 -1.2586685,1049.6054 -0.8207703,946.85908 4.4583686,900.5 15.043532,807.54574 36.332924,722.34963 70.63984,635.65429 114.07365,525.89482 176.79281,424.46559 256.85976,334.5 c 6.36331,-7.15 21.03554,-22.6074 32.60495,-34.34978 50.38831,-51.14166 95.98815,-88.71139 157.72957,-129.9535 C 583.21503,79.337433 733.76156,24.214856 898.5,4.9512347 c 27.27707,-3.1896325 57.74665,-4.44316344 108,-4.44316344 63.8823,0 93.2132,1.78850414 139,8.47578874 200.0201,29.213463 383.2971,114.63535 534,248.88714 16.713,14.88857 46.3391,43.91284 57.3885,56.22284 4.7363,5.27661 13.8337,15.40161 20.2164,22.5 56.8669,63.2431 107.4509,137.36861 147.3365,215.90616 55.4791,109.24202 89.9472,225.138 104.0919,350 3.688,32.5551 5.6075,114.9979 3.5544,152.6577 -10.1303,185.816 -67.2378,358.0252 -169.5884,511.3981 -24.8076,37.1743 -61.9004,85.4032 -81.4815,105.9442 -3.1458,3.3 -11.1353,11.85 -17.7544,19 -15.7379,17.0001 -50.3539,51.033 -66.7634,65.6388 -91.9399,81.834 -196.4533,145.5279 -311.7416,189.9857 -95.8151,36.9485 -207.3647,60.7556 -303.7584,64.8287 -22.796,0.9633 -90.6107,1.2566 -97,0.4196 z"
       id="path839"
       inkscape:connector-curvature="0" />
    <path
       style="fill:#cae2e2"
       d="m 960.5,2012.3801 c -32.28472,-1.956 -62.76646,-4.8675 -88.5,-8.453 C 671.20209,1975.9493 487.55537,1890.9592 334.5,1755.177 317.74574,1740.3136 272.68645,1695.2543 257.82299,1678.5 165.36618,1574.2816 95.82313,1454.1803 51.975366,1323 22.762363,1235.6028 6.166396,1148.5122 0.90534224,1055 -0.58738442,1028.4676 0.28169048,958.02463 2.4104899,933 11.466048,826.54941 32.883107,734.16333 70.64609,638.65429 92.213946,584.10549 123.32359,521.91671 152.48912,475.04849 211.11645,380.83593 290.49207,291.84199 379.5,220.52961 c 7.7,-6.16917 17.375,-13.45167 21.5,-16.18332 4.125,-2.73165 13.27448,-9.13909 20.33218,-14.23876 C 455.2169,165.62353 509.00487,132.4444 546,113.20613 662.1011,52.831042 800.42422,13.396381 929.5,3.8737821 c 9.40992,-0.6942197 17.31857,-1.7273543 17.71353,-2.3139808 0.99911,-1.48398668 117.57387,-1.48398668 118.57297,0 0.3949,0.5866265 8.3036,1.6197611 17.7135,2.3139808 104.9218,7.7406309 217.3038,35.4320969 317.0762,78.1290689 130.1718,55.706229 250.4824,140.136419 340.0396,238.629109 78.0957,85.88764 129.895,162.95688 177.6853,264.36804 50.1852,106.493 82.2344,228.05571 90.8251,344.5 0.6898,9.35 1.6725,17.28486 2.1837,17.63303 1.2601,0.85808 2.1582,74.27897 1.214,99.24167 -0.4135,10.931 -1.0569,19.381 -1.4297,18.7776 -0.3729,-0.6033 -1.2412,6.5849 -1.9294,15.9739 -6.8957,94.0697 -30.6814,197.6772 -66.2034,288.3738 -4.5237,11.55 -9.0191,23.25 -9.9899,26 -5.5496,15.7213 -31.1219,68.7592 -46.5277,96.5 -22.5689,40.6393 -49.8626,82.7844 -77.102,119.0558 -16.1659,21.5261 -39.9281,50.6604 -47.047,57.6833 -2.0968,2.0685 -9.7257,10.2859 -16.9531,18.2609 -15.7472,17.3761 -49.8417,51.1174 -67.8417,67.1388 -44.7991,39.8749 -98.1888,79.626 -145.5,108.3317 -7.975,4.8388 -16.3,10.0209 -18.5,11.5159 -10.6481,7.2357 -53.6335,29.964 -79.4681,42.0184 -102.21,47.6909 -204.3866,76.6871 -317.0319,89.969 -9.625,1.1349 -18.1623,2.3042 -18.9718,2.5985 -0.8095,0.2943 -9.1345,1.2169 -18.5,2.0503 -16.0245,1.4257 -103.24732,2.7137 -119.0282,1.7575 z"
       id="path837"
       inkscape:connector-curvature="0" />
    <path
       style="fill:#c3e1e0"
       d="M 960.5,2012.3853 C 862.55083,2006.4138 777.45078,1990.2555 690,1961.0246 558.70269,1917.1378 441.18912,1849.041 336.5,1756.1785 319.73416,1741.3067 271.69335,1693.2658 256.82152,1676.5 183.80527,1594.1847 125.38086,1501.94 81.880534,1400.2904 46.823553,1318.3708 23.874853,1235.5992 9.9913613,1141 8.3366297,1129.725 6.5572571,1118.025 6.0372,1115 5.517143,1111.975 4.0735599,1098.25 2.8292376,1084.5 0.8301756,1062.41 0.56446247,1053.389 0.54646402,1007 0.5256393,953.32656 1.0693865,941.84466 5.5662969,901 12.174241,840.98118 26.275535,771.65363 41.659219,723.5529 66.131865,647.03337 84.130653,602.70191 116.02931,540.37752 171.79673,431.41776 254.28497,327.53479 351,244.46316 c 26.19705,-22.50149 48.28473,-39.51177 49.59902,-38.19747 0.22724,0.22724 -2.43886,4.19792 -5.92466,8.82374 -26.58132,35.27457 -54.05998,77.0743 -77.22229,117.46827 -16.76491,29.23721 -41.51195,77.71575 -40.29375,78.93395 0.2586,0.2586 272.46626,31.54383 604.90593,69.52275 332.43965,37.97892 702.74695,80.28618 822.90505,94.01615 185.6505,21.21351 218.7255,25.2269 220.1749,26.71651 3.6399,3.74083 22.7241,51.90124 34.377,86.75294 26.1483,78.20509 43.9241,165.34956 49.6436,243.37385 0.6882,9.38895 1.5366,16.60924 1.8853,16.04509 1.0777,-1.74368 1.9424,25.95139 1.9462,62.33106 0,21.6716 -0.3596,34.75 -0.9617,34.75 -0.5309,0 -27.4184,-7.1708 -59.75,-15.9352 C 1817.0145,992.39615 1168.8783,816.63148 1115,802.00599 1082.825,793.27195 910.25,746.47149 731.5,698.00498 552.75,649.53847 380.175,602.73995 348,594.00829 233.41337,562.91171 222.5181,560 220.74493,560 c -2.19118,0 -2.49148,0.77154 -8.70983,22.37804 -15.11711,52.52642 -27.54492,112.99142 -34.61952,168.43429 -2.33025,18.26192 -2.51882,21.50583 -1.31753,22.66421 1.19952,1.15667 173.96567,62.44515 1064.40195,377.59466 681.6262,241.2459 691.007,244.5947 690.7965,246.5988 -0.5941,5.6587 -29.0662,64.9037 -44.8527,93.33 -30.6423,55.1768 -69.0286,111.4798 -107.3807,157.5 -7.9493,9.5388 -15.0308,17.1414 -16.1348,17.3221 -1.0821,0.1772 -351.6536,-108.4154 -779.04774,-241.3168 -427.39416,-132.9014 -777.30209,-241.4171 -777.57317,-241.146 -0.74206,0.742 9.85375,37.1115 18.39532,63.1407 32.08624,97.7782 76.50346,189.1673 133.41343,274.5 23.62361,35.422 45.5923,64.9294 71.40229,95.9043 14.58026,17.4979 17.64456,20.6712 20.68953,21.4256 1.26062,0.3124 239.66704,53.0412 529.79204,117.1753 290.125,64.1341 528.5534,116.8662 529.841,117.1824 2.2663,0.5566 2.2823,0.6308 0.5,2.3276 -4.074,3.8786 -50.2904,28.3827 -77.3091,40.9896 -111.4159,51.9864 -214.6421,79.4494 -355.5319,94.5882 -12.3574,1.3278 -102.07562,2.7022 -117,1.7923 z M 1720,309.33191 c -4.675,-0.68833 -26.275,-3.94587 -48,-7.23899 -21.725,-3.29312 -122.975,-18.61971 -225,-34.05909 -102.025,-15.43937 -192.7,-29.17979 -201.5,-30.53425 -8.8,-1.35446 -175.0387,-26.54712 -369.41923,-55.98369 C 681.70019,152.07933 522.47017,127.80351 522.23629,127.56962 520.40834,125.74167 575.39364,98.277633 613.70965,81.880534 712.46676,39.618033 827.0017,11.522737 931.87385,3.8351982 941.2628,3.1469511 948.48309,2.2985675 947.91894,1.9499012 946.23489,0.90910033 973.42931,0.00731612 1006.5,0.00731612 c 33.0707,0 60.2651,0.90178421 58.5811,1.94258508 -0.5642,0.3486663 6.6561,1.1970499 16.0451,1.885297 9.3889,0.6882471 24.564,2.1181857 33.7223,3.1776414 C 1326.1367,31.455126 1519.0229,117.79318 1677.5,258.86211 c 17.3474,15.44183 51.8803,49.55024 51.3903,50.75863 -0.2449,0.60419 -3.5556,0.49663 -8.8903,-0.28883 z"
       id="path835"
       inkscape:connector-curvature="0" />
    <path
       style="fill:#bee0e0"
       d="m 957.5,2012.3504 c -4.95,-0.2021 -9.9,-0.7694 -11,-1.2607 -1.1,-0.4912 -9.425,-1.4189 -18.5,-2.0616 -39.22193,-2.7776 -88.13149,-9.9014 -130.5,-19.0077 C 624.73529,1952.8882 469.31429,1873.8849 335.5,1755.1775 318.74175,1740.3112 272.68882,1694.2582 257.82248,1677.5 201.13112,1613.594 153.90537,1544.7525 112.73211,1466 79.302508,1402.0589 49.622542,1323.2696 30.988171,1249 17.902636,1196.846 8.2218087,1138.7847 4.3940206,1089.5 3.4969677,1077.95 2.2538369,1067.4194 1.6315077,1066.0986 0.01565048,1062.6693 0.034688,950.27299 1.6516971,946.90139 2.2851306,945.58062 3.3292174,937.075 3.97189,928 8.761457,860.36787 23.486385,783.00235 44.433257,715.41392 63.152537,655.01317 82.356986,607.48977 111.15594,550.30175 140.99293,491.05241 170.01042,445.15302 210.81515,392.66245 262.67501,325.95071 314.35923,273.20134 376.5,223.56303 c 16.4174,-13.11429 20.20827,-15.83691 21.43058,-15.3915 0.49578,0.18066 -3.92895,6.85347 -9.83273,14.82847 -28.14063,38.0132 -55.31537,80.37276 -79.54915,124 C 297.57256,366.75997 276,409.5329 276,411.53584 c 0,0.83981 0.5625,1.7345 1.25,1.9882 0.6875,0.25369 371.58273,42.76337 824.2116,94.46595 550.1652,62.84388 823.3458,94.41993 824.1206,95.25735 3.1667,3.42254 22.4554,52.88252 33.4424,85.75266 29.2744,87.58082 46.6597,179.60041 51.2946,271.5 0.222,4.40197 0.3984,3.33662 0.6621,-4 l 0.3595,-10 0.7024,11 c 1.0246,16.04662 1.1066,86.7106 0.1,86.0884 -0.4713,-0.2913 -27.3588,-7.7137 -59.75,-16.4942 C 1817.142,990.43072 1168.9162,814.64178 1115,800.00599 1082.825,791.27195 910.25,744.47149 731.5,696.00498 552.75,647.53847 380.175,600.73995 348,592.00829 233.41337,560.91171 222.5181,558 220.74493,558 c -2.21744,0 -2.58857,0.95976 -9.28041,24 -11.40528,39.26879 -21.70613,85.13746 -28.85759,128.5 -4.41054,26.74305 -8.80344,61.30549 -8.08119,63.58109 0.30579,0.96346 1.77509,2.18955 3.26512,2.72465 3.87973,1.39329 915.41724,324.13496 1058.20914,374.67266 65.725,23.2617 248.875,88.0804 407,144.0414 158.125,55.9611 287.6794,101.9041 287.8986,102.0957 1.3701,1.1974 -29.9256,66.2408 -44.4509,92.3845 -30.5277,54.9457 -68.9227,111.3135 -106.9407,157 -7.5518,9.075 -14.0772,16.8745 -14.5009,17.3322 -0.4238,0.4577 -93.411,-27.9756 -206.6383,-63.1852 C 1445.1405,1565.9375 1244.725,1503.6168 1113,1462.6566 981.275,1421.6964 723.48108,1341.5336 540.12463,1284.5171 323.62284,1217.1937 206.40752,1181.1925 205.77447,1181.8255 c -1.85424,1.8543 17.34456,64.5964 31.7239,103.6745 27.47797,74.6756 65.0727,150.4954 107.35012,216.5 33.76423,52.7136 90.87612,127.8327 103.8223,136.5571 2.19218,1.4773 26.99042,7.3554 87.44458,20.7274 C 1071.3164,1777.6673 1507.4088,1874 1508.1195,1874 c 2.6289,0 -0.075,2.3172 -7.8695,6.7451 -54.4098,30.9072 -114.8974,57.7721 -176.25,78.2795 -67.508,22.565 -130.8388,36.6763 -206.5,46.0121 -8.8,1.0859 -18.7,2.4015 -22,2.9237 -3.3,0.5222 -10.95,1.2536 -17,1.6254 -6.05,0.3718 -11.5958,1.1498 -12.324,1.7289 -1.3002,1.0341 -88.39334,1.8641 -108.676,1.0357 z m 624,-1725.84639 C 1504.5,274.78679 1316.175,246.2231 1163,223.02914 1009.825,199.83519 870.325,178.69702 853,176.05544 835.675,173.41386 755.00918,161.1932 673.74262,148.89842 585.07948,135.48461 526.11861,126.14418 526.3187,125.5439 527.17895,122.96314 580.15539,96.774227 612.24156,83.067922 721.81066,36.263104 841.2405,8.6955755 960.5,2.6807763 c 4.40197,-0.2220114 3.33662,-0.3983496 -4,-0.662083 l -10,-0.3594757 11,-0.70238681 c 14.24931,-0.90986597 83.7507,-0.90986597 98,0 l 11,0.70238681 -10,0.3594757 c -7.3366,0.2637334 -8.402,0.4400716 -4,0.662083 247.0882,12.4617817 482.6319,115.3385337 656,286.5164237 17.3253,17.10639 18.7356,18.7534 16,18.68541 -1.65,-0.041 -66,-9.66138 -143,-21.3786 z"
       id="path833"
       inkscape:connector-curvature="0" />
    <path
       style="fill:#c2dddd"
       d="m 957.03406,2012.3167 c -5.20627,-0.2186 -9.70627,-0.7437 -10,-1.1669 -0.29373,-0.4232 -8.18406,-1.3338 -17.53406,-2.0236 -40.49591,-2.9876 -88.75352,-10.0257 -131,-19.1058 -173.06161,-37.196 -330.0112,-116.971 -464,-235.8439 C 317.74985,1739.316 273.684,1695.2501 258.82352,1678.5 184.7728,1595.033 125.04322,1501.151 82.002851,1400.5762 39.305879,1300.8038 11.614413,1188.4218 3.8737821,1083.5 c -0.6942197,-9.4099 -1.7273543,-17.3186 -2.3139808,-17.7135 -1.48398668,-0.9991 -1.48398668,-117.57386 0,-118.57297 C 2.1464278,946.81857 3.1795624,938.90992 3.8737821,929.5 7.7160582,877.41918 17.472379,817.86884 30.988171,764 83.596116,554.32462 201.83294,366.97326 367.5,230.78246 c 17.33822,-14.25333 28.69715,-22.77192 30.37244,-22.77771 0.9604,-0.003 1.07468,0.37054 0.38064,1.24525 -11.14515,14.04653 -37.52318,51.95551 -53.40459,76.75 -48.8034,76.19317 -90.14632,163.49069 -119.34379,252 -3.17509,9.625 -6.21765,18.0625 -6.76124,18.75 -0.54359,0.6875 -0.72821,1.25 -0.41026,1.25 0.31794,0 -0.099,1.9125 -0.92642,4.25 -3.0291,8.55674 -11.47527,38.94066 -16.86055,60.65345 -9.93651,40.06287 -18.66679,87.00609 -23.98244,128.95496 -1.41887,11.19713 -2.82772,20.75963 -3.13079,21.25 -0.30307,0.49038 -0.13591,0.89159 0.37147,0.89159 0.54724,0 0.5939,1.93226 0.11471,4.75 -1.22425,7.19881 -3.80654,41.16613 -4.92249,64.75 -7.51331,158.7831 21.02723,325.9412 81.01605,474.5 25.24554,62.5191 59.11313,128.2289 94.83575,184 29.87706,46.6449 72.86709,104.3068 97.61015,130.923 2.77275,2.9827 4.40623,5.0487 3.62996,4.5913 -0.77628,-0.4575 0.80809,1.3771 3.52081,4.0769 2.71273,2.6999 11.73234,12.3338 20.04359,21.4088 8.31125,9.075 24.95747,26.175 36.9916,38 155.89342,153.1843 352.41846,257.6207 567.0937,301.3622 24.3809,4.9678 25.0223,5.9625 4.6406,7.1968 -6.5334,0.3957 -12.1812,1.1889 -12.5507,1.7627 -0.6732,1.0455 -88.46829,1.8485 -108.79414,0.995 z"
       id="path831"
       inkscape:connector-curvature="0" />
    <path
       style="fill:#b6d7d6"
       d="m 957.03406,2012.3167 c -5.20627,-0.2186 -9.70627,-0.7437 -10,-1.1669 -0.29373,-0.4232 -8.18406,-1.3338 -17.53406,-2.0236 -40.49591,-2.9876 -88.75352,-10.0257 -131,-19.1058 -173.06161,-37.196 -330.0112,-116.971 -464,-235.8439 -16.75015,-14.8605 -60.816,-58.9264 -75.67648,-75.6765 -33.59388,-37.8657 -61.49936,-74.2139 -87.52073,-114 -31.3974,-48.0059 -53.51493,-87.069 -73.304838,-129.4681 C 53.549784,1339.8035 24.057523,1240.4255 11.035335,1142 9.9074337,1133.475 8.5251355,1124.5327 7.9635609,1122.1282 6.7909038,1117.1072 3,1077.9803 3,1070.898 3,1068.0018 2.5151605,1066.0051 1.75,1065.75 0.09209472,1065.1974 -0.09542909,948.32793 1.5598013,947.21353 2.1464278,946.81857 3.1795624,938.90992 3.8737821,929.5 8.7494196,863.4123 24.217375,780.39832 42.164499,724 66.230063,648.37467 85.236049,601.44954 116.48712,540.5 153.52323,468.26777 197.34409,405.12423 258.40765,336 273.77052,318.60917 318.60917,273.77052 336,258.40765 c 25.99076,-22.95995 56.73285,-48.00813 57.71538,-47.0256 0.2599,0.25989 -4.56834,7.36775 -10.72942,15.79524 -24.501,33.51392 -55.10767,81.57071 -75.9949,119.32271 -12.33184,22.28881 -31.70605,61.48856 -32.40153,65.55787 -0.33444,1.95683 -3.35082,9.60683 -6.70307,17 -14.36681,31.6851 -31.01313,74.43237 -42.42342,108.94213 -3.18241,9.625 -6.59989,18.625 -7.5944,20 -3.67982,5.08767 -19.698,65.20095 -28.24545,106 -8.69577,41.50704 -16.59489,95.0039 -16.38979,111 0.067,5.225 -0.62383,17.825 -1.53517,28 -10.19341,113.80794 0.29375,246.2482 28.36413,358.205 2.1657,8.6378 3.93764,17.6806 3.93764,20.0952 0,2.4655 3.03878,14.8699 6.93161,28.295 31.71954,109.3901 79.19206,212.2865 141.82499,307.4048 30.75486,46.7063 70.17175,98.1665 91.15952,119.0122 5.82113,5.7818 17.39336,17.9318 25.71606,27 8.3227,9.0683 24.97829,26.1628 37.01242,37.9878 155.89342,153.1843 352.41846,257.6207 567.0937,301.3622 24.3809,4.9678 25.0223,5.9625 4.6406,7.1968 -6.5334,0.3957 -12.1812,1.1889 -12.5507,1.7627 -0.6732,1.0455 -88.46829,1.8485 -108.79414,0.995 z"
       id="path829"
       inkscape:connector-curvature="0" />
    <path
       style="fill:#a4d3d2"
       d="m 956.5,2012 -10,-0.6127 9,-0.3827 c 7.59516,-0.323 8.06344,-0.43 3,-0.6854 -171.49994,-8.6495 -338.05325,-60.8821 -483.95292,-151.7718 -46.72968,-29.1108 -95.08652,-65.4033 -139.04708,-104.3568 -18.8711,-16.7218 -64.77627,-63.0288 -81.54871,-82.2627 -32.22524,-36.9543 -72.69093,-89.5216 -70.55613,-91.6564 0.14972,-0.1497 58.27275,12.5527 129.16229,28.2276 102.83886,22.7395 129.51051,28.9548 131.95974,30.7504 1.68833,1.2378 7.53051,7.2005 12.98262,13.2505 76.16242,84.5144 163.46543,156.0775 262.50019,215.1739 106.96845,63.8307 227.35691,110.5763 349.5,135.7074 l 21,4.3208 -9.5,0.799 c -5.225,0.4395 -14.675,1.1113 -21,1.4929 l -11.5,0.6939 9,0.3264 9,0.3265 -11,0.7024 c -13.2677,0.8472 -84.97794,0.8159 -99,-0.043 z M 104.556,1150.5407 C 52.886802,1134.4281 10.001361,1120.8524 9.2550207,1120.3725 7.81838,1119.4488 4.8324945,1091.3852 3.1507475,1063 c -0.835055,-14.0944 -0.8679317,-14.2482 -1.175308,-5.5 l -0.3162219,9 -0.70238681,-11 c -0.90986597,-14.2493 -0.90986597,-83.75069 0,-98 l 0.70238681,-11 0.3594757,9 c 0.2994725,7.49773 0.4099864,7.99849 0.662083,3 3.3387326,-66.19931 14.1649217,-137.69232 30.2860077,-200 6.406684,-24.76171 7.885888,-29.50623 9.377643,-30.07867 1.392843,-0.53449 127.293183,43.81628 128.875843,45.39894 0.68971,0.68971 0.49731,6.75908 -0.59749,18.8485 -3.25206,35.91113 -4.04364,55.75448 -4.04227,101.33123 0.001,45.19878 0.82551,66.14758 3.97347,101 4.80604,53.2098 15.27876,116.5122 27.43551,165.834 4.56874,18.5361 4.64687,19.1957 2.26051,19.0842 -0.9625,-0.045 -44.0248,-13.2648 -95.694,-29.3775 z m 63.24467,-605.88617 c -24.58464,-6.72093 -44.97739,-12.49792 -45.31724,-12.83776 -1.91703,-1.91704 28.53287,-53.31138 52.85323,-89.20741 12.85852,-18.97876 25.89462,-37.01623 27.44497,-37.9744 0.78019,-0.48218 56.59769,5.37231 65.96837,6.91917 2.21763,0.36608 3.25,1.08987 3.25,2.27857 0,0.95813 -2.74692,7.80024 -6.10427,15.20468 C 251.63721,460.48376 239.2038,492.22569 225.95669,531 c -7.98782,23.38032 -8.9092,25.51556 -11.08434,25.6872 -1.30479,0.10296 -22.48705,-5.31174 -47.07168,-12.03267 z"
       id="path827"
       inkscape:connector-curvature="0" />
  </g>
</svg>
