<?xml version="1.0" encoding="UTF-8" standalone="no"?>
<svg
   xmlns:dc="http://purl.org/dc/elements/1.1/"
   xmlns:cc="http://creativecommons.org/ns#"
   xmlns:rdf="http://www.w3.org/1999/02/22-rdf-syntax-ns#"
   xmlns:svg="http://www.w3.org/2000/svg"
   xmlns="http://www.w3.org/2000/svg"
   xmlns:sodipodi="http://sodipodi.sourceforge.net/DTD/sodipodi-0.dtd"
   xmlns:inkscape="http://www.inkscape.org/namespaces/inkscape"
   version="1.1"
   id="svg815"
   width="1000"
   height="1000"
   viewBox="0 0 1000 1000"
   sodipodi:docname="venus.svg"
   inkscape:version="1.0.1 (3bc2e813f5, 2020-09-07)"
   inkscape:export-filename=""
   inkscape:export-xdpi="96"
   inkscape:export-ydpi="96">
  <metadata
     id="metadata821">
    <rdf:RDF>
      <cc:Work
         rdf:about="">
        <dc:format>image/svg+xml</dc:format>
        <dc:type
           rdf:resource="http://purl.org/dc/dcmitype/StillImage" />
        <dc:title />
      </cc:Work>
    </rdf:RDF>
  </metadata>
  <defs
     id="defs819" />
  <sodipodi:namedview
     pagecolor="#ffffff"
     bordercolor="#666666"
     borderopacity="1"
     objecttolerance="10"
     gridtolerance="10"
     guidetolerance="10"
     inkscape:pageopacity="0"
     inkscape:pageshadow="2"
     inkscape:window-width="1633"
     inkscape:window-height="873"
     id="namedview817"
     showgrid="false"
     inkscape:zoom="0.1767767"
     inkscape:cx="396.31734"
     inkscape:cy="1246.2872"
     inkscape:window-x="0"
     inkscape:window-y="0"
     inkscape:window-maximized="1"
     inkscape:current-layer="svg815"
     inkscape:document-rotation="0" />
  <g
     id="g825"
     transform="matrix(0.49372204,0,0,0.49666416,0.0846066,0.06490967)">
    <path
       style="fill:#dcd4c2"
       d="M 839.5,2009.953 C 575.59787,1962.4412 345.08632,1817.7888 190.99992,1603.0011 99.470378,1475.4142 38.793161,1329.2753 13.500383,1175.5 c -1.990193,-12.1 -4.0376386,-23.35 -4.5498782,-25 -1.7755852,-5.7194 -6.0232725,-45.0973 -7.0115443,-65 -2.65701747,-53.5094 -2.14966755,-124.49352 1.1721691,-164 C 6.9416048,875.94431 17.488052,814.7846 29.953778,765.83728 48.325556,693.69954 69.958681,634.28269 101.43837,569.5 155.23971,458.78111 236.02406,350.32478 326.03538,267.96921 434.72446,168.5245 558.00559,95.764534 694.6265,50.428415 766.65304,26.527217 850.21825,9.0983118 921.5,3.1102038 c 56.46685,-4.7435647 156.9674,-3.59013062 206,2.3642404 108.6411,13.1930368 211.7825,42.3661298 309.5,87.5407208 7.425,3.432561 14.625,7.028055 16,7.989995 1.375,0.96194 7.675,4.33484 14,7.49534 113.5912,56.7597 221.4046,139.96368 305.1537,235.4995 102.926,117.41175 178.6427,258.93626 218.283,408 1.9745,7.425 4.2359,15.075 5.0253,17 4.9657,12.10899 16.5193,71.07984 21.9432,112 9.8813,74.54953 10.2967,181.6143 0.9912,255.5 -17.4022,138.1745 -65.348,277.2226 -136.3928,395.5541 -80.2429,133.6519 -183.9762,241.9957 -312.5036,326.3932 -84.2748,55.3391 -182.1597,100.4702 -277.6935,128.0342 -35.801,10.3295 -88.6399,22.3559 -108.8065,24.7649 -5.3192,0.6354 -68.187,1.1224 -168,1.3013 l -159.5,0.2858 z"
       id="path839"
       inkscape:connector-curvature="0" />
    <path
       style="fill:#d1c9b6"
       d="m 943.46361,2011.712 c -0.57002,-0.6666 -5.01757,-6.8279 -9.88346,-13.6917 C 894.46929,1942.8501 840.09048,1889.3096 763,1830.0698 716.81143,1794.5765 680.51737,1769.2982 570.21086,1695.7949 449.57527,1615.4088 412.23629,1589.6075 358.5,1549.5024 291.06358,1499.1724 242.75916,1457.8366 191.44079,1406.5438 116.75938,1331.8995 65.719574,1263.5507 23.362671,1181.4658 11.261435,1158.0144 9.6220021,1152.655 6.5687624,1126.5659 -1.2607257,1059.6649 -2.2551873,993.55868 3.5666157,927 12.758932,821.90739 39.911717,712.70452 80.522344,617.5 102.44095,566.11566 132.17893,509.23496 155.02323,475 c 3.11953,-4.675 9.50778,-14.35507 14.1961,-21.51126 C 231.60491,358.2643 316.80813,268.32226 409,200.37198 452.90272,168.01335 486.90096,146.12726 528,123.76669 637.13409,64.390594 754.57084,25.706718 874.60281,9.5950972 925.70732,2.7354536 948.66632,1.0087488 998.17769,0.30125463 1051.0792,-0.4546828 1089.2912,1.5423787 1137,7.5564659 c 76.909,9.6950241 157.4675,29.8155421 231.8829,57.9157121 33.5858,12.682402 76.4146,31.455114 82.8845,36.329932 1.7971,1.35402 6.2646,6.78997 9.9277,12.07988 104.2084,150.48604 263.1422,357.1656 373.9916,486.34355 57.4501,66.9492 111.6184,124.85183 144.6321,154.60289 6.5131,5.86936 12.6538,12.24657 13.6462,14.17157 7.0662,13.70762 20.6528,88.01954 25.962,142 3.6498,37.10878 4.1956,47.0833 4.7701,87.17769 0.5765,40.22891 -0.3233,68.40871 -3.2515,101.82231 -13.1371,149.9108 -63.3492,304.0134 -141.4126,434 -53.2719,88.7051 -121.6737,171.0396 -197.033,237.1663 -41.1951,36.1482 -98.1534,78.3642 -137,101.5411 -64.4182,38.4335 -119.1933,65.1931 -178.9292,87.4134 -11.8639,4.4131 -22.9208,8.6243 -24.5708,9.3581 -4.3117,1.9175 -38.3232,12.6654 -56.5048,17.8558 -33.4271,9.5428 -77.385,19.3638 -105.8644,23.6522 -12.7983,1.9271 -18.1144,2.0115 -124.5,1.9751 -85.76851,-0.029 -111.36733,-0.3147 -112.16719,-1.25 z"
       id="path837"
       inkscape:connector-curvature="0" />
    <path
       style="fill:#c4baa2"
       d="m 940.99206,2006.2919 c -19.16417,-28.6186 -40.86468,-54.3025 -73.41914,-86.8964 C 822.81937,1874.5878 779.78656,1839.1131 708,1787.8492 c -33.70288,-24.0677 -55.8587,-39.1136 -150,-101.864 -113.49798,-75.6527 -147.87765,-99.4902 -202,-140.0589 -42.08737,-31.5475 -75.44809,-58.6732 -112.94541,-91.8361 -23.68854,-20.9504 -78.32678,-75.6175 -97.22501,-97.2764 C 91.918605,1295.0273 50.398937,1233.9091 19.588384,1170.9829 10.879518,1153.1963 9.6795944,1149.1298 6.9823052,1128.2611 1.6430793,1086.9519 0.56080708,1067.4417 0.56080708,1012.5 c 0,-45.8147 0.26456338,-54.88339 2.22419232,-76.24075 C 9.5541327,862.48466 21.228938,799.26051 40.133661,734 c 2.788179,-9.625 5.916958,-20.71302 6.952843,-24.64004 1.035885,-3.92703 4.535033,-14.72703 7.775886,-24 C 74.815907,628.26742 96.310434,579.43507 123.46725,529.5 c 8.86379,-16.29844 28.0983,-48.96997 31.49673,-53.5 1.03153,-1.375 6.57565,-9.70051 12.32027,-18.50112 C 234.28273,354.85887 323.31956,262.07297 423,191.0157 c 7.975,-5.68498 17.65,-12.59928 21.5,-15.36511 27.76484,-19.94618 75.7514,-48.27087 115.33032,-68.07522 C 636.84114,69.04098 720.29779,39.800716 803.95782,22.041703 823.71174,17.848423 852.64577,12.633293 865,11.039337 903.64278,6.0536008 914.87214,4.7558927 935.16237,2.9311054 980.22118,-1.121227 1048.6258,-0.84650093 1098.5,3.5871004 c 90.1817,8.0167656 183.1696,29.5632816 271.3829,62.8829446 28.3669,10.714648 72.2778,29.602713 79.8774,34.358885 1.2432,0.77803 5.2708,5.7473 8.9503,11.04283 140.218,201.80093 329.8296,443.06914 451.0991,573.99386 16.4015,17.70728 59.7684,61.19364 74.0029,74.20668 11.9384,10.91394 11.843,10.7141 17.6784,37.02487 9.9365,44.80181 15.8687,85.25355 21.1031,143.90283 2.139,23.96653 2.9918,91.675 1.4997,119.0661 -2.8619,52.5363 -7.8332,92.3981 -17.7012,141.9339 -26.5822,133.4386 -76.8868,257.5129 -148.5939,366.5011 -68.6335,104.3165 -153.7445,193.0022 -254.7987,265.5003 -23.822,17.0903 -66.3377,44.9986 -68.5513,44.9986 -0.3151,0 -5.4767,2.9108 -11.4701,6.4685 -46.1183,27.3753 -101.5467,53.7437 -154.9078,73.6928 -11.8639,4.4353 -23.3708,8.867 -25.5708,9.8481 -2.2,0.9811 -11.875,4.2793 -21.5,7.3293 -46.7302,14.8078 -88.2796,25.1162 -133.8882,33.2174 L 1167.7236,2013 H 1056.6039 945.48411 Z"
       id="path835"
       inkscape:connector-curvature="0" />
    <path
       style="fill:#ada182"
       d="M 942.50974,2005.75 C 913.10326,1961.1825 865.65962,1910.6283 807.5,1861.8886 752.82122,1816.0659 703.86292,1781.2097 552.5,1680.3396 468.4073,1624.2991 442.06724,1606.3534 404,1579.1648 238.36836,1460.8664 132.39815,1355.957 57.677982,1236.3094 c -19.481236,-31.1948 -44.59246,-79.4125 -47.098623,-90.4371 -2.4376783,-10.7234 -7.5660429,-58.5736 -7.5753,-70.6813 -0.00223,-2.92 -0.3847996,-5.0737 -0.8501492,-4.7861 -1.23984915,0.7662 -2.14659368,-23.6934 -2.14659368,-57.9049 0,-34.2115 0.90674453,-58.67115 2.14659368,-57.90488 0.4653496,0.2876 0.8479168,-1.86614 0.8501492,-4.7861 C 3.0099194,942.14401 5.6005594,914.7115 8.5577987,891 15.12395,838.3518 26.333304,784.00576 41.1467,733 43.942049,723.375 46.814381,712.8 47.529659,709.5 51.400952,691.63943 76.121702,627.64721 94.333591,588.34318 112.2831,549.60541 145.40387,488.76757 154.62164,477.60315 156.03079,475.89642 163.12169,465.5 170.37921,454.5 238.24769,351.63375 324.48828,262.07004 423.17064,191.9677 432.70179,185.19693 444.55,176.63682 449.5,172.94524 c 11.09938,-8.27763 24.15887,-16.73315 45,-29.13576 C 594.24118,84.453234 704.45149,42.010891 817,19.613695 c 24.08396,-4.792718 32.66961,-6.119675 65.5,-10.123369 28.80229,-3.5124642 46.86855,-5.3336788 60.71742,-6.1207718 6.44459,-0.3662743 11.51083,-1.0002397 11.25832,-1.4088119 -1.64847,-2.66728171 97.81586,-2.28245106 131.02426,0.506937 33.9525,2.8518882 83.0918,9.2359497 100,12.9917707 3.3,0.733028 15.675,3.416688 27.5,5.963689 57.3905,12.361401 104.9587,26.197047 154.8829,45.049039 28.1013,10.611404 76.6498,31.508134 80.8905,34.817732 0.7003,0.54659 8.5483,11.39246 17.44,24.10194 125.8292,179.8571 288.9447,389.23189 406.7535,522.10815 36.6098,41.29215 80.6468,86.94475 107.2728,111.20836 l 13.7398,12.52068 2.9233,9.13548 c 5.3689,16.77803 16.014,73.39924 19.4839,103.63548 1.891,16.47807 4.5204,46.37995 5.3201,60.50079 0.3249,5.73832 0.9046,10.23939 1.2881,10.00237 2.0067,-1.2402 2.7348,78.21104 0.9898,107.99684 -2.1281,36.3235 -6.7632,78.82 -11.4523,105 -17.9057,99.9704 -44.367,186.075 -82.4195,268.1916 -3.3621,7.2554 -6.1129,13.6739 -6.1129,14.2633 0,3.4665 -27.9299,55.6655 -44.9696,84.0451 -63.494,105.7492 -144.9938,198.3176 -240.0728,272.6776 -35.0449,27.4081 -82.2342,59.8687 -101.9576,70.1347 -4.675,2.4333 -12.2982,6.6634 -16.9404,9.4003 -44.9008,26.4716 -101.5025,53.2943 -153.9693,72.9639 -11.8533,4.4438 -22.4602,8.6587 -23.5709,9.3665 -1.1107,0.7078 -10.5694,4.0016 -21.0194,7.3196 -46.9176,14.8968 -84.5071,24.3291 -131.8779,33.092 L 1167.7536,2013 H 1057.5235 947.29343 Z"
       id="path833"
       inkscape:connector-curvature="0" />
    <path
       style="fill:#a6997a"
       d="m 1154.8469,2012.0408 c -0.2265,-0.6797 0.01,-5.1295 0.52,-9.8883 0.5126,-4.7589 0.9651,-26.6525 1.0056,-48.6525 0.079,-42.9385 -0.8274,-57.1023 -5.9189,-92.5 C 1126.5271,1694.6587 1038.7475,1525.0044 886.06078,1350 851.17234,1310.012 795.12706,1252.1198 753,1212.5543 613.39041,1081.4337 448.95734,957.19992 251.66788,833.78378 199.42555,801.10314 113.57439,750.62239 63.25,722.99349 L 48,714.62099 v -3.60123 C 48,707.18371 56.674162,681.14789 66.996847,654 87.456266,600.19327 115.97941,541.69071 146.36324,491.21509 c 6.14954,-10.21602 8.82208,-13.79759 10.47536,-14.03845 7.36027,-1.0723 112.76982,38.11324 175.50349,65.24265 67.81254,29.32579 148.75281,69.40995 212.65791,105.31486 138.08699,77.5838 263.99121,165.80525 373.5,261.71252 57.19462,50.09076 117.1357,110.20853 164.5683,165.05333 159.1734,184.0474 253.154,383.2898 276.8817,587 4.6827,40.2024 5.4954,55.9535 5.4954,106.5 0,37.763 -0.3881,53.0383 -1.7532,69 -4.688,54.8152 -15.5997,124.9254 -20.2411,130.0541 -2.9972,3.3118 -50.8631,18.0096 -90.7169,27.8557 -19.2943,4.7668 -59.6004,13.1734 -70.2342,14.6488 -2.75,0.3815 -5.5462,1.1285 -6.2138,1.6599 -1.9762,1.5732 -20.9464,2.3008 -21.4393,0.8223 z M 1535.6025,1871.25 c 14.2688,-31.8334 21.8174,-59.6543 27.0652,-99.75 1.5077,-11.5202 1.8275,-20.8196 1.8053,-52.5 -0.028,-40.0645 -0.6794,-49.8464 -5.5602,-83.5 -30.78,-212.2311 -169.0854,-477.0453 -358.8019,-687 -19.9973,-22.13046 -67.7954,-70.13708 -90.1109,-90.504 -46.3483,-42.30116 -85.6301,-73.22041 -131,-103.11207 -12.375,-8.15319 -23.5125,-15.53348 -24.75,-16.40064 -2.52121,-1.76671 -2.95679,-4.27484 -0.88075,-5.07149 3.02729,-1.16168 167.80515,78.92229 232.63075,113.06126 109.856,57.85323 170.3312,97.41936 209.3978,136.99913 14.2597,14.44703 23.0182,25.15481 49.1005,60.02781 35.4239,47.363 54.8514,69.8867 90.1391,104.5047 77.1515,75.6874 204.0532,174.1715 367.1281,284.9157 17.5049,11.8875 21.2345,14.832 21.2345,16.7643 0,4.5751 -24.0007,50.0547 -43.9675,83.3153 -71.5873,119.2496 -163.8387,219.5115 -276.0325,300.0014 -29.879,21.4358 -64.8474,43.9986 -68.19,43.9986 -1.6212,0 -1.5485,-0.5272 0.7925,-5.75 z M 1930.5,1184.3401 c -119.4672,-5.6093 -215.0157,-39.078 -299.5,-104.9087 -19.1202,-14.8986 -33.258,-27.5841 -55.0321,-49.3788 C 1529.7607,983.80144 1490.8844,934.62724 1424.5294,838.5 1347.1463,726.39663 1324.5235,694.78056 1289.6486,650 1251.4118,600.90268 1217.7239,562.62608 1176.0521,520.93035 1117.7724,462.61715 1068.5258,422.08794 1003,378.51102 858.40701,282.35169 683.94734,215.63179 476,176.9665 463.625,174.66552 453.37691,172.67115 453.22646,172.53458 451.53802,171.00181 462.3981,163.60836 494.5,144.4359 602.24452,80.086836 721.16748,36.020232 842.39077,15.525855 c 15.73951,-2.660968 21.09682,-3.211023 24.65407,-2.531323 13.78735,2.634414 75.653,33.228949 114.95516,56.848991 105.1044,63.166237 220.3578,159.949947 353.8998,297.186227 53.5344,55.01536 88.0137,91.70625 192.1311,204.45457 81.0591,87.77852 108.1964,116.51092 151.9496,160.88082 142.9889,145.00451 244.5466,217.93133 333.5195,239.49477 4.4,1.06638 8.8474,2.28028 9.8831,2.69756 1.8161,0.73167 1.8667,2.43561 1.4206,47.85063 -0.3042,30.9651 -0.8326,47.7768 -1.5429,49.0919 -0.5943,1.1 -1.5992,9.65 -2.2332,19 -1.9519,28.7842 -9.55,86.8706 -11.9499,91.3548 -0.8512,1.5906 -2.8474,1.9151 -15.2784,2.4837 -13.4966,0.6175 -50.1636,0.6184 -63.2993,0 z m 70.6042,-290.40134 C 1938.3153,858.90632 1864.8145,800.3605 1764,705.0775 1729.4324,672.40658 1604.6955,546.93669 1516.4145,456.0372 1371.4293,306.75158 1299.3321,235.62655 1229,172.49803 1141.1349,93.632296 1066.5291,38.625795 1007.7718,9.3873887 1000.2213,5.630161 993.79709,1.9136168 993.49578,1.1284017 c -0.47098,-1.22735788 4.86974,-1.35231919 38.06552,-0.89065107 26.3432,0.36636487 38.967,0.89057237 39.7261,1.64963107 0.6119,0.6119401 3.3851,1.1144449 6.1626,1.1166773 22.1009,0.017764 109.4913,11.664648 118.9638,15.854798 6.2977,2.785779 53.4464,48.724992 252.0862,245.619683 129.0801,127.94608 164.1851,162.55123 213.5626,210.52146 144.9466,140.81576 248.9475,235.32564 321.5671,292.22135 8.6182,6.75223 11.4876,9.61447 12.716,12.68468 5.0496,12.62014 23.28,117.65452 21.0477,121.26638 -0.8299,1.34286 -1.2591,1.15225 -16.2892,-7.23365 z"
       id="path831"
       inkscape:connector-curvature="0" />
    <path
       style="fill:#968969"
       d="m 1156.3316,2008.4058 c 1.6712,-13.0005 2.8749,-48.9044 2.3101,-68.9058 -0.9789,-34.6659 -3.4095,-60.5314 -8.7361,-92.965 C 1131.1181,1732.1383 1080.0527,1612.3373 999.21081,1493 923.01745,1380.5248 818.63968,1265.8583 689,1152.211 525.03352,1008.4716 319.64811,865.66761 93,737.81376 77.875,729.28164 61.5625,720.17168 56.75,717.56942 c -6.859843,-3.70932 -8.749503,-5.19993 -8.747697,-6.9004 0.003,-2.82755 9.198154,-29.94453 18.667672,-55.05195 C 82.822049,612.79156 101.73478,571.46241 123.46747,531.5 c 11.25672,-20.69902 29.22859,-51.00286 31.23517,-52.66818 1.31682,-1.09286 5.90406,0.16678 28.96538,7.95377 C 389.71342,556.35981 612.3971,674.89868 797.5,813.54033 921.95723,906.75851 1030.5262,1009.9935 1115.5873,1116 c 142.7787,177.9365 225.1354,367.0325 244.3313,561 5.6482,57.0731 5.8187,118.7653 0.4891,177 -3.8743,42.3333 -14.6181,109.145 -18.2152,113.2737 -2.6711,3.0658 -51.9727,18.1281 -90.4583,27.6361 -19.1483,4.7307 -59.3645,13.1259 -70.2342,14.6614 -2.75,0.3885 -5.2714,1.1261 -5.6031,1.639 -0.3318,0.5129 -5.0115,1.1956 -10.3995,1.517 l -9.7964,0.5845 z M 1536,1875.248 c 0,-0.4136 2.1911,-5.9261 4.8692,-12.25 16.6323,-39.2755 24.5927,-80.1395 25.8108,-132.498 2.0984,-90.193 -20.3917,-195.0032 -66.734,-311 -86.8342,-217.3498 -244.6934,-439.63494 -418.1112,-588.75209 -32.9642,-28.34502 -66.6423,-53.91048 -102.10036,-77.5056 C 958.96859,739.42392 955.69803,737 957.81886,737 c 3.58639,0 116.11084,54.12876 180.68114,86.91485 140.8742,71.53 208.7313,114.12265 254.0937,159.48978 17.4731,17.47497 24.3893,25.88637 55.5796,67.59537 31.8278,42.5614 47.4501,60.5056 84.4814,97.037 37.6396,37.1317 73.1292,68.0941 127.3453,111.101 64.5076,51.1705 151.918,114.6254 247.75,179.8522 8.3875,5.7088 15.25,10.9784 15.25,11.7101 0,3.5555 -25.4662,51.1453 -42.9989,80.3538 -65.6215,109.322 -146.138,200.7739 -244.0011,277.1405 -25.4777,19.8813 -66.3808,48.3787 -90.4151,62.9926 -7.8528,4.7749 -9.5849,5.5087 -9.5849,4.0608 z m 380,-693.3308 c -62.8688,-4.3583 -114.6399,-15.4996 -165.5,-35.6162 -86.221,-34.1027 -159.3442,-92.0472 -234.77,-186.03699 -28.9034,-36.01711 -52.6949,-68.8306 -108.3296,-149.40899 C 1328.5639,696.67245 1293.4749,649.46749 1246.5766,594.5 1104.3372,427.7876 941.09358,316.71921 727.5,241.32858 650.35471,214.09915 542.79614,186.29303 463,172.94985 c -4.125,-0.68976 -7.87156,-1.57971 -8.32568,-1.97767 C 453.04956,169.5484 498.76579,141.26632 531,123.75375 626.74447,71.736593 730.13658,35.583373 837.88819,16.443852 848.55169,14.549734 859.10056,13 861.33012,13 c 7.12599,0 52.65817,20.579414 86.16988,38.946652 130.7357,71.654178 263.7201,184.357878 449.0788,380.592368 36.428,38.5654 49.2308,52.32946 133.1067,143.10029 79.6288,86.17466 106.3333,114.36199 151.7906,160.21871 60.1938,60.72271 104.5609,101.64254 146.0239,134.67786 75.2197,59.93077 135.0567,92.10495 195.3849,105.05789 l 2.385,0.51207 -0.4673,47.14116 c -0.3438,34.692 -0.7756,47.244 -1.6349,47.5304 -0.6886,0.2296 -1.1694,2.5091 -1.1718,5.5559 -0.012,15.6075 -8.6931,88.905 -12.0529,101.7699 l -0.941,3.6032 -7.6519,0.6468 c -10.294,0.8701 -70.9803,0.5601 -85.3501,-0.436 z M 2004,893.651 C 1953.5315,865.80161 1896.5548,822.99144 1825.5267,759.55282 1757.574,698.86096 1681.7518,623.91476 1527.531,465 1439.1371,373.91573 1343.0294,277.16622 1303.4793,239.45205 1178.2786,120.06333 1087.8503,48.825186 1011.25,9.2381322 1002.3125,4.6192271 995,0.58321408 995,0.26921441 c 0,-1.14341534 75.4151,0.47618062 75.799,1.62784019 0.2045,0.6134249 2.6608,1.1047469 5.5343,1.1070044 19.4631,0.015291 107.4218,11.294228 117.2845,15.039365 1.5852,0.601957 6.7072,4.762405 11.3822,9.24544 36.0141,34.535259 103.0162,100.405426 228.0041,224.152046 174.8248,173.08871 192.1535,190.14715 247.9959,244.12866 138.5387,133.92199 236.7835,222.68582 305.3772,275.90733 5.4065,4.19483 9.3822,8.0963 10.1687,9.97883 3.1342,7.50106 13.9005,64.07805 18.418,96.78651 2.1527,15.58631 2.5176,21.75876 1.2861,21.75621 -0.4125,-8.6e-4 -5.925,-2.85721 -12.25,-6.34745 z"
       id="path829"
       inkscape:connector-curvature="0" />
    <path
       style="fill:#847754"
       d="m 1157.3507,2011.25 c 2.2221,-8.0101 3.6555,-53.3651 2.5852,-81.7983 -2.1087,-56.0175 -10.3295,-106.6192 -26.5304,-163.3034 C 1090.2954,1615.3137 995.24714,1461.0219 848.12936,1303.0595 829.68662,1283.2572 773.53172,1227.1142 752,1206.9503 589.544,1054.815 383.71073,905.10541 146.35976,766.44737 c -24.6488,-14.39958 -74.1485,-42.44052 -90.10307,-51.04223 -5.339293,-2.87861 -7.245069,-4.44158 -7.25,-5.94588 C 48.998576,706.98401 59.394511,676.62349 67.996847,654 87.933999,601.56679 115.50785,544.66416 144.68156,495.75 151.89411,483.65705 154.5476,480 156.10946,480 c 2.47431,0 36.64019,11.31011 61.76597,20.44671 248.17429,90.24475 501.22839,239.03755 695.62457,409.01898 42.84688,37.46563 106.7725,99.79141 139.8518,136.35171 157.6495,174.2395 253.3565,352.4966 291.6371,543.1826 12.4099,61.8171 17.4872,114.3922 17.3829,180 -0.065,41.0813 -1.4347,66.9606 -5.4238,102.5 -4.4303,39.4708 -13.9569,94.0389 -16.8109,96.2931 -0.9004,0.7111 -9.2871,3.7263 -18.6371,6.7004 -44.989,14.3101 -88.7004,25.141 -135,33.4504 -8.8,1.5794 -14.65,2.9649 -13,3.0788 2.771,0.1915 2.6947,0.2704 -1,1.0347 -2.2,0.455 -6.6178,0.8533 -9.8174,0.885 -5.0732,0.05 -5.7553,-0.1663 -5.3319,-1.6924 z M 1538,1874.7767 c 0,-0.2125 2.5049,-6.4367 5.5663,-13.8316 17.2045,-41.5563 24.7764,-84.5884 24.8005,-140.9451 0.019,-43.628 -3.7446,-79.0017 -13.5108,-127 -23.0567,-113.3177 -75.2032,-242.4226 -148.8401,-368.5 -60.1218,-102.9374 -131.8145,-200.1883 -211.9266,-287.47743 -17.2936,-18.8428 -64.4158,-65.69319 -83.5893,-83.10698 -40.6258,-36.89726 -80.6195,-68.77652 -118.5,-94.45699 -7.975,-5.40653 -15.625,-10.70228 -17,-11.76833 l -2.5,-1.93827 2.5,0.75096 c 5.24851,1.57658 83.0101,39.17426 141,68.17344 140.1578,70.0891 212.5036,113.29117 261.0557,155.8922 17.876,15.68492 33.096,32.507 50.6048,55.9314 31.6851,42.3904 39.3047,52.3404 48.834,63.7697 74.163,88.9501 204.8323,195.879 414.5055,339.1967 16.775,11.4662 30.707,21.0214 30.9599,21.2339 1.3397,1.1251 -26.4656,53.2223 -43.9249,82.2997 -80.1844,133.5419 -187.3224,244.2654 -317.035,327.645 -18.3415,11.7899 -23,14.6522 -23,14.1317 z m 394.5,-693.827 c -127.7204,-5.1693 -230.0795,-43.6807 -319,-120.0201 -24.7094,-21.2133 -59.5092,-57.027 -84.2714,-86.72657 C 1496.628,935.10224 1467.594,895.33846 1399.4767,796.5 1323.3117,685.98422 1280.1915,629.23522 1227.3993,570.03501 1061.3081,383.78344 858.42689,265.72738 588,197.97014 c -38.51225,-9.64949 -92.79663,-21.32673 -121,-26.02859 -4.125,-0.68769 -8.15271,-1.58674 -8.95047,-1.99789 -3.56136,-1.83545 59.8734,-39.40159 102.79365,-60.87451 C 649.24756,64.840612 740.41591,34.579867 836.88819,17.443852 847.55169,15.549734 857.84936,14 859.77188,14 c 6.90456,0 57.91416,23.319469 90.72812,41.477125 110.4873,61.138345 222.5686,151.897075 364.519,295.172355 56.7725,57.30231 85.865,88.07011 196.5406,207.85799 85.4419,92.47653 97.6629,105.49958 144.6807,154.1751 147.7166,152.92456 250.717,230.79184 341.4936,258.16558 7.2787,2.19489 16.3912,4.57461 20.25,5.28828 l 7.0161,1.29758 -0.1272,36.03299 c -0.07,19.8182 -0.4433,40.983 -0.8296,47.033 l -0.7024,11 -0.3171,-9.5 -0.317,-9.5 -0.7906,13.5 c -1.7817,30.4271 -5.0332,61.997 -9.5267,92.5 -3.4218,23.2271 -2.6474,21.2847 -8.7327,21.9053 -10.0571,1.0256 -51.4443,1.3423 -71.1567,0.5444 z m 73.553,-288.07068 C 1948.8906,862.16204 1874.6107,804.03692 1782.8028,718.1826 1722.2998,661.6031 1661.6544,600.85521 1521.5492,456.48765 1408.8795,340.39033 1321.9529,253.82043 1264,199.99551 1162.638,105.85348 1077.9537,41.400481 1010.1676,6.8044809 L 996.83511,0 1023.1676,0.12722201 c 14.4828,0.0699721 31.2824,0.44329606 37.3324,0.82960878 l 11,0.70238681 -9.5,0.3162118 -9.5,0.3162118 14,0.8159596 c 34.1745,1.9917846 73.3276,6.3349533 107.3571,11.9088922 13.8909,2.27529 19.0001,3.511822 21,5.082433 8.4781,6.65823 109.9664,106.407844 279.1832,274.400154 262.8825,260.98025 396.0388,386.00861 498.0575,467.65604 20.37,16.30244 23.7513,19.39772 24.7192,22.62849 5.3008,17.69246 19.9651,103.14502 18.9982,110.70699 l -0.3152,2.46489 z"
       id="path827"
       inkscape:connector-curvature="0" />
  </g>
</svg>
